<?xml version="1.0" encoding="utf-8"?>
<!-- Generator: Adobe Illustrator 27.0.0, SVG Export Plug-In . SVG Version: 6.00 Build 0)  -->
<svg version="1.1" id="圖層_1" xmlns="http://www.w3.org/2000/svg" xmlns:xlink="http://www.w3.org/1999/xlink" x="0px" y="0px"
	 viewBox="0 0 387.6 195.9" style="enable-background:new 0 0 387.6 195.9;" xml:space="preserve">
<style type="text/css">
	.st0{fill:#47CFB9;}
	.st1{fill:#FFFFFF;}
	.st2{fill:#FFFFF4;}
	.st3{fill:#2AA890;}
	.st4{fill:#FFFFFF;stroke:#FF86AA;stroke-width:3;stroke-miterlimit:10;}
	.st5{fill:#FF86AA;}
	.st6{fill:#4D4867;}
	.st7{fill:#FFFFFF;stroke:#BBAEF9;stroke-width:3;stroke-linecap:round;stroke-linejoin:round;stroke-miterlimit:10;}
	.st8{fill:#BBAEF9;stroke:#BBAEF9;stroke-width:3;stroke-linecap:round;stroke-linejoin:round;stroke-miterlimit:10;}
	.st9{fill:#BBAEF9;}
	.st10{fill:#F95D98;}
</style>
<g>
	<polygon class="st5" points="193.8,19.2 17.3,61 17.3,83.7 17.3,112.1 17.3,134.8 193.8,176.6 370.3,134.8 370.3,112.1 370.3,83.7 
		370.3,61 	"/>
	<g>
		<path class="st1" d="M100.6,109.2c-3.4,0-5-1.7-5-5v-37h-10c-2.8,0-4.2-1.4-4.2-4.2c0-2.8,1.4-4.2,4.2-4.2h15.1h15.1
			c2.8,0,4.2,1.4,4.2,4.2c0,2.8-1.4,4.2-4.2,4.2h-10.2v37C105.6,107.5,103.9,109.2,100.6,109.2z"/>
		<path class="st1" d="M133.1,109.2c-3.4,0-5-1.7-5-5V63.2c0-1.3,0.4-2.4,1.2-3.2c0.8-0.8,1.9-1.2,3.2-1.2h4.4h8.8
			c12.6,0,18.9,5.1,18.9,15.3c0,7.2-3.2,12-9.6,14.5l8.9,15.6c0.9,1.5,1,2.7,0.5,3.6c-0.5,0.9-1.7,1.4-3.4,1.4h-2.3
			c-1,0-1.9-0.2-2.7-0.7c-0.8-0.5-1.5-1.2-1.9-2l-8.9-16.4h-7v14C138.2,107.5,136.5,109.2,133.1,109.2z M138.2,82.2h6.5
			c6.7,0,10-2.7,10-8.1c0-2.6-0.9-4.5-2.6-5.7c-1.6-1-4.1-1.6-7.4-1.6h-6.5v7.7V82.2z"/>
		<path class="st1" d="M179,109.2c-1.3,0-2.4-0.4-3.2-1.2c-0.8-0.8-1.2-1.9-1.2-3.2V63.2c0-1.3,0.4-2.4,1.2-3.2
			c0.8-0.8,1.9-1.2,3.2-1.2h22.3c2.8,0,4.2,1.4,4.2,4.2c0,2.8-1.4,4.2-4.2,4.2h-16.7v11.6h13.5c2.8,0,4.2,1.4,4.2,4.2
			s-1.4,4.2-4.2,4.2h-13.5v13.5H202c2.8,0,4.2,1.4,4.2,4.2s-1.4,4.2-4.2,4.2h-11.6H179z"/>
		<path class="st1" d="M221.2,109.2c-3.2,0-4.8-1.6-4.8-4.8V63.2c0-1.3,0.4-2.4,1.2-3.2s1.9-1.2,3.2-1.2h0.7h2.8
			c1.6,0,2.8,0.7,3.5,2.1l13.5,24.7l5,10.9h0.3c0-0.3-0.1-0.7-0.1-1.2c-0.8-7.4-1.2-12.9-1.2-16.4V63.6c0-3.2,1.6-4.8,4.8-4.8
			c3.2,0,4.8,1.6,4.8,4.8v40.5c0,1.6-0.6,2.9-1.8,3.8c-1.1,0.9-2.5,1.3-4.3,1.3c-1.2,0-2.3-0.2-3.3-0.7c-1.1-0.5-2-1.3-2.5-2.3
			l-12.9-23.9l-5.1-10.8h-0.3c0,0.8,0.2,2,0.3,3.6c0.6,6.3,0.9,10.9,0.9,14v15.5C226,107.6,224.4,109.2,221.2,109.2z"/>
		<path class="st1" d="M270.8,109.2c-1,0-1.8-0.3-2.4-0.9s-0.9-1.4-0.9-2.4V63.2c0-1.3,0.4-2.4,1.2-3.2s1.9-1.2,3.2-1.2h9.4
			c7.9,0,14,2,18.3,6.1c4.5,4.3,6.7,10.6,6.7,18.9s-2.2,14.7-6.6,19.1c-4.3,4.2-10.2,6.3-17.8,6.3h-7.2H270.8z M277.6,101.1h3.1
			c10.2,0,15.3-5.8,15.3-17.3c0-11.3-5.1-17-15.3-17h-3.1V84V101.1z"/>
	</g>
	<g>
		<g>
			<path class="st6" d="M144.2,150.8c-0.7,0-1.2-0.2-1.6-0.6c-0.4-0.4-0.5-1-0.5-1.6c0.1-0.7,0.1-1.4,0.1-2.1v-18c0-0.6,0-1.3-0.1-2
				c-0.1-0.5,0-1,0.3-1.3c0.3-0.3,0.7-0.5,1.2-0.5h0.6h1.3c0.3,0,0.6,0.1,0.8,0.3s0.3,0.4,0.2,0.7c-0.1,1-0.2,1.9-0.2,2.8v4.6
				c4.1,1.2,7.9,2.6,11.5,4.1c0.6,0.3,1,0.7,1.1,1.1c0.1,0.4,0,1-0.4,1.7c-0.6,1.5-1.6,1.9-3,1.2c-2.7-1.2-5.7-2.5-9.2-3.7v8.9
				c0,0.6,0,1.3,0.1,2.1c0.1,0.7-0.1,1.2-0.4,1.6c-0.3,0.4-0.8,0.6-1.5,0.6H144.2z"/>
			<path class="st6" d="M169.3,150.1l-0.9-0.8c-0.4-0.3-0.7-0.8-0.8-1.3s-0.2-1.1-0.1-1.6c0-0.1,0-0.2,0-0.3v-17c0-0.7,0-1.4-0.1-2
				c-0.1-0.4,0-0.8,0.3-1.1c0.3-0.3,0.7-0.4,1.2-0.4h0.8h1.3c0.3,0,0.6,0.1,0.8,0.3s0.2,0.5,0.2,0.8c-0.1,0.9-0.2,1.7-0.2,2.4v16.3
				c2.3-0.7,4.8-1.7,7.3-3.2c2.7-1.6,5.1-3.3,7.1-5.3c1.2-1.3,2.2-1.2,3.1,0.3c0.6,0.9,0.5,1.8-0.2,2.6c-4.1,4.3-9.8,7.7-17.2,10.1
				c-0.1,0-0.2,0.1-0.4,0.2c-0.2,0.1-0.4,0.1-0.5,0.2C170.3,150.6,169.8,150.5,169.3,150.1z"/>
			<path class="st6" d="M195.3,149.3l-0.5-0.8c-0.4-0.6-0.5-1.1-0.2-1.6c0.2-0.4,0.8-0.7,1.6-0.9c3.5-0.8,6.7-2,9.4-3.7
				c2.2-1.3,4.3-2.9,6.1-4.8c1.7-1.7,3.2-3.6,4.3-5.5c0.3-0.5,0.6-0.8,1-0.8s0.8,0.4,1.1,1l0,0.1l0.7,1.2c0.4,0.7,0.4,1.3,0,1.9
				c-1.3,2-2.8,4-4.7,5.8c-1.9,1.9-4.1,3.5-6.4,4.9c-3.3,2-6.6,3.3-10,4.1C196.7,150.5,195.8,150.2,195.3,149.3z M200.9,134.1
				c-1.3-1.2-2.8-2.6-4.7-4.1c-1.2-0.9-1.2-1.9-0.1-3c0.4-0.5,0.9-0.8,1.3-0.9c0.4-0.1,0.9,0.1,1.4,0.4c1,0.7,1.9,1.5,2.8,2.2
				c0.8,0.6,1.6,1.3,2.5,2.1c0.5,0.5,0.7,1,0.7,1.5c0,0.4-0.3,1-0.8,1.5c-0.6,0.6-1.1,0.9-1.5,1
				C201.9,134.9,201.4,134.6,200.9,134.1z"/>
			<path class="st6" d="M227.2,151.3c-0.3,0-0.6-0.1-0.8-0.3c-0.2-0.2-0.3-0.5-0.2-0.8c0.1-1.1,0.2-2.2,0.2-3.3v-18.1
				c0-0.6,0-1.3-0.1-2c-0.1-0.6,0-1,0.3-1.3c0.3-0.3,0.7-0.5,1.2-0.5h0.9c0.7,0,1.2,0.2,1.5,0.6s0.5,0.9,0.4,1.6
				c0,0.7-0.1,1.3-0.1,1.6v4.6c4.2,1.3,8,2.6,11.5,4.2c0.6,0.3,1,0.6,1.1,1.1c0.1,0.4,0,1-0.3,1.7c-0.6,1.5-1.6,2-3.1,1.2
				c-2.6-1.2-5.7-2.4-9.2-3.6v8.9c0,0.6,0,1.3,0.1,2.1c0.1,0.7-0.1,1.2-0.4,1.6c-0.3,0.4-0.8,0.6-1.4,0.6h-0.4H227.2z M240.4,131.4
				c-0.9,0.4-1.6,0.1-2-0.8c-0.1-0.1-0.2-0.4-0.4-0.7c-0.1-0.2-0.2-0.4-0.3-0.5c-0.1-0.1-0.2-0.3-0.3-0.5c-0.1-0.2-0.2-0.4-0.3-0.5
				c-0.6-0.9-0.4-1.6,0.5-2c0.8-0.3,1.4-0.2,1.8,0.5c0.7,1,1.2,1.8,1.6,2.5C241.5,130.4,241.3,131,240.4,131.4z M244.6,129.6
				c-0.9,0.4-1.5,0.2-2-0.7c-0.3-0.5-0.5-0.9-0.7-1.2c-0.1-0.1-0.2-0.3-0.3-0.4c-0.1-0.2-0.2-0.3-0.3-0.4c-0.6-0.9-0.4-1.6,0.5-2
				c0.7-0.4,1.3-0.2,1.8,0.4c0,0.1,0.1,0.1,0.2,0.3c0.7,1,1.2,1.8,1.4,2.2C245.7,128.6,245.5,129.2,244.6,129.6z"/>
		</g>
	</g>
</g>
</svg>
