<?xml version="1.0" encoding="utf-8"?>
<!-- Generator: Adobe Illustrator 27.0.0, SVG Export Plug-In . SVG Version: 6.00 Build 0)  -->
<svg version="1.1" id="圖層_1" xmlns="http://www.w3.org/2000/svg" xmlns:xlink="http://www.w3.org/1999/xlink" x="0px" y="0px"
	 viewBox="0 0 1156.3 152.1" style="enable-background:new 0 0 1156.3 152.1;" xml:space="preserve">
<style type="text/css">
	.st0{fill:#47CFB9;}
	.st1{fill:#FFFFFF;}
	.st2{fill:#FFFFF4;}
	.st3{fill:#2AA890;}
	.st4{fill:#FFFFFF;stroke:#FF86AA;stroke-width:3;stroke-miterlimit:10;}
	.st5{fill:#FF86AA;}
	.st6{fill:#4D4867;}
	.st7{fill:#FFFFFF;stroke:#BBAEF9;stroke-width:3;stroke-linecap:round;stroke-linejoin:round;stroke-miterlimit:10;}
	.st8{fill:#BBAEF9;stroke:#BBAEF9;stroke-width:3;stroke-linecap:round;stroke-linejoin:round;stroke-miterlimit:10;}
	.st9{fill:#BBAEF9;}
	.st10{fill:#F95D98;}
</style>
<g>
	<path class="st5" d="M495.4,76.7c-1.8,0-2.7-0.9-2.7-2.7V58c-1.1,3.1-2.2,5.6-3.3,7.6c-0.7,1.1-1.4,1.7-1.9,1.6
		c-0.6,0-1.1-0.7-1.7-1.9c-0.3-0.7-0.5-1.3-0.5-1.8c0-0.5,0.3-1.1,0.7-1.7c2.6-3.9,4.6-8.6,6.1-14.2h-3.4c-1.8,0-2.7-0.9-2.7-2.7
		s0.9-2.7,2.7-2.7h4v-7.1c0-1.8,0.9-2.7,2.7-2.7c1.8,0,2.7,0.9,2.7,2.7v7.1h3.2c1.8,0,2.7,0.9,2.7,2.7s-0.9,2.7-2.7,2.7h-3.2v2.9
		c1.5,1.7,3.4,3.9,5.5,6.6c0.4,0.6,0.6,1.1,0.6,1.5c-0.1,0.3-0.3,0.9-0.8,1.5c-0.7,1-1.4,1.5-1.9,1.5c-0.5,0-1.1-0.6-1.7-1.7
		c-0.2-0.3-0.4-0.6-0.8-1.2c-0.4-0.8-0.8-1.3-1-1.7v9.9V74C498.1,75.8,497.2,76.7,495.4,76.7z M508.6,73.6c-0.9,0-1.7-0.3-2.2-0.9
		c-0.6-0.6-0.9-1.3-0.9-2.2V38.1c0-0.9,0.3-1.7,0.9-2.2s1.3-0.9,2.2-0.9h7.9h8c0.9,0,1.7,0.3,2.2,0.9s0.9,1.3,0.9,2.2v32.4
		c0,0.9-0.3,1.7-0.9,2.2c-0.6,0.6-1.3,0.9-2.2,0.9H508.6z M510.9,46.2h5.5h5.5v-4.7c0-0.8-0.4-1.1-1.1-1.1h-8.8
		c-0.8,0-1.1,0.4-1.1,1.1V46.2z M510.9,57.3h5.5h5.5v-6h-11V57.3z M512.1,68.5h8.8c0.8,0,1.1-0.4,1.1-1.1v-4.9h-5.5h-5.5v4.9
		C510.9,68.1,511.3,68.5,512.1,68.5z"/>
	<path class="st5" d="M537.7,76.7c-1.8,0-2.7-0.9-2.7-2.7V37.4c0-0.9,0.3-1.7,0.9-2.2s1.3-0.9,2.2-0.9h5.9h6c0.9,0,1.7,0.3,2.2,0.9
		s0.9,1.3,0.9,2.2v9.9c0,0.9-0.3,1.7-0.9,2.2c-0.6,0.6-1.3,0.9-2.2,0.9h-9.5V74C540.4,75.8,539.5,76.7,537.7,76.7z M540.4,40.5h3.6
		h3.7v-1.3c0-0.7-0.3-1-1-1h-5.2c-0.8,0-1.1,0.4-1.1,1.1V40.5z M540.4,46.5h6.2c0.8,0,1.1-0.4,1.1-1.1V44H544h-3.6V46.5z
		 M566.8,75.9c-0.7-0.5-1.1-1.1-1.3-1.9c-0.3-0.8-0.4-1.3-0.6-1.7c-0.2,0.2-0.4,0.5-0.7,0.9c-0.1,0.2-0.2,0.3-0.2,0.4
		c-0.4,0.6-1,0.8-1.8,0.6c-3.2-1.2-5.7-3-7.6-5.6c-1.5,2-3.8,3.7-6.9,5c-1.7,0.6-3,0.5-3.7-0.4c-0.7-0.8-0.8-1.5-0.2-2.2
		c0.5-0.6,1.3-1.1,2.5-1.6c2.2-1.1,3.8-2.5,4.6-4h-6c-1.4,0-2-0.7-2-2.1c0-1.4,0.7-2,2-2h6.8v-2.5h-6.3c-1.3,0-1.9-0.7-1.9-2
		c0-1.3,0.6-1.9,1.9-1.9h1.8c0-0.1-0.1-0.2-0.2-0.4c-0.1-0.2-0.1-0.3-0.2-0.4c-0.8-1.5-0.3-2.5,1.4-3c1.1-0.3,2,0,2.6,0.9
		c0.6,1,1,2,1.3,2.9h4.8c0-0.1,0.1-0.3,0.2-0.5c0.3-0.7,0.4-1.2,0.6-1.5c0.5-1.5,1.6-2.1,3.1-1.8c1,0.3,1.6,0.7,1.7,1.2
		s-0.1,1.3-0.7,2.2c0,0,0,0.1-0.1,0.1c0,0.1-0.1,0.1-0.1,0.1h2.2c1.3,0,1.9,0.6,1.9,1.9c0,1.3-0.6,2-1.9,2h-7.2v2.5h7.5
		c1.4,0,2,0.7,2,2c0,1.4-0.7,2.1-2,2.1h-6.7c1.7,2.3,4.2,4,7.6,4.9c0.9,0.2,1,0.6,0.6,1.1l0,0l0,0.1c1.3,0.1,2.1,0.1,2.6,0
		c0.5,0,0.8-0.3,0.8-0.8V50.4h-9.8c-0.9,0-1.7-0.3-2.2-0.9c-0.6-0.6-0.9-1.3-0.9-2.2v-10c0-0.9,0.3-1.7,0.9-2.2
		c0.6-0.6,1.3-0.9,2.2-0.9h6.1h6.1c0.9,0,1.7,0.3,2.2,0.9c0.6,0.6,0.9,1.3,0.9,2.2v33.4c0,1.4-0.1,2.4-0.4,3.1
		c-0.3,0.8-0.8,1.4-1.6,1.8c-0.7,0.4-1.8,0.7-3.1,0.9C568.4,76.6,567.5,76.4,566.8,75.9z M561.4,40.5h3.8h3.8v-1.3c0-0.7-0.3-1-1-1
		h-5.4c-0.8,0-1.1,0.4-1.1,1.1V40.5z M562.5,46.6h6.4V44h-3.8h-3.8v1.4C561.4,46.2,561.8,46.6,562.5,46.6z"/>
	<path class="st5" d="M582.3,44.8c-1.5,0-2.2-0.7-2.2-2.2s0.7-2.2,2.2-2.2H597c1.5,0,2.2,0.7,2.2,2.2s-0.7,2.2-2.2,2.2h-7.4H582.3z
		 M585.2,74.2c-0.9,0-1.7-0.3-2.2-0.9s-0.9-1.3-0.9-2.2V63c0-0.9,0.3-1.7,0.9-2.2s1.3-0.9,2.2-0.9h4.5h4.5c0.9,0,1.7,0.3,2.2,0.9
		s0.9,1.3,0.9,2.2v8.1c0,0.9-0.3,1.7-0.9,2.2s-1.3,0.9-2.2,0.9H585.2z M584.4,51.2c-1.4,0-2.1-0.7-2.1-2.2c0-1.4,0.7-2.1,2.1-2.1
		h10.8c1.4,0,2.1,0.7,2.1,2.1c0,1.5-0.7,2.2-2.1,2.2h-5.4H584.4z M584.4,57.6c-1.4,0-2.1-0.7-2.1-2.1c0-1.4,0.7-2.1,2.1-2.1h10.9
		c1.4,0,2.1,0.7,2.1,2.1c0,1.4-0.7,2.1-2.1,2.1h-5.4H584.4z M584.7,38.2c-1.4,0-2.1-0.7-2.1-2.1s0.7-2.1,2.1-2.1h5.3h5.4
		c1.4,0,2.1,0.7,2.1,2.1s-0.7,2.1-2.1,2.1H584.7z M588.1,69.8h3.1c0.8,0,1.1-0.4,1.1-1.1v-1.6v-1.6c0-0.8-0.4-1.1-1.1-1.1h-3.1
		c-0.8,0-1.1,0.4-1.1,1.1v3.2C587,69.4,587.4,69.8,588.1,69.8z M608.8,76.3c-2.9,0-4.9-0.5-6-1.5c-1.1-1.1-1.7-3.1-1.7-6.1V53.2
		c0-0.9,0.3-1.7,0.9-2.2s1.3-0.9,2.2-0.9h10.6c0.8,0,1.1-0.4,1.1-1.1v-7.6c0-0.8-0.4-1.1-1.1-1.1h-11.1c-1.8,0-2.7-0.9-2.7-2.7
		c0-1.8,0.9-2.7,2.7-2.7h7.6h7.2c0.9,0,1.7,0.3,2.2,0.9c0.6,0.6,0.9,1.3,0.9,2.2v14.4c0,0.9-0.3,1.7-0.9,2.2
		c-0.6,0.6-1.3,0.9-2.2,0.9H608c-0.8,0-1.1,0.4-1.1,1.1v12.1c0,1,0.1,1.6,0.5,1.9c0.3,0.3,1,0.4,2.1,0.4h6.7c1,0,1.7-0.4,2-1.2
		c0.2-1.5,0.6-2.7,1.1-3.6c0.7-1,1.6-1.3,2.7-0.9c0.7,0.3,1.2,1,1.4,2.1c0.2,0.9,0.3,1.8,0.1,2.9c-0.4,2.3-1.2,3.8-2.2,4.7
		c-1,0.9-2.6,1.3-4.7,1.3H608.8z"/>
	<path class="st5" d="M640.5,75.2c-0.8-1.8,0.2-2.7,2.7-2.7c0.6,0,1.3,0,1.9,0c0.4,0,0.8-0.1,0.9-0.3c0.2-0.2,0.3-0.5,0.3-0.9v-1.5
		h-12.2c-1.4,0-2-0.7-2-2c0-1.4,0.7-2,2-2h12.2v-2.2h-16.4c-1.4,0-2.1-0.7-2.1-2.2c0-1.4,0.7-2.1,2.1-2.1h7.2h9.3v-2h-12
		c-1.3,0-1.9-0.6-1.9-1.9c0-1.3,0.6-1.9,1.9-1.9h12v-2.1h-9.7c-0.9,0-1.7-0.3-2.2-0.9c-0.6-0.6-0.9-1.3-0.9-2.2V45
		c0-0.9,0.3-1.7,0.9-2.2c0.6-0.6,1.3-0.9,2.2-0.9h9.7V40H631c-1.5,0-2.2-0.7-2.2-2.2c0-1.5,0.7-2.2,2.2-2.2h15.3v-0.3
		c0-1.9,0.9-2.8,2.8-2.8c1.9,0,2.8,0.9,2.8,2.8v0.3h15.7c1.5,0,2.2,0.7,2.2,2.2c0,1.5-0.7,2.2-2.2,2.2H652V42h10.3
		c0.9,0,1.7,0.3,2.2,0.9s0.9,1.3,0.9,2.2v3.2c0,0.9-0.3,1.7-0.9,2.2c-0.6,0.6-1.3,0.9-2.2,0.9H652v2.1h11c0.9,0,1.7,0.3,2.2,0.9
		s0.9,1.3,0.9,2.2v2.7h2.7c1.4,0,2.1,0.7,2.1,2.1c0,1.5-0.7,2.2-2.1,2.2h-2.7v3.3c0,0.9-0.3,1.6-0.8,2.2c-0.5,0.6-1.3,0.8-2.2,0.8
		H652v1.5c0,1.4-0.2,2.4-0.5,3.1c-0.4,0.7-1,1.2-1.9,1.6c-1.2,0.4-3,0.7-5.5,0.8C642.1,76.9,641,76.3,640.5,75.2z M639.9,47.8h6.4
		v-2.3h-3.7h-2.6c-0.8,0-1.1,0.4-1.1,1.1v0.1C639,47.4,639.3,47.8,639.9,47.8z M652,47.8h3.8h2.7c0.8,0,1.1-0.4,1.1-1.1v-0.1
		c0-0.7-0.3-1-1-1H652V47.8z M652,59.2h8.5v-1.2c0-0.6-0.3-0.9-0.9-0.9h-3.4H652V59.2z M652,65.8h4.2h3.1c0.8,0,1.1-0.4,1.1-1.1
		v-1.1H652V65.8z"/>
</g>
<path class="st9" d="M28.8,83.5c351.9-1.5,746.7-1.5,1098.6,0c0.8,0,1.4,0.6,1.4,1.4c0,0.8-0.6,1.4-1.4,1.4
	c-302.5,1.4-658.4,1.3-961.3,0.5c0,0-137.3-0.5-137.3-0.5c-0.8,0-1.4-0.6-1.4-1.4C27.5,84.1,28.1,83.5,28.8,83.5L28.8,83.5z"/>
<g>
	<path class="st6" d="M514,119.6c-3.1,0-5.7-1-7.7-3.1c-2.1-2.2-3.2-5.2-3.2-9.1s1.1-6.9,3.3-9.1c2.1-2.2,4.7-3.3,7.8-3.3
		c2.1,0,4,0.6,5.7,1.9c0.8,0.7,0.9,1.6,0.1,2.5c-0.9,1.1-1.9,1.2-3,0.3c-0.8-0.5-1.7-0.7-2.7-0.7c-1.8,0-3.3,0.7-4.5,2.2
		c-1.2,1.5-1.8,3.5-1.8,6c0,2.6,0.6,4.6,1.7,6.1c1.1,1.5,2.6,2.2,4.5,2.2c1.2,0,2.3-0.3,3.3-1c1.1-0.9,2.1-0.8,3,0.3
		c0.7,0.9,0.7,1.8-0.2,2.6C518.4,118.9,516.3,119.6,514,119.6z"/>
	<path class="st6" d="M533.5,119.6c-3.2,0-5.7-1.1-7.7-3.3c-2-2.2-2.9-5.3-2.9-9.1s1-6.8,2.9-9c1.9-2.1,4.5-3.2,7.7-3.2
		s5.7,1.1,7.7,3.2c2,2.2,2.9,5.2,2.9,9c0,3.8-1,6.8-2.9,9.1C539.2,118.5,536.7,119.6,533.5,119.6z M533.5,115.5
		c1.8,0,3.2-0.7,4.2-2.2c1-1.5,1.6-3.5,1.6-6.1s-0.5-4.5-1.6-6c-1-1.4-2.4-2.2-4.2-2.2s-3.2,0.7-4.2,2.2c-1,1.4-1.6,3.4-1.6,6
		c0,2.5,0.5,4.6,1.6,6.1C530.3,114.8,531.7,115.5,533.5,115.5z"/>
	<path class="st6" d="M551,119.2c-1.5,0-2.2-0.7-2.2-2.2V97.6c0-0.6,0.2-1.1,0.6-1.5c0.4-0.4,0.9-0.6,1.5-0.6h0.3h1.3
		c0.8,0,1.3,0.3,1.7,1l6.3,11.6l2.4,5.1h0.2c0-0.1,0-0.3-0.1-0.6c-0.4-3.5-0.5-6.1-0.5-7.7v-7.2c0-1.5,0.7-2.2,2.2-2.2
		s2.2,0.7,2.2,2.2v19.1c0,0.8-0.3,1.4-0.8,1.8c-0.5,0.4-1.2,0.6-2,0.6c-0.6,0-1.1-0.1-1.6-0.4c-0.5-0.3-0.9-0.6-1.2-1.1l-6.1-11.2
		l-2.4-5.1h-0.2c0,0.4,0.1,0.9,0.2,1.7c0.3,2.9,0.4,5.1,0.4,6.6v7.3C553.2,118.5,552.5,119.2,551,119.2z"/>
	<path class="st6" d="M575,119.2c-1.5,0-2.2-0.7-2.2-2.2V97.6c0-0.6,0.2-1.1,0.6-1.5c0.4-0.4,0.9-0.6,1.5-0.6h0.3h1.3
		c0.8,0,1.3,0.3,1.7,1l6.3,11.6l2.4,5.1h0.2c0-0.1,0-0.3-0.1-0.6c-0.4-3.5-0.5-6.1-0.5-7.7v-7.2c0-1.5,0.7-2.2,2.2-2.2
		s2.2,0.7,2.2,2.2v19.1c0,0.8-0.3,1.4-0.8,1.8c-0.5,0.4-1.2,0.6-2,0.6c-0.6,0-1.1-0.1-1.6-0.4c-0.5-0.3-0.9-0.6-1.2-1.1l-6.1-11.2
		l-2.4-5.1h-0.2c0,0.4,0.1,0.9,0.2,1.7c0.3,2.9,0.4,5.1,0.4,6.6v7.3C577.2,118.5,576.5,119.2,575,119.2z"/>
	<path class="st6" d="M598.8,119.2c-0.6,0-1.1-0.2-1.5-0.6c-0.4-0.4-0.6-0.9-0.6-1.5V97.6c0-0.6,0.2-1.1,0.6-1.5
		c0.4-0.4,0.9-0.6,1.5-0.6h10.5c1.3,0,2,0.7,2,2c0,1.3-0.7,2-2,2h-7.8v5.5h6.3c1.3,0,2,0.7,2,2s-0.7,2-2,2h-6.3v6.3h8.2
		c1.3,0,2,0.7,2,2s-0.7,2-2,2h-5.5H598.8z"/>
	<path class="st6" d="M626.1,119.6c-3.1,0-5.7-1-7.7-3.1c-2.1-2.2-3.2-5.2-3.2-9.1s1.1-6.9,3.3-9.1c2.1-2.2,4.7-3.3,7.8-3.3
		c2.1,0,4,0.6,5.7,1.9c0.8,0.7,0.9,1.6,0.1,2.5c-0.9,1.1-1.9,1.2-3,0.3c-0.8-0.5-1.7-0.7-2.7-0.7c-1.8,0-3.3,0.7-4.5,2.2
		c-1.2,1.5-1.8,3.5-1.8,6c0,2.6,0.6,4.6,1.7,6.1c1.1,1.5,2.6,2.2,4.5,2.2c1.2,0,2.3-0.3,3.3-1c1.1-0.9,2.1-0.8,3,0.3
		c0.7,0.9,0.7,1.8-0.2,2.6C630.6,118.9,628.5,119.6,626.1,119.6z"/>
	<path class="st6" d="M644.1,119.2c-1.6,0-2.4-0.8-2.4-2.4V99.4H637c-1.3,0-2-0.7-2-2c0-1.3,0.7-2,2-2h7.1h7.1c1.3,0,2,0.7,2,2
		c0,1.3-0.7,2-2,2h-4.8v17.4C646.4,118.4,645.6,119.2,644.1,119.2z"/>
</g>
</svg>
