<?xml version="1.0" encoding="utf-8"?>
<!-- Generator: Adobe Illustrator 27.0.0, SVG Export Plug-In . SVG Version: 6.00 Build 0)  -->
<svg version="1.1" id="圖層_1" xmlns="http://www.w3.org/2000/svg" xmlns:xlink="http://www.w3.org/1999/xlink" x="0px" y="0px"
	 viewBox="0 0 317.4 151.7" style="enable-background:new 0 0 317.4 151.7;" xml:space="preserve">
<style type="text/css">
	.st0{fill:#47CFB9;}
	.st1{fill:#FFFFFF;}
	.st2{fill:#FFFFF4;}
	.st3{fill:#2AA890;}
	.st4{fill:#FFFFFF;stroke:#FF86AA;stroke-width:3;stroke-miterlimit:10;}
	.st5{fill:#FF86AA;}
	.st6{fill:#4D4867;}
	.st7{fill:#FFFFFF;stroke:#BBAEF9;stroke-width:3;stroke-linecap:round;stroke-linejoin:round;stroke-miterlimit:10;}
	.st8{fill:#BBAEF9;stroke:#BBAEF9;stroke-width:3;stroke-linecap:round;stroke-linejoin:round;stroke-miterlimit:10;}
	.st9{fill:#BBAEF9;}
	.st10{fill:#F95D98;}
</style>
<g>
	<path class="st0" d="M247,125.8H70.5c-27.5,0-49.9-22.5-49.9-49.9v0c0-27.5,22.5-49.9,49.9-49.9H247c27.5,0,49.9,22.5,49.9,49.9v0
		C296.9,103.3,274.4,125.8,247,125.8z"/>
	<g>
		<path class="st1" d="M122.3,103.5c-5.6,0-10.5-1.6-14.6-4.8c-1.6-1.4-1.7-3.1-0.3-5c1.7-2.3,3.7-2.6,5.8-0.8
			c2.5,1.6,5.1,2.4,7.8,2.4c2.7,0,4.8-0.8,6.4-2.4c1.7-1.7,2.5-4,2.5-6.9c0-2.9-0.8-5.2-2.3-6.7c-1.5-1.6-3.6-2.4-6.2-2.4
			c-1.8,0-3.4,0.4-4.9,1.1c-1.7,1-3.4,1.1-4.9,0.1l-0.2-0.1c-1.4-0.9-2.1-2.2-2-3.9l1-17.6c0.1-1.3,0.5-2.4,1.4-3.1
			c0.8-0.8,1.9-1.2,3.1-1.2h9.2h9.3c2.8,0,4.2,1.4,4.2,4.2c0,2.8-1.4,4.2-4.2,4.2h-14.2l-1,10.7c2-1,4-1.4,6.1-1.4
			c4.5,0,8.2,1.3,11,3.9c3,2.9,4.6,6.9,4.6,12.1c0,5.4-1.8,9.8-5.3,13.1C131.4,102,127.3,103.5,122.3,103.5z"/>
		<path class="st1" d="M163,103.5c-8.4,0-12.5-4.8-12.5-14.3V72.3h-1.7c-2.5,0-3.7-1.3-3.7-3.8c0-2.4,1.2-3.7,3.5-3.9l2.4-0.2
			l0.7-6.3c0.3-2.6,1.7-3.9,4.4-3.9c2.9,0,4.4,1.4,4.4,4.2v6.1h5.5c2.6,0,4,1.3,4,4c0,2.6-1.3,4-4,4h-5.5v8.4v8.4
			c0,4.3,1.7,6.4,5.2,6.4c0,0,0.1,0,0.1,0c2.4-0.5,3.8,0.4,4.4,2.9c0.5,2.4-0.2,3.8-2.2,4.4C166.3,103.3,164.7,103.5,163,103.5z"/>
		<path class="st1" d="M182.6,102.6c-3.3,0-5-1.7-5-5V75.4V53.2c0-3.3,1.7-5,5-5s5,1.7,5,5v8.7l-0.4,7.2c4-3.7,8-5.6,12-5.6
			c7.9,0,11.8,5.1,11.8,15.3v18.8c0,3.3-1.7,5-5,5c-3.4,0-5-1.7-5-5V80c0-2.9-0.4-5-1.3-6.2c-0.8-1.2-2.2-1.8-4.1-1.8
			c-1.5,0-2.8,0.4-4.1,1.1c-1,0.6-2.3,1.7-3.9,3.2v21.3C187.6,100.9,186,102.6,182.6,102.6z"/>
	</g>
</g>
</svg>
