<?xml version="1.0" encoding="utf-8"?>
<!-- Generator: Adobe Illustrator 27.0.0, SVG Export Plug-In . SVG Version: 6.00 Build 0)  -->
<svg version="1.1" id="圖層_1" xmlns="http://www.w3.org/2000/svg" xmlns:xlink="http://www.w3.org/1999/xlink" x="0px" y="0px"
	 viewBox="0 0 216.9 195.9" style="enable-background:new 0 0 216.9 195.9;" xml:space="preserve">
<style type="text/css">
	.st0{fill:#47CFB9;}
	.st1{fill:#FFFFFF;}
	.st2{fill:#FFFFF4;}
	.st3{fill:#2AA890;}
	.st4{fill:#FFFFFF;stroke:#FF86AA;stroke-width:3;stroke-miterlimit:10;}
	.st5{fill:#FF86AA;}
	.st6{fill:#4D4867;}
	.st7{fill:#FFFFFF;stroke:#BBAEF9;stroke-width:3;stroke-linecap:round;stroke-linejoin:round;stroke-miterlimit:10;}
	.st8{fill:#BBAEF9;stroke:#BBAEF9;stroke-width:3;stroke-linecap:round;stroke-linejoin:round;stroke-miterlimit:10;}
	.st9{fill:#BBAEF9;}
	.st10{fill:#F95D98;}
</style>
<path class="st6" d="M106.9,175.7c-5,0-10-0.4-14.8-1.2c-3.2-0.5-5.6-3.3-5.6-6.5v-55.2H70.7c-3.6,0-6.6-3-6.6-6.6V80.7
	c0-3.6,3-6.6,6.6-6.6h15.8V61.2c0-25.3,15.3-41,40-41c10.1,0,20.5,1.7,20.9,1.8c3.2,0.5,5.5,3.3,5.5,6.5v21.7c0,3.6-3,6.6-6.6,6.6
	h-11.1c-5.6,0-7.8,2-7.8,7.2v10h17.9c1.9,0,3.8,0.8,5,2.3c1.3,1.5,1.8,3.4,1.5,5.3l-3.9,25.5c-0.5,3.2-3.3,5.6-6.5,5.6h-14V168
	c0,3.3-2.4,6-5.6,6.5C116.9,175.3,111.9,175.7,106.9,175.7z M99.7,162.1c4.8,0.4,9.6,0.4,14.4,0v-55.9c0-3.6,3-6.6,6.6-6.6h14.9
	l1.9-12.3h-16.8c-3.6,0-6.6-3-6.6-6.6V64.1c0-12.6,8-20.4,21-20.4h4.5v-9.4c-3.6-0.4-8.5-0.9-13.2-0.9c-17.3,0-26.8,9.9-26.8,27.8
	v19.5c0,3.6-3,6.6-6.6,6.6H77.3v12.3h15.8c3.6,0,6.6,3,6.6,6.6V162.1z"/>
</svg>
