<?xml version="1.0" encoding="utf-8"?>
<!-- Generator: Adobe Illustrator 27.0.0, SVG Export Plug-In . SVG Version: 6.00 Build 0)  -->
<svg version="1.1" id="圖層_1" xmlns="http://www.w3.org/2000/svg" xmlns:xlink="http://www.w3.org/1999/xlink" x="0px" y="0px"
	 viewBox="0 0 317.4 151.7" style="enable-background:new 0 0 317.4 151.7;" xml:space="preserve">
<style type="text/css">
	.st0{fill:#47CFB9;}
	.st1{fill:#FFFFFF;}
	.st2{fill:#FFFFF4;}
	.st3{fill:#2AA890;}
	.st4{fill:#FFFFFF;stroke:#FF86AA;stroke-width:3;stroke-miterlimit:10;}
	.st5{fill:#FF86AA;}
	.st6{fill:#4D4867;}
	.st7{fill:#FFFFFF;stroke:#BBAEF9;stroke-width:3;stroke-linecap:round;stroke-linejoin:round;stroke-miterlimit:10;}
	.st8{fill:#BBAEF9;stroke:#BBAEF9;stroke-width:3;stroke-linecap:round;stroke-linejoin:round;stroke-miterlimit:10;}
	.st9{fill:#BBAEF9;}
	.st10{fill:#F95D98;}
</style>
<g>
	<path class="st0" d="M247,125.8H70.5c-27.5,0-49.9-22.5-49.9-49.9v0c0-27.5,22.5-49.9,49.9-49.9H247c27.5,0,49.9,22.5,49.9,49.9v0
		C296.9,103.3,274.4,125.8,247,125.8z"/>
	<g>
		<path class="st1" d="M129,100.6c-3.3,0-5-1.6-5-4.9V60.9l-5.8,3.1c-2.1,1.2-3.9,0.7-5.2-1.4c-1.4-2.2-1-4,1.3-5.3L125,51
			c1-0.6,2-0.9,3.2-0.9h2.2c1,0,1.9,0.3,2.5,1c0.6,0.6,1,1.5,1,2.5v21.8v20.3C133.9,99,132.3,100.6,129,100.6z"/>
		<path class="st1" d="M162.6,101.6c-3.9,0-7.7-1.1-11.5-3.3c-2-1.4-2.3-3.1-0.8-5.1c0.8-1,1.7-1.6,2.8-1.8c1.1-0.1,2.1,0.2,3.2,0.9
			c2.2,1.2,4.4,1.8,6.6,1.8c3.7,0,5.5-1.3,5.5-4c0-1.2-0.7-2.2-2.2-3.1c-0.9-0.6-2.5-1.3-4.9-2.2c-0.4-0.1-0.7-0.2-0.9-0.3
			c-3.1-1.2-5.4-2.5-7-3.9c-2.3-2-3.4-4.4-3.4-7.2c0-3.5,1.3-6.3,3.9-8.4c2.6-2.2,6-3.3,10.3-3.3c3.5,0,6.9,0.9,10.2,2.8
			c2,1.3,2.2,2.9,0.6,5c-1.5,2-3.3,2.4-5.6,1c-1.8-0.8-3.4-1.2-4.9-1.2c-1.6,0-2.9,0.3-3.8,1c-0.8,0.6-1.2,1.5-1.2,2.7
			c0,1.1,0.6,2.1,1.9,2.9c0.8,0.5,2.3,1.2,4.6,2c0.6,0.2,1,0.4,1.3,0.5c3.3,1.3,5.7,2.5,7.2,3.8c2.3,2,3.4,4.5,3.4,7.7
			c0,3.5-1.3,6.3-3.9,8.5C171.2,100.4,167.4,101.6,162.6,101.6z"/>
		<path class="st1" d="M197.8,101.6c-8.4,0-12.5-4.8-12.5-14.3V70.4h-1.7c-2.5,0-3.7-1.3-3.7-3.8c0-2.4,1.2-3.7,3.5-3.9l2.4-0.2
			l0.7-6.3c0.3-2.6,1.7-3.9,4.4-3.9c2.9,0,4.4,1.4,4.4,4.2v6.1h5.5c2.6,0,4,1.3,4,4c0,2.6-1.3,4-4,4h-5.5v8.4v8.4
			c0,4.3,1.7,6.4,5.2,6.4c0,0,0.1,0,0.1,0c2.4-0.5,3.8,0.4,4.4,2.9c0.5,2.4-0.2,3.8-2.2,4.4C201.1,101.4,199.4,101.6,197.8,101.6z"
			/>
	</g>
</g>
</svg>
