<?xml version="1.0" encoding="utf-8"?>
<!-- Generator: Adobe Illustrator 27.0.0, SVG Export Plug-In . SVG Version: 6.00 Build 0)  -->
<svg version="1.1" id="圖層_1" xmlns="http://www.w3.org/2000/svg" xmlns:xlink="http://www.w3.org/1999/xlink" x="0px" y="0px"
	 viewBox="0 0 720.1 179.7" style="enable-background:new 0 0 720.1 179.7;" xml:space="preserve">
<style type="text/css">
	.st0{fill:#FF86AA;}
	.st1{fill:#4D4867;}
</style>
<g>
	<g>
		<path class="st1" d="M50.6,110.9c-3.4,0-5-1.7-5-5V65.6c0-3.4,1.7-5,5-5c3.4,0,5,1.7,5,5v14.8h19.1V65.5c0-3.3,1.7-5,5-5
			c3.3,0,5,1.7,5,5V106c0,3.3-1.7,5-5,5c-3.4,0-5-1.7-5-5V89.1h-9.5h-9.5v16.8C55.6,109.2,53.9,110.9,50.6,110.9z"/>
		<path class="st1" d="M117.1,111.9c-6.8,0-12.2-2.4-16.3-7.1c-4.2-4.8-6.3-11.2-6.3-19.3c0-8.1,2.1-14.5,6.3-19.1
			c4.1-4.5,9.5-6.8,16.3-6.8c6.8,0,12.2,2.3,16.3,6.8c4.2,4.7,6.3,11.1,6.3,19.2c0,8.1-2.1,14.5-6.3,19.2
			C129.3,109.5,123.9,111.9,117.1,111.9z M117.1,103.2c3.7,0,6.7-1.6,8.9-4.8c2.2-3.2,3.3-7.5,3.3-12.9c0-5.4-1.1-9.6-3.3-12.7
			c-2.2-3.1-5.2-4.6-9-4.6c-3.8,0-6.8,1.5-9,4.6c-2.2,3.1-3.3,7.3-3.3,12.7s1.1,9.7,3.3,12.9C110.4,101.6,113.3,103.2,117.1,103.2z"
			/>
		<path class="st1" d="M162.5,110.9c-3.4,0-5-1.7-5-5v-37h-10c-2.8,0-4.2-1.4-4.2-4.2c0-2.8,1.4-4.2,4.2-4.2h15.1h15.1
			c2.8,0,4.2,1.4,4.2,4.2c0,2.8-1.4,4.2-4.2,4.2h-10.2v37C167.5,109.2,165.9,110.9,162.5,110.9z"/>
	</g>
</g>
<g>
	<path class="st0" d="M45.5,129.9c196-1.5,416-1.5,612,0c0.8,0,1.4,0.6,1.4,1.4c0,0.8-0.6,1.4-1.4,1.4
		C489,134,290.7,133.9,122,133.2c0,0-76.5-0.5-76.5-0.5c-0.8,0-1.4-0.6-1.4-1.4C44.1,130.5,44.8,129.9,45.5,129.9L45.5,129.9z"/>
</g>
<g>
	<g>
		<path class="st0" d="M195.4,105.5c-0.7-0.4-1-0.9-1.1-1.4c-0.1-0.5,0.2-1,0.7-1.6c1.3-1.5,2.4-3.1,3.5-4.9
			c0.6-1.1,1.5-1.4,2.6-0.8c1.2,0.6,1.5,1.4,0.9,2.5c-0.4,0.7-1.1,1.8-2,3.1c-0.5,0.7-1.2,1.6-2.1,2.8c-0.4,0.4-0.8,0.7-1.2,0.7
			C196.4,106,195.9,105.9,195.4,105.5z M206.8,110.9c-1.3,0-2.5,0-3.5-0.1c-1.1-0.1-1.7-0.7-1.8-1.8c-0.1-0.7,0.1-1.3,0.5-1.6
			c0.4-0.3,1-0.4,1.8-0.3c0.3,0,0.6,0,1,0s0.7-0.1,0.8-0.3s0.3-0.5,0.3-0.9c0-0.8,0-5,0-12.6v0h-8c-0.3,0-0.5,0-0.8,0
			c-1.5,0.1-2.2-0.5-2.2-2c0-1.4,0.7-2,2.2-1.9c0.2,0,0.5,0,0.8,0h4h4V87c0-0.1,0-0.1,0-0.2c-0.1-0.9,0-1.5,0.3-1.9
			c0.3-0.4,0.9-0.6,1.7-0.6c0.8,0,1.4,0.2,1.8,0.7c0.3,0.4,0.4,1.1,0.3,2c0,0,0,0.1,0,0.1v2.5h7.3c0.4,0,0.6,0,0.8,0
			c1.5-0.1,2.3,0.5,2.3,1.9c0,1.3-0.7,2-2.2,1.9c-0.3,0-0.6,0-0.9,0H210v14.6C210,109.9,209,110.9,206.8,110.9z M217.2,104.5
			c-0.5-0.8-1-1.7-1.6-2.7c-0.5-0.9-1-1.7-1.5-2.4c-0.4-0.6-0.5-1-0.4-1.5c0.1-0.4,0.5-0.8,1.2-1.1c0.5-0.3,1-0.4,1.3-0.4
			c0.4,0,0.7,0.3,1.1,0.7c1.2,1.6,2.4,3.4,3.6,5.4c0.3,0.6,0.4,1.1,0.3,1.5c-0.1,0.4-0.5,0.8-1.2,1.1
			C218.7,105.9,217.8,105.7,217.2,104.5z"/>
		<path class="st0" d="M228.5,100.4c-0.4-0.1-0.7-0.5-0.9-1.2c-0.1-0.4-0.4-1.1-0.7-2c-0.2-0.6-0.4-1.2-0.7-1.7
			c-0.3-0.6-0.4-1.2-0.2-1.6c0.2-0.4,0.7-0.7,1.4-0.9c0.6-0.2,1.1-0.3,1.4-0.2c0.4,0.1,0.7,0.4,0.9,1c0.4,1,1,2.3,1.7,4.1
			c0.2,0.6,0.2,1.1,0,1.5c-0.2,0.3-0.6,0.6-1.2,0.9C229.4,100.5,228.9,100.6,228.5,100.4z M231.2,111.1c-0.7-0.7-1-1.4-1-1.9
			c0.1-0.5,0.6-0.9,1.6-1.3c3.3-1.4,5.8-3.3,7.7-5.6c1.6-2.1,2.8-4.7,3.6-8c0.3-1.8,1.2-2.5,2.8-2c1.4,0.4,1.8,1.4,1.4,2.9v0l0,0.1
			c-1,3.7-2.4,6.8-4.3,9.2c-1.4,1.8-3.1,3.4-5,4.8c-1.4,1-2.7,1.8-4,2.4C232.9,112.1,232,111.9,231.2,111.1z M235.5,98.4
			c-0.4-0.2-0.7-0.6-0.9-1.3c-0.1-0.3-0.3-0.9-0.5-1.6c-0.1-0.2-0.2-0.4-0.3-0.8c-0.1-0.4-0.3-0.8-0.4-1c-0.3-0.6-0.3-1.1-0.1-1.5
			c0.2-0.4,0.6-0.7,1.3-0.9c0.6-0.2,1.1-0.3,1.4-0.2c0.4,0.1,0.7,0.4,0.9,1c0,0.1,0.1,0.3,0.2,0.5c0.6,1.6,1,2.7,1.3,3.4
			c0.2,0.6,0.2,1.1,0,1.4c-0.2,0.3-0.6,0.6-1.2,0.8C236.4,98.5,235.9,98.5,235.5,98.4z"/>
		<path class="st0" d="M258.2,110.8c-0.7,0-1.2-0.2-1.6-0.6c-0.4-0.4-0.5-1-0.5-1.6c0.1-0.7,0.1-1.4,0.1-2.1v-18c0-0.6,0-1.3-0.1-2
			c-0.1-0.5,0-1,0.3-1.3c0.3-0.3,0.7-0.5,1.2-0.5h0.6h1.3c0.3,0,0.6,0.1,0.8,0.3s0.3,0.4,0.2,0.7c-0.1,1-0.2,1.9-0.2,2.8V93
			c4.1,1.2,7.9,2.6,11.5,4.1c0.6,0.3,1,0.7,1.1,1.1c0.1,0.4,0,1-0.4,1.7c-0.6,1.5-1.6,1.9-3,1.2c-2.7-1.2-5.7-2.5-9.2-3.7v8.9
			c0,0.6,0,1.3,0.1,2.1c0.1,0.7-0.1,1.2-0.4,1.6c-0.3,0.4-0.8,0.6-1.5,0.6H258.2z"/>
	</g>
</g>
</svg>
