<?xml version="1.0" encoding="utf-8"?>
<!-- Generator: Adobe Illustrator 27.0.0, SVG Export Plug-In . SVG Version: 6.00 Build 0)  -->
<svg version="1.1" id="圖層_1" xmlns="http://www.w3.org/2000/svg" xmlns:xlink="http://www.w3.org/1999/xlink" x="0px" y="0px"
	 viewBox="0 0 137 123.1" style="enable-background:new 0 0 137 123.1;" xml:space="preserve">
<style type="text/css">
	.st0{fill:#47CFB9;}
	.st1{fill:#FFFFFF;}
	.st2{fill:#FFFFF4;}
	.st3{fill:#2AA890;}
	.st4{fill:#FFFFFF;stroke:#FF86AA;stroke-width:3;stroke-miterlimit:10;}
	.st5{fill:#FF86AA;}
	.st6{fill:#4D4867;}
	.st7{fill:#FFFFFF;stroke:#BBAEF9;stroke-width:3;stroke-linecap:round;stroke-linejoin:round;stroke-miterlimit:10;}
	.st8{fill:#BBAEF9;stroke:#BBAEF9;stroke-width:3;stroke-linecap:round;stroke-linejoin:round;stroke-miterlimit:10;}
	.st9{fill:#BBAEF9;}
	.st10{fill:#F95D98;}
</style>
<g>
	<rect x="18.5" y="11.5" class="st5" width="100" height="100"/>
	<g>
		<path class="st1" d="M47.4,76.1c0-2.6,1.3-4.3,3.8-5.3l13.6-4.6l12.6-4.5v-0.4l-12.6-4.5l-13.7-4.7c-2.5-0.8-3.7-2.5-3.7-5.1
			c0-4.1,1.9-5.4,5.7-3.9l32.6,12.6c1.2,0.4,2.2,1.2,2.9,2.2c0.7,1,1.1,2.2,1.1,3.5v0.3c0,1.2-0.3,2.3-1,3.3c-0.7,1-1.6,1.7-2.8,2.2
			L68.5,74l-15.3,5.9C49.3,81.4,47.4,80.1,47.4,76.1z"/>
	</g>
</g>
</svg>
