<?xml version="1.0" encoding="utf-8"?>
<!-- Generator: Adobe Illustrator 27.0.0, SVG Export Plug-In . SVG Version: 6.00 Build 0)  -->
<svg version="1.1" id="圖層_1" xmlns="http://www.w3.org/2000/svg" xmlns:xlink="http://www.w3.org/1999/xlink" x="0px" y="0px"
	 viewBox="0 0 475 152.1" style="enable-background:new 0 0 475 152.1;" xml:space="preserve">
<style type="text/css">
	.st0{fill:#47CFB9;}
	.st1{fill:#FFFFFF;}
	.st2{fill:#FFFFF4;}
	.st3{fill:#2AA890;}
	.st4{fill:#FFFFFF;stroke:#FF86AA;stroke-width:3;stroke-miterlimit:10;}
	.st5{fill:#FF86AA;}
	.st6{fill:#4D4867;}
	.st7{fill:#FFFFFF;stroke:#BBAEF9;stroke-width:3;stroke-linecap:round;stroke-linejoin:round;stroke-miterlimit:10;}
	.st8{fill:#BBAEF9;stroke:#BBAEF9;stroke-width:3;stroke-linecap:round;stroke-linejoin:round;stroke-miterlimit:10;}
	.st9{fill:#BBAEF9;}
	.st10{fill:#F95D98;}
</style>
<g>
	<g>
		<g>
			<path class="st6" d="M175.2,70.3c-2.2,0-3.3-1.1-3.3-3.3V38.3c0-0.9,0.3-1.7,0.9-2.2s1.3-0.9,2.2-0.9h0.5h1.9
				c1.1,0,2,0.5,2.5,1.5l9.4,17.2l3.5,7.6h0.2c0-0.2-0.1-0.5-0.1-0.9c-0.5-5.2-0.8-9-0.8-11.4V38.6c0-2.2,1.1-3.3,3.3-3.3
				c2.2,0,3.3,1.1,3.3,3.3v28.2c0,1.1-0.4,2-1.2,2.7c-0.8,0.6-1.8,0.9-3,0.9c-0.9,0-1.6-0.2-2.3-0.5c-0.8-0.4-1.4-0.9-1.8-1.6
				l-9-16.6l-3.6-7.5h-0.2c0,0.5,0.1,1.4,0.2,2.5c0.4,4.4,0.6,7.6,0.6,9.7V67C178.5,69.2,177.4,70.3,175.2,70.3z"/>
			<path class="st6" d="M210.5,70.3c-0.9,0-1.7-0.3-2.2-0.9s-0.9-1.3-0.9-2.2V38.3c0-0.9,0.3-1.7,0.9-2.2s1.3-0.9,2.2-0.9H226
				c1.9,0,2.9,1,2.9,2.9c0,2-1,2.9-2.9,2.9h-11.6v8.1h9.4c2,0,2.9,1,2.9,2.9c0,2-1,2.9-2.9,2.9h-9.4v9.4h12.1c2,0,2.9,1,2.9,2.9
				s-1,2.9-2.9,2.9h-8.1H210.5z"/>
			<path class="st6" d="M242.5,70.3c-0.8,0-1.5-0.2-2.1-0.7c-0.6-0.5-1-1.1-1.1-1.9l-5.6-29c-0.2-1-0.1-1.9,0.4-2.5
				c0.5-0.6,1.3-0.9,2.3-0.9h0.9c0.9,0,1.6,0.3,2.2,0.8c0.6,0.5,1,1.2,1.1,2l2.3,14.4c0.2,1.1,0.4,2.8,0.8,5.1
				c0.4,2.7,0.7,4.7,0.9,6.1h0.2c0.7-3.6,1.4-7.3,2.2-11.2l3.5-14.6c0.2-0.8,0.6-1.4,1.3-1.8c0.6-0.4,1.4-0.6,2.3-0.6
				c0.9,0,1.6,0.2,2.3,0.6c0.7,0.4,1.1,1.1,1.3,1.8l3.5,14.6c0.3,1.5,0.8,3.9,1.4,7.1c0.3,1.8,0.6,3.2,0.8,4.1h0.2
				c0.6-4.2,1.1-7.9,1.6-11.2l2.3-14.2c0.3-2,1.5-2.9,3.5-2.9c2.4,0,3.4,1.2,3,3.6l-5.3,28.8c-0.2,0.8-0.5,1.5-1.1,2
				c-0.6,0.5-1.3,0.7-2.1,0.7h-1.6h-2.3c-0.6,0-1.1-0.2-1.6-0.5c-0.5-0.4-0.8-0.8-0.9-1.4L255.5,53c-0.6-3.1-1.1-5.8-1.5-8.1h-0.2
				c0,0.2-0.1,0.4-0.1,0.7c-0.6,3.3-1,5.7-1.4,7.4L249,67.7c-0.2,0.8-0.5,1.5-1.1,1.9c-0.6,0.5-1.3,0.7-2.1,0.7H242.5z"/>
			<path class="st6" d="M290.2,71c-3.8,0-7.2-1.1-10.4-3.2c-1.6-1.3-1.7-2.7-0.4-4.3c1.4-1.7,3-1.8,4.8-0.5c2.1,1.2,4.2,1.8,6.2,1.8
				c1.8,0,3.2-0.4,4.1-1.1c1-0.7,1.4-1.7,1.4-3c0-1.1-0.5-2.1-1.4-2.8c-0.6-0.4-1.8-1-3.6-1.8c-0.2-0.1-0.3-0.1-0.3-0.1l-4.7-2
				c-4.7-2-7.1-5.1-7.1-9.4c0-2.9,1.1-5.3,3.4-7.2c2.3-1.9,5.2-2.9,8.7-2.9c3.3,0,6.3,0.9,9,2.8c1.3,1.1,1.4,2.4,0.3,3.8
				c-1.3,1.5-2.7,1.8-4.3,0.7c-1.5-0.8-3.2-1.2-5-1.2c-1.5,0-2.8,0.3-3.7,1c-0.9,0.7-1.4,1.6-1.4,2.7c0,1.1,0.5,2,1.5,2.7
				c0.6,0.5,1.8,1.1,3.6,1.8c0.2,0.1,0.3,0.1,0.3,0.1l4.6,1.9c2.3,0.9,4,2.1,5.1,3.5c1.3,1.6,1.9,3.6,1.9,6c0,3-1.1,5.4-3.4,7.4
				C297.3,69.9,294.1,71,290.2,71z"/>
		</g>
	</g>
	<path class="st5" d="M13,81.2c143.8-1.5,305.2-1.5,449,0c0.8,0,1.4,0.6,1.4,1.4c0,0.8-0.6,1.4-1.4,1.4
		c-123.6,1.4-269.1,1.3-392.9,0.5c0,0-56.1-0.5-56.1-0.5c-0.8,0-1.4-0.6-1.4-1.4C11.6,81.8,12.2,81.2,13,81.2L13,81.2z"/>
	<g>
		<g>
			<path class="st5" d="M204.9,115.4c-0.3,0-0.5,0-0.8,0h-9h-9c-0.6,0-1.1,0-1.4,0c-1.7,0.1-2.6-0.6-2.6-2.2c0-1.6,0.8-2.3,2.5-2.2
				c0.2,0,0.4,0,0.7,0c0.3,0,0.5,0,0.7,0h18c0.4,0,0.7,0,0.9,0c0.9-0.1,1.5,0.1,2,0.4c0.4,0.3,0.6,0.9,0.6,1.8
				C207.5,114.8,206.6,115.5,204.9,115.4z M202.6,99.9c-0.3,0-0.7,0-1.2,0h-13c-0.6,0-1,0-1.3,0c-1.6,0.1-2.3-0.7-2.3-2.1
				c0-1.6,0.8-2.3,2.4-2.2c0.3,0,0.7,0,1.2,0h6.5h6.5c0.5,0,0.9,0,1.2,0c1.6-0.1,2.3,0.7,2.3,2.2C204.9,99.2,204.2,99.9,202.6,99.9z
				"/>
			<path class="st5" d="M233,117.1c-0.3,0-0.6,0-0.9,0h-8.3h-8.3c-0.3,0-0.7,0-1,0c-1.4,0.1-2.1-0.6-2.1-1.9c0-0.7,0.2-1.2,0.5-1.5
				c0.3-0.3,0.9-0.4,1.6-0.4c0.3,0,0.6,0,1,0h10.2c0.7-4.3,1.1-7.3,1.2-8.9h-8.5c-0.4,0-0.8,0-1,0c-1.4,0.1-2.1-0.6-2.1-1.9
				c0-1.4,0.8-2.1,2.3-2c0.2,0,0.5,0,0.8,0h8c0.4,0,0.9,0,1.4-0.1c0.6-0.2,1.3-0.1,1.9,0.2l0.9,0.5c0.3,0.1,0.6,0.4,0.7,0.7
				s0.2,0.7,0.1,1.1c0,0,0,0,0,0.1c-0.2,1.8-0.7,5.2-1.5,10.2h2c0.3,0,0.6,0,0.9,0c1.5-0.1,2.2,0.5,2.2,2
				C235.1,116.6,234.4,117.2,233,117.1z"/>
			<path class="st5" d="M240.1,106.5c-0.4-0.4-0.6-0.9-0.6-1.6v-0.6c0-0.6,0.2-1.2,0.6-1.5c0.4-0.4,0.8-0.6,1.4-0.5
				c1.3,0,2.3,0.1,3.1,0.1h16.9c0.6,0,1.3,0,2.2-0.1c0.4,0,0.8,0.1,1,0.4c0.3,0.3,0.4,0.7,0.4,1.2v1.1c0,0.6-0.2,1.1-0.5,1.5
				c-0.4,0.4-0.8,0.5-1.4,0.5c-0.8,0-1.3-0.1-1.7-0.1H253h-8.4c-0.8,0-1.8,0-3.1,0.1C240.9,107.1,240.4,106.9,240.1,106.5z"/>
			<path class="st5" d="M268.9,116.7c-1.3-1.4-1-2.5,0.8-3.3c1.9-1,3.8-2.2,5.6-3.7c1.7-1.3,3.1-2.7,4.4-4.1c1-1.2,2-2.5,2.9-3.9
				c0.9-1.4,1.5-2.7,1.8-3.8h-10.6c-0.4,0-0.9,0-1.6,0.1c-0.7,0.1-1.3-0.1-1.6-0.4s-0.5-0.9-0.5-1.6c0-1.5,0.8-2.2,2.5-2.1
				c0.3,0,0.7,0,1.2,0h5.5h5.5c0.8,0,1.5-0.1,2.2-0.2c0.3-0.1,0.7-0.1,1.1,0c0.4,0.1,0.8,0.3,1.1,0.5l0.3,0.2c0.4,0.3,0.6,0.6,0.7,1
				c0.1,0.4,0,0.8-0.2,1.2c0,0.1-0.1,0.3-0.3,0.5c0,0.1,0,0.1-0.1,0.2c-1.4,3.2-3,6.1-4.9,8.7c2.6,2.3,5.1,4.8,7.6,7.6
				c0.5,0.6,0.7,1.1,0.5,1.5c-0.1,0.4-0.4,0.8-1.1,1.4c-0.6,0.6-1.2,0.8-1.7,0.8c-0.5,0-1-0.4-1.5-1c-1.8-2.3-4-4.6-6.5-7.1
				c-3.2,3.3-6.6,6-10.2,8C270.7,117.8,269.8,117.6,268.9,116.7z"/>
		</g>
	</g>
</g>
</svg>
