<?xml version="1.0" encoding="utf-8"?>
<!-- Generator: Adobe Illustrator 27.0.0, SVG Export Plug-In . SVG Version: 6.00 Build 0)  -->
<svg version="1.1" id="圖層_1" xmlns="http://www.w3.org/2000/svg" xmlns:xlink="http://www.w3.org/1999/xlink" x="0px" y="0px"
	 viewBox="0 0 317.4 151.7" style="enable-background:new 0 0 317.4 151.7;" xml:space="preserve">
<style type="text/css">
	.st0{fill:#47CFB9;}
	.st1{fill:#FFFFFF;}
	.st2{fill:#FFFFF4;}
	.st3{fill:#2AA890;}
	.st4{fill:#FFFFFF;stroke:#FF86AA;stroke-width:3;stroke-miterlimit:10;}
	.st5{fill:#FF86AA;}
	.st6{fill:#4D4867;}
	.st7{fill:#FFFFFF;stroke:#BBAEF9;stroke-width:3;stroke-linecap:round;stroke-linejoin:round;stroke-miterlimit:10;}
	.st8{fill:#BBAEF9;stroke:#BBAEF9;stroke-width:3;stroke-linecap:round;stroke-linejoin:round;stroke-miterlimit:10;}
	.st9{fill:#BBAEF9;}
	.st10{fill:#F95D98;}
</style>
<g>
	<path class="st0" d="M247,125.8H70.5c-27.5,0-49.9-22.5-49.9-49.9v0c0-27.5,22.5-49.9,49.9-49.9H247c27.5,0,49.9,22.5,49.9,49.9v0
		C296.9,103.3,274.4,125.8,247,125.8z"/>
	<g>
		<path class="st1" d="M131.9,102.6c-3.1,0-4.7-1.5-4.7-4.6v-8.4h-10.8h-6.3c-1.3,0-2.4-0.4-3.2-1.2c-0.8-0.8-1.2-1.9-1.2-3.2v-0.6
			c0-1.2,0.3-2.3,1-3.3l16.3-26.5c1-1.7,2.5-2.5,4.5-2.5h4.6c1.3,0,2.4,0.4,3.2,1.2c0.8,0.8,1.2,1.9,1.2,3.2v25.3h2.2
			c2.5,0,3.8,1.3,3.8,3.8c0,2.5-1.3,3.8-3.8,3.8h-2.2v8.4C136.5,101,135,102.6,131.9,102.6z M115.4,81.9h5.9h5.9V71.6
			c0-1.5,0.1-4.3,0.3-8.3c0.1-1,0.1-1.7,0.1-2.1h-0.3c-1.3,2.9-2.7,5.6-4,8.2L115.4,81.9z"/>
		<path class="st1" d="M163.8,103.5c-8.4,0-12.5-4.8-12.5-14.3V72.3h-1.7c-2.5,0-3.7-1.3-3.7-3.8c0-2.4,1.2-3.7,3.5-3.9l2.4-0.2
			l0.7-6.3c0.3-2.6,1.7-3.9,4.4-3.9c2.9,0,4.4,1.4,4.4,4.2v6.1h5.5c2.6,0,4,1.3,4,4c0,2.6-1.3,4-4,4h-5.5v8.4v8.4
			c0,4.3,1.7,6.4,5.2,6.4c0,0,0.1,0,0.1,0c2.4-0.5,3.8,0.4,4.4,2.9c0.5,2.4-0.2,3.8-2.2,4.4C167.1,103.3,165.4,103.5,163.8,103.5z"
			/>
		<path class="st1" d="M183.4,102.6c-3.3,0-5-1.7-5-5V75.4V53.2c0-3.3,1.7-5,5-5c3.3,0,5,1.7,5,5v8.7l-0.4,7.2c4-3.7,8-5.6,12-5.6
			c7.9,0,11.8,5.1,11.8,15.3v18.8c0,3.3-1.7,5-5,5c-3.4,0-5-1.7-5-5V80c0-2.9-0.4-5-1.3-6.2c-0.8-1.2-2.2-1.8-4.1-1.8
			c-1.5,0-2.8,0.4-4.1,1.1c-1,0.6-2.3,1.7-3.9,3.2v21.3C188.3,100.9,186.7,102.6,183.4,102.6z"/>
	</g>
</g>
</svg>
