<?xml version="1.0" encoding="utf-8"?>
<!-- Generator: Adobe Illustrator 27.0.0, SVG Export Plug-In . SVG Version: 6.00 Build 0)  -->
<svg version="1.1" id="圖層_1" xmlns="http://www.w3.org/2000/svg" xmlns:xlink="http://www.w3.org/1999/xlink" x="0px" y="0px"
	 viewBox="0 0 367 253.9" style="enable-background:new 0 0 367 253.9;" xml:space="preserve">
<style type="text/css">
	.st0{fill:#47CFB9;}
	.st1{fill:#FFFFFF;}
	.st2{fill:#FFFFF4;}
	.st3{fill:#2AA890;}
	.st4{fill:#FFFFFF;stroke:#FF86AA;stroke-width:3;stroke-miterlimit:10;}
	.st5{fill:#FF86AA;}
	.st6{fill:#4D4867;}
	.st7{fill:#FFFFFF;stroke:#BBAEF9;stroke-width:3;stroke-linecap:round;stroke-linejoin:round;stroke-miterlimit:10;}
	.st8{fill:#BBAEF9;stroke:#BBAEF9;stroke-width:3;stroke-linecap:round;stroke-linejoin:round;stroke-miterlimit:10;}
	.st9{fill:#BBAEF9;}
	.st10{fill:#F95D98;}
</style>
<g>
	<path class="st1" d="M77.1,127c0-58.7,47.7-106.4,106.4-106.4S289.9,68.3,289.9,127s-47.7,106.4-106.4,106.4S77.1,185.6,77.1,127z
		 M103.5,127c0,44.1,35.9,80,80,80s80-35.9,80-80s-35.9-80-80-80S103.5,82.8,103.5,127z"/>
	<path class="st1" d="M196.9,179.6c2.5,0,5.1-1,7-2.9c3.9-3.9,3.9-10.1,0-14l-33.4-33.4l33.2-33.2c3.9-3.9,3.9-10.1,0-14
		c-3.9-3.9-10.1-3.9-14,0l-40.2,40.2c-3.9,3.9-3.9,10.1,0,14l40.4,40.4C191.8,178.7,194.4,179.6,196.9,179.6z"/>
</g>
</svg>
