<?xml version="1.0" encoding="utf-8"?>
<!-- Generator: Adobe Illustrator 27.0.0, SVG Export Plug-In . SVG Version: 6.00 Build 0)  -->
<svg version="1.1" id="圖層_1" xmlns="http://www.w3.org/2000/svg" xmlns:xlink="http://www.w3.org/1999/xlink" x="0px" y="0px"
	 viewBox="0 0 166.5 142.5" style="enable-background:new 0 0 166.5 142.5;" xml:space="preserve">
<style type="text/css">
	.st0{fill:#47CFB9;}
	.st1{fill:#FFFFFF;}
	.st2{fill:#FFFFF4;}
	.st3{fill:#2AA890;}
	.st4{fill:#FFFFFF;stroke:#FF86AA;stroke-width:3;stroke-miterlimit:10;}
	.st5{fill:#FF86AA;}
	.st6{fill:#4D4867;}
	.st7{fill:#FFFFFF;stroke:#BBAEF9;stroke-width:3;stroke-linecap:round;stroke-linejoin:round;stroke-miterlimit:10;}
	.st8{fill:#BBAEF9;stroke:#BBAEF9;stroke-width:3;stroke-linecap:round;stroke-linejoin:round;stroke-miterlimit:10;}
	.st9{fill:#BBAEF9;}
	.st10{fill:#F95D98;}
</style>
<g>
	<path class="st10" d="M80.4,108.1L58.8,95.6c-2.2-1.3-2.9-4-1.7-6.2l37.7-65.3c1.3-2.2,4-2.9,6.2-1.7l21.6,12.5
		c2.2,1.3,2.9,4,1.7,6.2l-37.7,65.3C85.3,108.6,82.6,109.3,80.4,108.1z"/>
	<g>
		<polygon class="st1" points="56.4,124.7 53.6,98.4 80.6,113.9 		"/>
		<path class="st10" d="M55.4,126.4c-0.5-0.3-0.9-0.8-0.9-1.4l-2.8-26.4c-0.1-0.7,0.2-1.4,0.8-1.7c0.6-0.4,1.3-0.4,1.9-0.1l27,15.6
			c0.6,0.3,1,1,0.9,1.7c0,0.7-0.5,1.3-1.1,1.6l-24.2,10.8C56.6,126.7,56,126.6,55.4,126.4C55.4,126.4,55.4,126.4,55.4,126.4z
			 M55.8,101.8l2.1,20.2l18.6-8.3L55.8,101.8z"/>
	</g>
	<path class="st10" d="M127.9,35.4L98.2,18.3c0,0,4-4.4,17.4,3.3C130.5,30.2,127.9,35.4,127.9,35.4z"/>
	<polygon class="st10" points="57.1,123.5 66.8,121.5 54,114 	"/>
	<path class="st1" d="M66.9,94c-0.3-0.2-0.4-0.6-0.3-0.9l37-64.1c0.2-0.3,0.6-0.4,0.9-0.3c0.3,0.2,0.4,0.6,0.3,0.9l-37,64.1
		C67.6,94.1,67.2,94.2,66.9,94z"/>
	<path class="st1" d="M78,100.5c-0.3-0.2-0.4-0.6-0.3-0.9l37-64.1c0.2-0.3,0.6-0.4,0.9-0.3c0.3,0.2,0.4,0.6,0.3,0.9l-37,64.1
		C78.8,100.6,78.4,100.7,78,100.5z"/>
</g>
</svg>
