<?xml version="1.0" encoding="utf-8"?>
<!-- Generator: Adobe Illustrator 27.0.0, SVG Export Plug-In . SVG Version: 6.00 Build 0)  -->
<svg version="1.1" id="圖層_1" xmlns="http://www.w3.org/2000/svg" xmlns:xlink="http://www.w3.org/1999/xlink" x="0px" y="0px"
	 viewBox="0 0 317.4 151.7" style="enable-background:new 0 0 317.4 151.7;" xml:space="preserve">
<style type="text/css">
	.st0{fill:#47CFB9;}
	.st1{fill:#FFFFFF;}
	.st2{fill:#FFFFF4;}
	.st3{fill:#2AA890;}
	.st4{fill:#FFFFFF;stroke:#FF86AA;stroke-width:3;stroke-miterlimit:10;}
	.st5{fill:#FF86AA;}
	.st6{fill:#4D4867;}
	.st7{fill:#FFFFFF;stroke:#BBAEF9;stroke-width:3;stroke-linecap:round;stroke-linejoin:round;stroke-miterlimit:10;}
	.st8{fill:#BBAEF9;stroke:#BBAEF9;stroke-width:3;stroke-linecap:round;stroke-linejoin:round;stroke-miterlimit:10;}
	.st9{fill:#BBAEF9;}
	.st10{fill:#F95D98;}
</style>
<g>
	<path class="st0" d="M247,125.8H70.5c-27.5,0-49.9-22.5-49.9-49.9v0c0-27.5,22.5-49.9,49.9-49.9H247c27.5,0,49.9,22.5,49.9,49.9v0
		C296.9,103.3,274.4,125.8,247,125.8z"/>
	<g>
		<path class="st1" d="M109.5,102.6c-0.9,0-1.6-0.3-2.2-0.9c-0.6-0.6-0.9-1.3-0.9-2.2v-0.2c0-1.7,0.9-3.4,2.7-5
			c6.4-5.8,11-10.8,14-14.9c3.4-4.6,5-8.6,5-12.1c0-2.5-0.7-4.5-2-6c-1.3-1.5-3.2-2.2-5.6-2.2c-2,0-4.1,0.8-6.2,2.3
			c-2,1.9-4,1.9-5.9,0.1c-1.8-1.8-1.7-3.6,0.3-5.5c3.8-3.2,8.1-4.8,13.1-4.8c4.8,0,8.6,1.4,11.5,4.3c2.9,2.8,4.4,6.6,4.4,11.3
			c0,7.7-5.6,17-16.8,27.9c3.4-0.4,6.1-0.5,8.2-0.5h6.7c2.8,0,4.2,1.4,4.2,4.2s-1.4,4.2-4.2,4.2h-12.7H109.5z"/>
		<path class="st1" d="M154,102.6c-3.3,0-5-1.7-5-5V83.5v-15c0-2.7,1.4-4.1,4.3-4.1c2.6,0,4,1.2,4.4,3.7l0.2,1.4h0.3
			c4.1-4,8.2-6,12.4-6c7.9,0,11.8,5.1,11.8,15.3v18.8c0,3.3-1.7,5-5,5c-3.4,0-5-1.7-5-5V80c0-2.9-0.4-5-1.3-6.2
			c-0.8-1.2-2.2-1.8-4.1-1.8c-1.5,0-2.8,0.4-4.1,1.1c-1,0.6-2.3,1.7-3.9,3.2v21.3C158.9,100.9,157.3,102.6,154,102.6z"/>
		<path class="st1" d="M206.1,103.5c-4.8,0-8.6-1.8-11.4-5.3c-2.8-3.6-4.2-8.4-4.2-14.6c0-6,1.6-10.9,4.9-14.7
			c3.1-3.6,6.8-5.4,11.1-5.4c2,0,3.8,0.4,5.5,1.2c1.3,0.6,2.7,1.6,4.2,3l-0.4-6v-8.4c0-3.3,1.7-5,5-5c3.3,0,5,1.7,5,5v22.2v23.2
			c0,1.3-0.4,2.3-1.2,3c-0.8,0.7-1.8,1-3.2,1c-2.5,0-3.9-1.1-4.4-3.4l-0.1-0.5h-0.2C213.3,101.9,209.8,103.5,206.1,103.5z
			 M208.7,95.3c2.7,0,5.1-1.3,7.1-4V83v-8.4c-2.1-1.9-4.5-2.9-7.1-2.9c-2.3,0-4.1,1-5.6,3c-1.5,2.1-2.3,5-2.3,8.7
			c0,3.9,0.7,6.9,2,8.9C204.2,94.3,206.1,95.3,208.7,95.3z"/>
	</g>
</g>
</svg>
