<?xml version="1.0" encoding="utf-8"?>
<!-- Generator: Adobe Illustrator 27.0.0, SVG Export Plug-In . SVG Version: 6.00 Build 0)  -->
<svg version="1.1" id="圖層_1" xmlns="http://www.w3.org/2000/svg" xmlns:xlink="http://www.w3.org/1999/xlink" x="0px" y="0px"
	 viewBox="0 0 216.9 195.9" style="enable-background:new 0 0 216.9 195.9;" xml:space="preserve">
<style type="text/css">
	.st0{fill:#47CFB9;}
	.st1{fill:#FFFFFF;}
	.st2{fill:#FFFFF4;}
	.st3{fill:#2AA890;}
	.st4{fill:#FFFFFF;stroke:#FF86AA;stroke-width:3;stroke-miterlimit:10;}
	.st5{fill:#FF86AA;}
	.st6{fill:#4D4867;}
	.st7{fill:#FFFFFF;stroke:#BBAEF9;stroke-width:3;stroke-linecap:round;stroke-linejoin:round;stroke-miterlimit:10;}
	.st8{fill:#BBAEF9;stroke:#BBAEF9;stroke-width:3;stroke-linecap:round;stroke-linejoin:round;stroke-miterlimit:10;}
	.st9{fill:#BBAEF9;}
	.st10{fill:#F95D98;}
</style>
<g>
	<path class="st6" d="M86.2,84C75.6,84,66,87.9,58.6,94.4V61c0-4-3.2-7.2-7.2-7.2s-7.2,3.2-7.2,7.2v66.8c0,0.5,0,0.9,0.1,1.4
		C46,150.9,64.1,168,86.2,168c23.2,0,42-18.8,42-42C128.2,102.9,109.3,84,86.2,84z M86.2,153.6c-15.2,0-27.6-12.4-27.6-27.6
		c0-15.2,12.4-27.6,27.6-27.6c15.2,0,27.6,12.4,27.6,27.6C113.8,141.2,101.4,153.6,86.2,153.6z"/>
	<path class="st6" d="M105.9,59c-4,0-7.2,3.2-7.2,7.2c0,4,3.2,7.2,7.2,7.2c13.6,0,24.6,11,24.6,24.6c0,4,3.2,7.2,7.2,7.2
		s7.2-3.2,7.2-7.2C144.9,76.4,127.4,59,105.9,59z"/>
	<path class="st6" d="M103.6,27.9c-4,0-7.2,3.2-7.2,7.2c0,4,3.2,7.2,7.2,7.2c30.2,0,54.8,24.6,54.8,54.8c0,4,3.2,7.2,7.2,7.2
		s7.2-3.2,7.2-7.2C172.7,58.9,141.7,27.9,103.6,27.9z"/>
</g>
</svg>
