<?xml version="1.0" encoding="utf-8"?>
<!-- Generator: Adobe Illustrator 27.0.0, SVG Export Plug-In . SVG Version: 6.00 Build 0)  -->
<svg version="1.1" id="圖層_1" xmlns="http://www.w3.org/2000/svg" xmlns:xlink="http://www.w3.org/1999/xlink" x="0px" y="0px"
	 viewBox="0 0 602.8 152.1" style="enable-background:new 0 0 602.8 152.1;" xml:space="preserve">
<style type="text/css">
	.st0{fill:#47CFB9;}
	.st1{fill:#FFFFFF;}
	.st2{fill:#FFFFF4;}
	.st3{fill:#2AA890;}
	.st4{fill:#FFFFFF;stroke:#FF86AA;stroke-width:3;stroke-miterlimit:10;}
	.st5{fill:#FF86AA;}
	.st6{fill:#4D4867;}
	.st7{fill:#FFFFFF;stroke:#BBAEF9;stroke-width:3;stroke-linecap:round;stroke-linejoin:round;stroke-miterlimit:10;}
	.st8{fill:#BBAEF9;stroke:#BBAEF9;stroke-width:3;stroke-linecap:round;stroke-linejoin:round;stroke-miterlimit:10;}
	.st9{fill:#BBAEF9;}
	.st10{fill:#F95D98;}
</style>
<g>
	<path class="st5" d="M91.5,117.3l-26.7-8.7c-0.6-0.2-0.4-1,0.2-1h26.7c0.3,0,0.5,0.2,0.5,0.5v8.7C92.2,117.2,91.9,117.4,91.5,117.3
		z"/>
	<path class="st5" d="M505.4,117.3l26.7-8.7c0.6-0.2,0.4-1-0.2-1h-26.7c-0.3,0-0.5,0.2-0.5,0.5v8.7
		C504.7,117.2,505,117.4,505.4,117.3z"/>
	<g>
		<path class="st5" d="M556.8,83.7l15.7-34.1c0.1-0.2,0-0.4-0.2-0.4h-35.6c-0.1,0-0.3,0.1-0.3,0.3v60.8c0,0.9-0.6,1.7-1.5,1.9
			l-22.4,7.3c-0.3,0.1-0.2,0.5,0.1,0.5h59.6c0.2,0,0.3-0.2,0.2-0.4l-15.7-34.1C556.5,85,556.5,84.3,556.8,83.7z"/>
		<path class="st5" d="M60.5,110.3V49.6c0-0.2-0.2-0.4-0.4-0.4H24.8c-0.3,0-0.4,0.3-0.3,0.5l15.6,33.9c0.3,0.6,0.3,1.3,0,2
			l-15.6,33.9c-0.1,0.2,0.1,0.5,0.3,0.5h59c0.4,0,0.5-0.6,0.1-0.7L62,112.2C61.1,112,60.5,111.3,60.5,110.3z"/>
		<path class="st5" d="M532.4,49.3v-4V32.5c0-0.2-0.2-0.4-0.4-0.4H64.9c-0.2,0-0.4,0.2-0.4,0.4v12.8v4V108c0,0.2,0.2,0.4,0.4,0.4
			h25.2h4h408.7h4H532c0.2,0,0.4-0.2,0.4-0.4V49.3z"/>
	</g>
</g>
<g>
	<g>
		<path class="st1" d="M82.5,70.2c-1.1,0-1.6-0.5-1.6-1.6v-2.2c0-0.6,0.2-1,0.5-1.3c0.3-0.3,0.8-0.5,1.3-0.5h8.6v-1.1
			c0-0.6,0.3-0.9,0.9-0.9h0.3c-0.2-0.1-0.5-0.3-0.9-0.5c-0.2-0.1-0.2-0.2-0.2-0.3c0-0.1,0.1-0.3,0.2-0.4c0,0,0,0,0.1-0.1l0.1-0.1
			h-3.3c0,0,0.1,0.1,0.1,0.2c0,0.1,0.1,0.2,0.1,0.2c0.4,1,0.1,1.6-0.9,1.9c-1,0.3-1.6,0-2-0.9c-0.3-0.6-0.6-1.1-0.7-1.4h-0.5
			c-0.4,0.5-0.8,1.1-1.3,1.7c-0.3,0.4-0.7,0.6-1,0.6c-0.3,0-0.7-0.1-1.1-0.4c-0.6-0.4-0.9-0.7-0.9-1.1c0-0.4,0.2-0.8,0.7-1.3
			c0.9-1,1.6-2,2.1-3c0.4-0.9,1.2-1.3,2.2-1s1.3,0.9,0.9,1.8h5.1c0.3,0,0.6,0.1,0.8,0.3c0.2,0.2,0.3,0.5,0.3,0.8v0.1
			c0,0.4,0.2,0.5,0.5,0.2c0.6-0.6,1.1-1.4,1.6-2.3c0.4-0.9,1.2-1.2,2.2-1c1.1,0.2,1.4,0.9,0.9,1.9h6.9c0.9,0,1.3,0.4,1.3,1.3
			c0,0.9-0.4,1.3-1.3,1.3h-3.3c0,0,0.1,0.1,0.2,0.2c0.1,0.1,0.1,0.2,0.2,0.2c0.6,1,0.3,1.6-0.8,1.9c-1,0.3-1.6,0-2.1-0.8
			c-0.2-0.4-0.6-1-1.1-1.6H96c-0.5,0.6-1,1.2-1.6,1.7v1.5h9c0.6,0,1,0.2,1.3,0.5s0.5,0.8,0.5,1.3v2.2c0,1.1-0.5,1.6-1.6,1.6
			c-1.1,0-1.7-0.5-1.7-1.6v-0.8c0-0.5-0.2-0.7-0.7-0.7H93h-8.3c-0.5,0-0.7,0.2-0.7,0.7v0.9C84,69.6,83.5,70.2,82.5,70.2z M87.1,82.5
			c-0.6,0-1-0.2-1.3-0.5c-0.3-0.3-0.5-0.8-0.5-1.3V70.1c0-0.6,0.2-1,0.5-1.3c0.3-0.3,0.8-0.5,1.3-0.5H93H99c0.6,0,1,0.2,1.3,0.5
			c0.3,0.3,0.5,0.8,0.5,1.3v2.7c0,0.6-0.2,1-0.5,1.3c-0.3,0.3-0.8,0.5-1.3,0.5H88.5v1.3h12.6c0.6,0,1,0.2,1.3,0.5
			c0.3,0.3,0.5,0.8,0.5,1.3v2.9c0,0.6-0.2,1-0.5,1.3c-0.3,0.3-0.8,0.5-1.3,0.5H87.1z M88.5,72.2H93h3.8c0.5,0,0.7-0.2,0.7-0.7v-0.1
			c0-0.4-0.2-0.7-0.7-0.7h-7.7c-0.5,0-0.7,0.2-0.7,0.7V72.2z M89.2,80h4.9H99c0.5,0,0.7-0.2,0.7-0.7v-0.2c0-0.5-0.2-0.7-0.7-0.7
			H88.5v0.9C88.5,79.8,88.7,80,89.2,80z"/>
		<path class="st1" d="M110.3,80.1c-0.3-0.2-0.6-0.6-0.7-1.2c-0.2-1.1,0.2-1.8,1.2-2.1c0.2-0.1,0.5-0.2,1-0.3
			c0.4-0.1,0.7-0.2,0.9-0.3v-6.7h-1.3c-1,0-1.5-0.5-1.5-1.6c0-1,0.5-1.5,1.5-1.5h1.3v-5h-1.5c-1,0-1.6-0.5-1.6-1.6
			c0-1,0.5-1.6,1.6-1.6h3.1h3.1c1,0,1.6,0.5,1.6,1.6c0,1.1-0.5,1.6-1.6,1.6h-1.5v5h1c1,0,1.5,0.5,1.5,1.5c0,1-0.5,1.6-1.5,1.6h-1
			v5.7c0.1,0,0.3-0.1,0.6-0.2c0.2-0.1,0.4-0.1,0.5-0.2c1.1-0.4,1.8,0,2,1.2c0.2,1-0.2,1.6-1.1,1.9c-2.1,0.7-4.2,1.4-6.2,2.1
			C111.1,80.3,110.6,80.3,110.3,80.1z M119.4,82.3c-1,0-1.5-0.5-1.5-1.5c0-1,0.5-1.5,1.5-1.5h6.2v-2.7h-4.3c-1,0-1.5-0.5-1.5-1.5
			c0-1,0.5-1.5,1.5-1.5h4.3V71h-3.8c-0.6,0-1-0.2-1.3-0.5c-0.3-0.3-0.5-0.8-0.5-1.3v-9.6c0-0.6,0.2-1,0.5-1.3
			c0.3-0.3,0.8-0.5,1.3-0.5h11c0.6,0,1,0.2,1.3,0.5s0.5,0.8,0.5,1.3v9.6c0,0.6-0.2,1-0.5,1.3c-0.3,0.3-0.8,0.5-1.3,0.5h-3.8v2.5h4.5
			c1,0,1.5,0.5,1.5,1.5c0,1-0.5,1.5-1.5,1.5h-4.5v2.7h5.4c1,0,1.5,0.5,1.5,1.5c0,1-0.5,1.5-1.5,1.5h-7.5H119.4z M123,63h2.9v-2.4
			h-1.5h-0.8c-0.4,0-0.6,0.2-0.6,0.6V63z M123.7,68.2h2.2v-2.5h-1.5H123v1.8C123,67.9,123.2,68.2,123.7,68.2z M128.8,63h1.4h1.4
			v-1.7c0-0.5-0.2-0.7-0.7-0.7h-2.1V63z M128.8,68.2h1.4h0.8c0.4,0,0.6-0.2,0.6-0.6v-1.9h-2.8V68.2z"/>
		<path class="st1" d="M140.5,81.8c-1.1-1-0.8-2.1,0.9-3.1c3.4-2.6,5.9-6.2,7.2-10.9c0.7-2.6,1.2-5.7,1.3-9.4c0-0.5,0.2-0.9,0.5-1
			c0.2-0.1,0.7-0.1,1.4-0.1c0.1,0,0.1,0,0.1,0c0.5,0,1,0.1,1.3,0.4c0.3,0.3,0.5,0.7,0.4,1.2c0,0,0,0,0,0.1c0.2,3.1,0.7,6.1,1.7,8.9
			c1.6,4.6,4.1,8.1,7.5,10.5c0.8,0.5,1.4,1,1.7,1.6c0.4,0.7,0.3,1.3-0.2,1.9c-0.7,0.8-1.7,0.9-3,0.2c-4.4-2.9-7.5-7.3-9.3-13.3
			c-1.6,5.6-4.5,10-8.6,13.1C142.3,82.6,141.3,82.6,140.5,81.8z"/>
		<path class="st1" d="M176.3,81.8c-1.5,0-2.9-0.5-4.3-1.5c-1.5-1.1-2.3-2.4-2.3-3.7c0-1.2,0.6-2.3,1.8-3.6c1.1-1.1,2.6-2.1,4.4-2.9
			c0-0.4,0-1.1,0-1.9v-2.3c-0.7,0-1.2,0.1-1.5,0.1c-1,0-1.8,0-2.3,0c-1-0.1-1.6-0.6-1.6-1.7c0-0.6,0.2-1,0.6-1.3
			c0.4-0.3,0.9-0.4,1.5-0.3c0.4,0,1,0.1,1.7,0.1c0.3,0,0.9,0,1.6-0.1c0-0.6,0-1.4,0-2.3c0-0.1,0-0.2,0-0.3c-0.2-1.4,0.4-2.2,1.7-2.2
			c1.3,0,1.8,0.7,1.7,2.1c0,0,0,0.1,0,0.2c0,0.1,0,0.1,0,0.2c0,0.4,0,1.1-0.1,2c1.2-0.2,2.3-0.4,3.3-0.6c1.2-0.3,1.8,0.2,1.9,1.5
			c0,1-0.4,1.6-1.3,1.8c-1.1,0.2-2.4,0.4-3.9,0.6c0,0.6,0,1.4,0,2.5v1c1.9-0.5,3.7-0.7,5.3-0.7c2.2,0,4,0.5,5.4,1.6
			c1.5,1.1,2.2,2.6,2.2,4.5c0,3.5-2,5.8-6.1,6.8c-0.8,0.2-1.6,0.3-2.2,0.3c-1,0.1-1.6-0.4-1.9-1.3c-0.5-1.4,0-2.2,1.6-2.2
			c0.5,0,0.8-0.1,1-0.1c1.2-0.2,2.2-0.6,2.9-1.2c0.8-0.6,1.2-1.4,1.2-2.4c0-0.9-0.4-1.6-1.1-2.2c-0.7-0.5-1.7-0.8-2.9-0.8
			c-1.7,0-3.4,0.2-5.2,0.7c0,0.6,0,1.4,0.1,2.5c0,1.5,0.1,2.4,0.1,2.8c0,1.6-0.3,2.8-0.9,3.5C178.1,81.5,177.3,81.8,176.3,81.8z
			 M175.2,78.1c0.6,0,0.9-0.4,0.9-1.2c0-0.8,0-2-0.1-3.4c-0.9,0.4-1.5,0.9-2.1,1.5c-0.5,0.5-0.8,1.1-0.8,1.5c0,0.4,0.2,0.8,0.7,1.1
			C174.4,77.9,174.8,78.1,175.2,78.1z M191.4,66.8c-1.2-0.8-2.5-1.6-4.1-2.5c-0.9-0.4-1-1.1-0.5-2.1c0.5-0.9,1.2-1.1,2-0.7
			c0.9,0.5,1.7,0.9,2.4,1.3c0.7,0.4,1.4,0.8,2,1.2c0.4,0.3,0.7,0.6,0.7,0.9c0.1,0.3-0.1,0.7-0.3,1.1c-0.3,0.6-0.6,0.9-0.9,1
			C192.3,67.3,191.9,67.1,191.4,66.8z"/>
		<path class="st1" d="M205,82.1c-0.5-0.1-0.9-0.3-1.2-0.6c-0.6-0.6-0.9-1.2-0.7-1.7c0.2-0.5,0.8-0.8,1.7-1.1
			c1.6-0.6,2.9-1.4,3.8-2.3c-0.4,0.1-0.9,0.1-1.3,0.1c-1.2,0-2.3-0.4-3.2-1.3c-1.1-1-1.6-2.2-1.6-3.8c0-1.5,0.6-2.8,1.7-3.8
			c1-1,2.3-1.4,3.9-1.4c0.4,0,0.8,0,1.1,0.1l0-1.9c-3.9,0.1-7.3,0.2-10.4,0.3c-0.6,0-0.9-0.1-1.2-0.3c-0.2-0.2-0.4-0.7-0.4-1.2
			c0-0.6,0.1-1,0.3-1.3c0.2-0.3,0.6-0.4,1.1-0.4c1.3,0,3.5-0.1,6.7-0.1c1.8,0,3.1-0.1,3.9-0.1c0-0.4,0-0.7,0-0.9c0,0,0-0.1,0-0.1
			c-0.1-0.8,0-1.4,0.3-1.7c0.3-0.4,0.8-0.6,1.5-0.6c0.7,0,1.2,0.2,1.5,0.6c0.3,0.4,0.4,0.9,0.3,1.7c0,0,0,0,0,0.1c0,0.1,0,0.2,0,0.3
			c0,0.2,0,0.4,0,0.5c0.5,0,1.3,0,2.3,0c2.2,0,3.7,0,4.5,0c0.5,0,0.8,0.1,1,0.4c0.1,0.2,0.2,0.6,0.2,1.2s-0.1,1-0.2,1.2
			c-0.2,0.3-0.5,0.4-1,0.4c-2.2,0-4.5-0.1-6.8-0.1c0,0.9,0,2.3,0,4.1c0.7,1,1,2.3,1,3.8c0,2.1-0.6,4-1.9,5.7c-1.3,1.7-3.1,3-5.3,3.9
			C205.9,82.1,205.4,82.2,205,82.1z M207.9,73.4c0.7,0,1.2-0.2,1.5-0.7c0.4-0.6,0.5-1.4,0.3-2.5c-0.4-0.6-1-1-1.8-1
			c-0.6,0-1.1,0.2-1.5,0.5c-0.4,0.4-0.7,1-0.7,1.7c0,0.6,0.2,1.1,0.7,1.5C206.9,73.3,207.4,73.4,207.9,73.4z"/>
		<path class="st1" d="M231.2,82.1c-0.5-0.1-0.9-0.3-1.2-0.6c-0.6-0.6-0.9-1.2-0.7-1.7c0.2-0.5,0.8-0.8,1.7-1.1
			c1.6-0.6,2.9-1.4,3.8-2.3c-0.4,0.1-0.9,0.1-1.3,0.1c-1.2,0-2.3-0.4-3.2-1.3c-1.1-1-1.6-2.2-1.6-3.8c0-1.5,0.6-2.8,1.7-3.8
			c1-1,2.3-1.4,3.9-1.4c0.4,0,0.8,0,1.1,0.1l0-1.9c-3.9,0.1-7.3,0.2-10.4,0.3c-0.6,0-0.9-0.1-1.2-0.3c-0.2-0.2-0.4-0.7-0.4-1.2
			c0-0.6,0.1-1,0.3-1.3c0.2-0.3,0.6-0.4,1.1-0.4c1.3,0,3.5-0.1,6.7-0.1c1.8,0,3.1-0.1,3.9-0.1c0-0.4,0-0.7,0-0.9c0,0,0-0.1,0-0.1
			c-0.1-0.8,0-1.4,0.3-1.7c0.3-0.4,0.8-0.6,1.5-0.6c0.7,0,1.2,0.2,1.5,0.6c0.3,0.4,0.4,0.9,0.3,1.7c0,0,0,0,0,0.1c0,0.1,0,0.2,0,0.3
			c0,0.2,0,0.4,0,0.5c0.5,0,1.3,0,2.3,0c2.2,0,3.7,0,4.5,0c0.5,0,0.8,0.1,1,0.4c0.1,0.2,0.2,0.6,0.2,1.2s-0.1,1-0.2,1.2
			c-0.2,0.3-0.5,0.4-1,0.4c-2.2,0-4.5-0.1-6.8-0.1c0,0.9,0,2.3,0,4.1c0.7,1,1,2.3,1,3.8c0,2.1-0.6,4-1.9,5.7c-1.3,1.7-3.1,3-5.3,3.9
			C232.1,82.1,231.7,82.2,231.2,82.1z M234.2,73.4c0.7,0,1.2-0.2,1.5-0.7c0.4-0.6,0.5-1.4,0.3-2.5c-0.4-0.6-1-1-1.8-1
			c-0.6,0-1.1,0.2-1.5,0.5c-0.4,0.4-0.7,1-0.7,1.7c0,0.6,0.2,1.1,0.7,1.5C233.1,73.3,233.6,73.4,234.2,73.4z"/>
		<path class="st1" d="M263.7,80.9c-0.4-0.6-0.4-1.2,0.1-1.8c0.5-0.5,1.2-0.8,2.1-1c1.7-0.6,2.9-1.4,3.7-2.6
			c0.8-1.1,1.1-2.3,1.1-3.7c0-1.5-0.4-2.8-1.2-3.9c-0.8-1.1-1.9-1.8-3.3-2.2c-1.1,3.8-2.4,6.7-3.7,8.8c0,0,0.1,0.1,0.1,0.1
			c0,0.1,0.1,0.1,0.1,0.1c0.9,0.9,0.8,1.8-0.3,2.7c-0.8,0.6-1.5,0.6-2.1-0.2c-1,1-1.9,1.8-2.7,2.3c-0.9,0.5-1.8,0.7-2.8,0.7
			c-1.2,0-2.2-0.5-3.1-1.4c-0.9-1-1.3-2.4-1.3-4.1c0-1.6,0.4-3.2,1.1-4.7c0.7-1.6,1.7-2.9,3-4c-0.3-0.9-0.6-1.6-0.7-2.2
			c0-0.1-0.1-0.2-0.1-0.4c-0.1-0.2-0.1-0.4-0.2-0.5c-0.5-1.3-0.2-2.1,1-2.5c1.2-0.4,1.9,0.1,2.3,1.4c0.1,0.3,0.1,0.5,0.2,0.7
			c0.2,0.5,0.3,1.1,0.5,1.7c1.9-1,4-1.6,6.2-1.7c0.1-0.3,0.2-0.8,0.3-1.3c0-0.2,0.1-0.4,0.1-0.5c0-0.7,0.2-1.2,0.5-1.6
			c0.3-0.3,0.8-0.4,1.5-0.4c1.3,0.1,1.8,0.9,1.4,2.4c-0.1,0.3-0.1,0.5-0.1,0.6l-0.2,1.1c2.2,0.5,3.9,1.6,5.3,3.2
			c1.3,1.7,2,3.7,2,6.1c0,2.8-0.9,5.1-2.8,6.9c-1.4,1.4-3.3,2.3-5.7,2.9C264.9,81.9,264.2,81.7,263.7,80.9z M255.3,76.6
			c0.9,0,1.9-0.7,3-2.1c-0.3-0.6-0.8-1.3-1.3-2.4c-0.4-0.9-0.9-1.9-1.3-2.9c-0.6,0.8-1.1,1.6-1.5,2.5c-0.4,0.9-0.5,1.8-0.5,2.7
			c0,0.7,0.1,1.2,0.4,1.6C254.4,76.4,254.8,76.6,255.3,76.6z M260.4,71.4c0.5-0.9,1-1.8,1.4-2.9c0.4-0.9,0.8-1.9,1.1-3.1
			c-1.6,0.2-3.1,0.7-4.4,1.5C259.1,68.8,259.7,70.2,260.4,71.4z"/>
		<path class="st1" d="M293,81.3c-0.5-0.2-0.9-0.4-1.1-0.8c-0.9-1.4-0.5-2.2,1.1-2.5c0,0,0,0,0.1,0s0.1,0,0.1,0
			c1.9-0.5,3.4-1.3,4.5-2.5c1.2-1.4,1.8-3,1.8-4.9c0-1.9-0.5-3.5-1.5-4.8c-1-1.3-2.5-2.2-4.3-2.5c-0.5,2.9-1,5.4-1.6,7.5
			c-0.9,2.9-1.9,5.1-3,6.6c-1.2,1.6-2.6,2.4-4.1,2.4c-1.6,0-2.9-0.8-4-2.3c-1.1-1.6-1.7-3.5-1.7-5.8c0-1.6,0.3-3.1,1-4.5
			c0.6-1.4,1.5-2.7,2.7-3.8c1.2-1.1,2.5-2,4.1-2.6c1.6-0.6,3.3-0.9,5-0.9c3.3,0,6.1,1,8.2,3.1c2,2,3,4.6,3,7.7
			c0,2.7-0.7,4.9-2.2,6.8c-1.5,1.9-3.7,3.2-6.6,3.9C293.9,81.5,293.4,81.5,293,81.3z M285,75.6c1.2,0,2.3-1.8,3.4-5.5
			c0.6-1.9,1.1-4.1,1.5-6.7c-2.2,0.5-3.9,1.5-5.2,3.3c-1.2,1.5-1.8,3.1-1.8,4.8c0,1.3,0.2,2.4,0.7,3.1
			C283.9,75.2,284.4,75.6,285,75.6z"/>
		<path class="st1" d="M321.9,81.8c-1.1,0-2.2,0-3.3-0.1c-1.1-0.1-1.7-0.6-1.7-1.7c-0.1-1.4,0.6-1.9,2-1.8c0,0,0.1,0,0.1,0
			c0.7,0,1.2,0.1,1.4,0.1c0.6,0,1-0.4,1-1.2c0-3.1,0-5.6-0.1-7.5c-1.1,1.4-2.5,2.9-4.3,4.5c-1.8,1.6-3.7,3-5.7,4.1
			c-1,0.6-1.8,0.4-2.5-0.4c-0.5-0.6-0.6-1.1-0.5-1.6c0.2-0.5,0.6-0.9,1.3-1.3c2.1-1.2,4.1-2.6,5.9-4.2c1.7-1.5,3.1-2.9,4.1-4.3h-7.6
			c-0.6,0-1,0-1.3,0c-1.3,0.1-1.9-0.5-1.9-1.7c0-1.3,0.7-1.9,2-1.7c0.3,0,0.6,0,1.1,0h4.6h4.6c0-0.6,0-1.3-0.1-2
			c0-0.1,0-0.3-0.1-0.6c-0.1-0.7,0-1.3,0.3-1.7c0.3-0.4,0.8-0.6,1.5-0.6c0.7,0,1.2,0.2,1.5,0.5c0.3,0.4,0.4,0.9,0.3,1.7
			c0,0.2,0,0.4,0,0.6l0,2h3.5c0.4,0,0.7,0,0.9,0c1.4-0.1,2,0.4,2,1.7c0,1.2-0.6,1.7-1.9,1.7c-0.2,0-0.5,0-0.8,0h-3.6
			c0.1,4.4,0.2,8.6,0.2,12.5C325.1,80.8,324,81.8,321.9,81.8z"/>
		<path class="st1" d="M337.3,80.5l-0.5-0.7c-0.3-0.5-0.4-1-0.2-1.4c0.2-0.4,0.7-0.7,1.4-0.8c3.2-0.7,6-1.8,8.4-3.3
			c2-1.2,3.8-2.6,5.5-4.3c1.5-1.5,2.8-3.2,3.9-4.9c0.2-0.5,0.6-0.7,0.9-0.7c0.4,0,0.7,0.3,1,0.9l0,0.1l0.6,1.1
			c0.3,0.6,0.3,1.2,0,1.7c-1.1,1.8-2.5,3.5-4.2,5.2c-1.7,1.7-3.6,3.2-5.7,4.4c-2.9,1.8-5.9,3-8.9,3.7
			C338.6,81.5,337.8,81.2,337.3,80.5z M342.3,66.9c-1.1-1.1-2.5-2.3-4.2-3.6c-1-0.8-1.1-1.7-0.1-2.7c0.4-0.4,0.8-0.7,1.1-0.8
			c0.4-0.1,0.8,0,1.3,0.4c0.9,0.7,1.7,1.3,2.5,2c0.7,0.6,1.4,1.2,2.2,1.9c0.5,0.4,0.7,0.9,0.6,1.3c0,0.4-0.3,0.8-0.7,1.3
			c-0.5,0.5-1,0.8-1.4,0.9C343.3,67.6,342.8,67.4,342.3,66.9z"/>
		<path class="st1" d="M368.4,81.1c-0.6-0.7-0.8-1.3-0.5-1.8c0.3-0.5,0.9-0.9,1.8-1.1c2.6-0.9,4.8-2.3,6.6-4
			c1.3-1.3,2.3-2.9,2.9-4.9h-13.5c-0.4,0-0.8,0-1.1,0c-1.4,0.1-2.1-0.5-2.1-1.7s0.7-1.8,2-1.7c0.3,0,0.7,0,1.2,0h6.9h6.9
			c0.5,0,1,0,1.3-0.1c0.5-0.1,1,0,1.5,0.3l0.7,0.4c0.7,0.4,0.9,1,0.5,1.7c0,0,0,0,0,0.1c-1,3.2-2.4,5.8-4.2,7.7
			c-2.3,2.6-5.1,4.4-8.6,5.6C369.9,82.1,369.1,81.8,368.4,81.1z M365,61c0-0.6,0.2-1.1,0.5-1.4c0.3-0.3,0.8-0.4,1.5-0.3
			c0.3,0,0.7,0,1,0h5.4h5.4c0.4,0,0.7,0,1.1,0c1.3-0.1,2,0.5,2,1.7c0,0.6-0.1,1.1-0.4,1.3c-0.3,0.3-0.8,0.4-1.4,0.3
			c-0.4,0-0.8,0-1.3,0h-10.7c-0.3,0-0.7,0-1.1,0C365.6,62.7,365,62.2,365,61z"/>
		<path class="st1" d="M400.5,81.8c-0.3,0-0.5-0.1-0.7-0.2c-0.2-0.2-0.2-0.3-0.2-0.5c0.1-1.1,0.1-2.1,0.1-2.9V69
			c-2.7,1.4-5.4,2.5-8,3.3c-1,0.3-1.8,0-2.4-0.9c-0.4-0.7-0.5-1.2-0.2-1.7s0.8-0.8,1.5-1c3.7-1.1,7.1-2.5,10.2-4.4
			c2.3-1.4,4.3-3.1,6.1-4.9c0.5-0.5,0.9-0.8,1.3-0.8c0.4,0,0.9,0.2,1.4,0.7c0.5,0.5,0.8,0.9,0.8,1.4c0,0.4-0.2,0.9-0.7,1.4
			c-2,1.8-4,3.3-6,4.6v11.4c0,0.5,0,1.2,0.1,2.1c0.1,0.4-0.1,0.8-0.3,1.1c-0.3,0.3-0.7,0.4-1.2,0.4h-0.5H400.5z"/>
		<path class="st1" d="M416.9,80.5l-0.5-0.7c-0.3-0.5-0.4-1-0.2-1.4c0.2-0.4,0.7-0.7,1.4-0.8c3.2-0.7,6-1.8,8.4-3.3
			c2-1.2,3.8-2.6,5.5-4.3c1.5-1.5,2.8-3.2,3.9-4.9c0.2-0.5,0.6-0.7,0.9-0.7c0.4,0,0.7,0.3,1,0.9l0,0.1l0.6,1.1
			c0.3,0.6,0.3,1.2,0,1.7c-1.1,1.8-2.5,3.5-4.2,5.2c-1.7,1.7-3.6,3.2-5.7,4.4c-2.9,1.8-5.9,3-8.9,3.7
			C418.2,81.5,417.4,81.2,416.9,80.5z M421.9,66.9c-1.1-1.1-2.5-2.3-4.2-3.6c-1-0.8-1.1-1.7-0.1-2.7c0.4-0.4,0.8-0.7,1.1-0.8
			c0.4-0.1,0.8,0,1.3,0.4c0.9,0.7,1.7,1.3,2.5,2c0.7,0.6,1.4,1.2,2.2,1.9c0.5,0.4,0.7,0.9,0.6,1.3c0,0.4-0.3,0.8-0.7,1.3
			c-0.5,0.5-1,0.8-1.4,0.9C422.9,67.6,422.4,67.4,421.9,66.9z"/>
		<path class="st1" d="M443.3,80.8c-0.7-0.6-1-1.1-1-1.5c0-0.5,0.4-0.9,1.1-1.4c0.6-0.4,1.1-0.9,1.5-1.4c1.3-1.3,2.3-2.7,3.1-4.3
			c0.7-1.6,1.2-3.5,1.5-5.6h-3.7c-0.6,0-1.1,0-1.7,0c-1.4,0.1-2-0.5-2-1.7c0-1.2,0.7-1.8,2-1.7c0.4,0,1,0,1.7,0h4
			c0-1,0.1-1.8,0.1-2.4c0-0.1,0-0.2,0-0.3c-0.2-1.5,0.5-2.3,1.9-2.3c0.7,0,1.2,0.2,1.5,0.6c0.3,0.4,0.4,0.9,0.3,1.7
			c0,0.1,0,0.2,0,0.2c0,1.1-0.1,1.9-0.1,2.5h5.3c0.3,0,0.7,0,1.3-0.1c0.6-0.1,1.1,0,1.6,0.3l0.5,0.3c0.7,0.4,1,1,0.9,1.8
			c0,0.1,0,0.1,0,0.2c-0.2,7-0.7,11.6-1.6,13.7c-0.3,0.7-0.8,1.3-1.3,1.6c-0.6,0.4-1.4,0.5-2.3,0.5c-0.7,0-1.7,0-3-0.1
			c-1.1-0.1-1.7-0.6-1.8-1.7c-0.2-1.4,0.5-2.1,2.1-1.9c0.6,0.1,1.1,0.1,1.6,0.1c0.8,0,1.3-0.3,1.6-1c0.4-0.8,0.7-2.4,0.9-4.7
			c0.2-2,0.3-3.8,0.3-5.7h-3.1h-3.1c-0.5,3.3-1.3,6.1-2.5,8.4c-1.2,2.2-2.8,4.2-4.9,5.9C445,81.5,444.1,81.5,443.3,80.8z"/>
		<path class="st1" d="M473.9,71.1c-1.3-0.9-2.5-1.6-3.4-2.1c-1-0.6-1.2-1.4-0.5-2.5c0.6-1,1.4-1.2,2.3-0.7c0.2,0.1,0.4,0.2,0.7,0.5
			c0.6,0.3,1,0.6,1.3,0.8c0.2,0.2,0.6,0.4,1.1,0.7c0.3,0.2,0.5,0.3,0.6,0.4c0.9,0.6,1,1.4,0.3,2.4C475.7,71.5,474.8,71.7,473.9,71.1
			z M472.2,81.7c-0.3-0.2-0.6-0.5-0.9-1c-0.8-1.5-0.4-2.4,1.2-2.7c2.6-0.6,5-1.5,7.1-2.7c4.1-2.3,7.4-5.3,9.8-8.8
			c0.3-0.5,0.7-0.7,1-0.7c0.4,0,0.7,0.3,1,0.9l0,0.1l0.6,1.1c0.3,0.6,0.3,1.1-0.1,1.6c-2.5,3.5-6.1,6.6-10.6,9.3
			c-2.4,1.4-5.1,2.4-8,3.2C473,81.9,472.5,81.9,472.2,81.7z M478.2,64.7c-1.3-0.9-2.5-1.6-3.4-2.1c-1-0.6-1.2-1.4-0.5-2.5
			c0.6-1,1.4-1.2,2.3-0.7c0.2,0.1,0.4,0.3,0.8,0.5c0.5,0.3,0.9,0.5,1.1,0.7c0.8,0.5,1.4,0.9,1.7,1.1c0.5,0.3,0.8,0.7,0.8,1.1
			c0,0.4-0.1,0.8-0.5,1.3c-0.4,0.5-0.7,0.9-1.1,1C479.1,65.2,478.7,65.1,478.2,64.7z M486.9,63.2c-0.5-0.8-0.8-1.5-1.1-1.9
			c-0.5-0.8-0.3-1.4,0.5-1.7c0.7-0.3,1.2-0.1,1.6,0.4c0.3,0.4,0.6,0.9,0.8,1.3c0,0.1,0.1,0.2,0.2,0.3c0.2,0.3,0.3,0.6,0.4,0.7
			c0.4,0.8,0.2,1.3-0.6,1.7C487.9,64.3,487.3,64.1,486.9,63.2z M490.9,61.8c-0.1-0.1-0.1-0.2-0.3-0.4c-0.2-0.3-0.3-0.5-0.4-0.7
			c-0.1-0.1-0.2-0.3-0.3-0.5c-0.1-0.1-0.1-0.2-0.1-0.2c-0.6-0.8-0.4-1.4,0.5-1.8c0.6-0.3,1.2-0.2,1.6,0.4c0.3,0.4,0.7,1.1,1.3,2
			c0.1,0.1,0.1,0.2,0.1,0.3c0.4,0.7,0.2,1.3-0.6,1.7C491.9,62.8,491.3,62.6,490.9,61.8z"/>
		<path class="st1" d="M500.2,81.2c-0.4-0.1-0.8-0.3-1.1-0.6l-0.6-0.6l-0.9-0.9c-0.5-0.5-0.4-0.9,0.3-1.1c1.9-0.8,3.7-1.8,5.4-3
			c1.6-1.2,3-2.5,4.2-3.9c1.1-1.4,2.1-3,3-4.9c0.8-1.8,1.5-3.6,1.9-5.5c0.1-0.5,0.4-0.9,0.8-1.2s0.9-0.3,1.5-0.1l0.5,0.1
			c0.6,0.2,1,0.5,1.2,0.9s0.2,1,0,1.6c-0.1,0.1-0.1,0.3-0.2,0.6s-0.2,0.4-0.2,0.6c-1.7,4.6-3.4,8-5.3,10.3c-1.1,1.4-2.5,2.8-4,4.1
			c-1.7,1.4-3.4,2.6-5.2,3.5C501.1,81.2,500.6,81.3,500.2,81.2z"/>
	</g>
</g>
</svg>
