<?xml version="1.0" encoding="utf-8"?>
<!-- Generator: Adobe Illustrator 27.0.0, SVG Export Plug-In . SVG Version: 6.00 Build 0)  -->
<svg version="1.1" id="圖層_1" xmlns="http://www.w3.org/2000/svg" xmlns:xlink="http://www.w3.org/1999/xlink" x="0px" y="0px"
	 viewBox="0 0 326.7 226.1" style="enable-background:new 0 0 326.7 226.1;" xml:space="preserve">
<style type="text/css">
	.st0{fill:#47CFB9;}
	.st1{fill:#FFFFFF;}
	.st2{fill:#FFFFF4;}
	.st3{fill:#2AA890;}
	.st4{fill:#FFFFFF;stroke:#FF86AA;stroke-width:3;stroke-miterlimit:10;}
	.st5{fill:#FF86AA;}
	.st6{fill:#4D4867;}
	.st7{fill:#FFFFFF;stroke:#BBAEF9;stroke-width:3;stroke-linecap:round;stroke-linejoin:round;stroke-miterlimit:10;}
	.st8{fill:#BBAEF9;stroke:#BBAEF9;stroke-width:3;stroke-linecap:round;stroke-linejoin:round;stroke-miterlimit:10;}
	.st9{fill:#BBAEF9;}
	.st10{fill:#F95D98;}
</style>
<g>
	<path class="st0" d="M254.8,184.9H71.9c-7.1,0-12.8-5.7-12.8-12.8V54c0-7.1,5.7-12.8,12.8-12.8h182.8c7.1,0,12.8,5.7,12.8,12.8
		v118.1C267.5,179.2,261.8,184.9,254.8,184.9z"/>
	<path class="st3" d="M254.8,189.9H71.9c-9.8,0-17.8-8-17.8-17.8V54c0-9.8,8-17.8,17.8-17.8h182.8c9.8,0,17.8,8,17.8,17.8v118.1
		C272.5,181.9,264.6,189.9,254.8,189.9z M71.9,46.2c-4.3,0-7.8,3.5-7.8,7.8v118.1c0,4.3,3.5,7.8,7.8,7.8h182.8
		c4.3,0,7.8-3.5,7.8-7.8V54c0-4.3-3.5-7.8-7.8-7.8H71.9z"/>
	<g>
		<g>
			<path class="st1" d="M102.6,132.8c-0.9-0.3-1.7-1.2-2.4-2.6c-0.6-1.4-0.8-2.5-0.6-3.3c0.2-0.9,1-1.6,2.2-2.3
				c1.5-0.8,3.3-1.8,5.5-3c0.6-0.3,1.5-0.8,2.7-1.6c1.8-1,3.1-1.8,4-2.3c2.5-1.5,4.3-0.8,5.2,2c0.6,2,0.1,3.7-1.6,4.8
				c-4,2.7-7.9,5.2-11.6,7.5C104.6,132.9,103.5,133.1,102.6,132.8z M104,100c-2.5,0-3.8-1.3-3.8-3.9c0-2.5,1.3-3.8,3.8-3.8h5h5
				c2.5,0,3.8,1.3,3.8,3.8c0,2.6-1.3,3.9-3.8,3.9H104z M116.4,143.7c-1.4,0-2.4-0.6-3.1-1.6c-0.9-1.3-0.9-2.6,0.1-4.1
				c0.8-1.2,2.1-2.2,3.9-3.1c5.6-3.6,9.9-8.2,12.7-13.8c2.2-4.4,3.3-8.6,3.3-12.7v-7h-5.5c-1.4,3.4-2.9,6.4-4.6,9.1
				c-0.9,1.2-1.7,1.9-2.6,2.1c-0.9,0.2-2-0.1-3.2-0.8c-1.5-0.9-2.3-1.7-2.5-2.7c-0.2-0.9,0.3-2,1.3-3.4c3.4-5.1,6.1-11.6,8-19.4
				c0.3-1.4,0.9-2.5,1.8-3.1c0.9-0.7,2-1,3.4-0.7c2.8,0.5,3.9,2.2,3.2,5c-0.4,1.5-0.9,3.4-1.7,5.7h11.6h14.2c1.5,0,2.6,0.5,3.3,1.4
				c0.7,1,0.8,2.4,0.3,4.2c-1.2,4.8-2.9,9.3-5,13.6c-0.5,1-1.2,1.6-1.9,1.7c-0.6,0.1-1.5-0.2-2.8-0.8c-1.2-0.6-2-1.2-2.3-2
				c-0.3-0.8-0.2-1.7,0.3-2.9c1-2.3,1.9-4.7,2.7-7.2h-9.5v6.9c0,4,1,8,2.9,12.3c2.5,5.5,6.3,10.1,11.2,13.6c1.7,1,3,2.1,3.7,3.5
				c0.9,1.5,0.8,3-0.1,4.3c-0.7,1-1.7,1.6-3.1,1.7c-1.2,0-2.5-0.3-3.7-1c-4.1-2.8-7.7-6.4-10.6-10.8c-2.4-3.6-3.9-7-4.5-10.2
				c-0.9,3.2-2.6,6.6-5.3,10.2c-3.3,4.5-7.3,8.1-12.1,11C118.9,143.4,117.6,143.7,116.4,143.7z"/>
			<path class="st1" d="M173.9,141.5c-1.3,0-2.4-0.4-3.2-1.2c-0.8-0.8-1.2-1.9-1.2-3.2V88.2c0-1.3,0.4-2.4,1.2-3.2
				c0.8-0.8,1.9-1.2,3.2-1.2h24.4h24.5c1.3,0,2.4,0.4,3.2,1.2s1.2,1.9,1.2,3.2V137c0,1.3-0.4,2.4-1.2,3.2c-0.8,0.8-1.9,1.2-3.2,1.2
				H173.9z M179.5,133.9h38.9V92.1h-20.3h-18.6c-1.1,0-1.6,0.5-1.6,1.6v38.6C177.9,133.4,178.4,133.9,179.5,133.9z M188.8,126
				c-1.3,0-2.4-0.4-3.2-1.2c-0.8-0.8-1.2-1.9-1.2-3.2v-17c0-1.3,0.4-2.4,1.2-3.2c0.8-0.8,1.9-1.2,3.2-1.2h18.7
				c1.3,0,2.4,0.4,3.2,1.2c0.8,0.8,1.2,1.9,1.2,3.2v17c0,1.3-0.4,2.4-1.2,3.2c-0.8,0.8-1.9,1.2-3.2,1.2h-9.3H188.8z M193.5,119h4.3
				h4.3c1.1,0,1.6-0.5,1.6-1.6v-8.5c0-1.1-0.5-1.6-1.6-1.6h-8.6c-1.1,0-1.6,0.5-1.6,1.6v8.5C191.9,118.4,192.5,119,193.5,119z"/>
		</g>
	</g>
</g>
</svg>
