<?xml version="1.0" encoding="utf-8"?>
<!-- Generator: Adobe Illustrator 27.0.0, SVG Export Plug-In . SVG Version: 6.00 Build 0)  -->
<svg version="1.1" id="圖層_1" xmlns="http://www.w3.org/2000/svg" xmlns:xlink="http://www.w3.org/1999/xlink" x="0px" y="0px"
	 viewBox="0 0 475 152.1" style="enable-background:new 0 0 475 152.1;" xml:space="preserve">
<style type="text/css">
	.st0{fill:#47CFB9;}
	.st1{fill:#FFFFFF;}
	.st2{fill:#FFFFF4;}
	.st3{fill:#2AA890;}
	.st4{fill:#FFFFFF;stroke:#FF86AA;stroke-width:3;stroke-miterlimit:10;}
	.st5{fill:#FF86AA;}
	.st6{fill:#4D4867;}
	.st7{fill:#FFFFFF;stroke:#BBAEF9;stroke-width:3;stroke-linecap:round;stroke-linejoin:round;stroke-miterlimit:10;}
	.st8{fill:#BBAEF9;stroke:#BBAEF9;stroke-width:3;stroke-linecap:round;stroke-linejoin:round;stroke-miterlimit:10;}
	.st9{fill:#BBAEF9;}
	.st10{fill:#F95D98;}
</style>
<g>
	<g>
		<g>
			<path class="st6" d="M154.8,76.7c-1.8,0-2.7-0.9-2.7-2.7V58c-1.1,3.1-2.2,5.6-3.3,7.6c-0.7,1.1-1.4,1.7-1.9,1.6
				c-0.6,0-1.1-0.7-1.7-1.9c-0.3-0.7-0.5-1.3-0.5-1.8c0-0.5,0.3-1.1,0.7-1.7c2.6-3.9,4.6-8.6,6.1-14.2h-3.4c-1.8,0-2.7-0.9-2.7-2.7
				s0.9-2.7,2.7-2.7h4v-7.1c0-1.8,0.9-2.7,2.7-2.7c1.8,0,2.7,0.9,2.7,2.7v7.1h3.2c1.8,0,2.7,0.9,2.7,2.7s-0.9,2.7-2.7,2.7h-3.2v2.9
				c1.5,1.7,3.4,3.9,5.5,6.6c0.4,0.6,0.6,1.1,0.6,1.5c-0.1,0.3-0.3,0.9-0.8,1.5c-0.7,1-1.4,1.5-1.9,1.5c-0.5,0-1.1-0.6-1.7-1.7
				c-0.2-0.3-0.4-0.6-0.8-1.2c-0.4-0.8-0.8-1.3-1-1.7v9.9V74C157.4,75.8,156.6,76.7,154.8,76.7z M168,73.6c-0.9,0-1.7-0.3-2.2-0.9
				c-0.6-0.6-0.9-1.3-0.9-2.2V38.1c0-0.9,0.3-1.7,0.9-2.2s1.3-0.9,2.2-0.9h7.9h8c0.9,0,1.7,0.3,2.2,0.9s0.9,1.3,0.9,2.2v32.4
				c0,0.9-0.3,1.7-0.9,2.2c-0.6,0.6-1.3,0.9-2.2,0.9H168z M170.3,46.2h5.5h5.5v-4.7c0-0.8-0.4-1.1-1.1-1.1h-8.8
				c-0.8,0-1.1,0.4-1.1,1.1V46.2z M170.3,57.3h5.5h5.5v-6h-11V57.3z M171.4,68.5h8.8c0.8,0,1.1-0.4,1.1-1.1v-4.9h-5.5h-5.5v4.9
				C170.3,68.1,170.7,68.5,171.4,68.5z"/>
			<path class="st6" d="M197,76.7c-1.8,0-2.7-0.9-2.7-2.7V37.4c0-0.9,0.3-1.7,0.9-2.2s1.3-0.9,2.2-0.9h5.9h6c0.9,0,1.7,0.3,2.2,0.9
				s0.9,1.3,0.9,2.2v9.9c0,0.9-0.3,1.7-0.9,2.2c-0.6,0.6-1.3,0.9-2.2,0.9h-9.5V74C199.7,75.8,198.8,76.7,197,76.7z M199.7,40.5h3.6
				h3.7v-1.3c0-0.7-0.3-1-1-1h-5.2c-0.8,0-1.1,0.4-1.1,1.1V40.5z M199.7,46.5h6.2c0.8,0,1.1-0.4,1.1-1.1V44h-3.7h-3.6V46.5z
				 M226.2,75.9c-0.7-0.5-1.1-1.1-1.3-1.9c-0.3-0.8-0.4-1.3-0.6-1.7c-0.2,0.2-0.4,0.5-0.7,0.9c-0.1,0.2-0.2,0.3-0.2,0.4
				c-0.4,0.6-1,0.8-1.8,0.6c-3.2-1.2-5.7-3-7.6-5.6c-1.5,2-3.8,3.7-6.9,5c-1.7,0.6-3,0.5-3.7-0.4c-0.7-0.8-0.8-1.5-0.2-2.2
				c0.5-0.6,1.3-1.1,2.5-1.6c2.2-1.1,3.8-2.5,4.6-4h-6c-1.4,0-2-0.7-2-2.1c0-1.4,0.7-2,2-2h6.8v-2.5h-6.3c-1.3,0-1.9-0.7-1.9-2
				c0-1.3,0.6-1.9,1.9-1.9h1.8c0-0.1-0.1-0.2-0.2-0.4c-0.1-0.2-0.1-0.3-0.2-0.4c-0.8-1.5-0.3-2.5,1.4-3c1.1-0.3,2,0,2.6,0.9
				c0.6,1,1,2,1.3,2.9h4.8c0-0.1,0.1-0.3,0.2-0.5c0.3-0.7,0.4-1.2,0.6-1.5c0.5-1.5,1.6-2.1,3.1-1.8c1,0.3,1.6,0.7,1.7,1.2
				s-0.1,1.3-0.7,2.2c0,0,0,0.1-0.1,0.1c0,0.1-0.1,0.1-0.1,0.1h2.2c1.3,0,1.9,0.6,1.9,1.9c0,1.3-0.6,2-1.9,2h-7.2v2.5h7.5
				c1.4,0,2,0.7,2,2c0,1.4-0.7,2.1-2,2.1h-6.7c1.7,2.3,4.2,4,7.6,4.9c0.9,0.2,1,0.6,0.6,1.1l0,0l0,0.1c1.3,0.1,2.1,0.1,2.6,0
				c0.5,0,0.8-0.3,0.8-0.8V50.4h-9.8c-0.9,0-1.7-0.3-2.2-0.9c-0.6-0.6-0.9-1.3-0.9-2.2v-10c0-0.9,0.3-1.7,0.9-2.2
				c0.6-0.6,1.3-0.9,2.2-0.9h6.1h6.1c0.9,0,1.7,0.3,2.2,0.9c0.6,0.6,0.9,1.3,0.9,2.2v33.4c0,1.4-0.1,2.4-0.4,3.1
				c-0.3,0.8-0.8,1.4-1.6,1.8c-0.7,0.4-1.8,0.7-3.1,0.9C227.7,76.6,226.9,76.4,226.2,75.9z M220.8,40.5h3.8h3.8v-1.3
				c0-0.7-0.3-1-1-1h-5.4c-0.8,0-1.1,0.4-1.1,1.1V40.5z M221.9,46.6h6.4V44h-3.8h-3.8v1.4C220.8,46.2,221.1,46.6,221.9,46.6z"/>
			<path class="st6" d="M241.7,44.8c-1.5,0-2.2-0.7-2.2-2.2s0.7-2.2,2.2-2.2h14.7c1.5,0,2.2,0.7,2.2,2.2s-0.7,2.2-2.2,2.2H249H241.7
				z M244.6,74.2c-0.9,0-1.7-0.3-2.2-0.9s-0.9-1.3-0.9-2.2V63c0-0.9,0.3-1.7,0.9-2.2s1.3-0.9,2.2-0.9h4.5h4.5c0.9,0,1.7,0.3,2.2,0.9
				s0.9,1.3,0.9,2.2v8.1c0,0.9-0.3,1.7-0.9,2.2s-1.3,0.9-2.2,0.9H244.6z M243.8,51.2c-1.4,0-2.1-0.7-2.1-2.2c0-1.4,0.7-2.1,2.1-2.1
				h10.8c1.4,0,2.1,0.7,2.1,2.1c0,1.5-0.7,2.2-2.1,2.2h-5.4H243.8z M243.7,57.6c-1.4,0-2.1-0.7-2.1-2.1c0-1.4,0.7-2.1,2.1-2.1h10.9
				c1.4,0,2.1,0.7,2.1,2.1c0,1.4-0.7,2.1-2.1,2.1h-5.4H243.7z M244.1,38.2c-1.4,0-2.1-0.7-2.1-2.1s0.7-2.1,2.1-2.1h5.3h5.4
				c1.4,0,2.1,0.7,2.1,2.1s-0.7,2.1-2.1,2.1H244.1z M247.5,69.8h3.1c0.8,0,1.1-0.4,1.1-1.1v-1.6v-1.6c0-0.8-0.4-1.1-1.1-1.1h-3.1
				c-0.8,0-1.1,0.4-1.1,1.1v3.2C246.3,69.4,246.7,69.8,247.5,69.8z M268.2,76.3c-2.9,0-4.9-0.5-6-1.5c-1.1-1.1-1.7-3.1-1.7-6.1V53.2
				c0-0.9,0.3-1.7,0.9-2.2s1.3-0.9,2.2-0.9h10.6c0.8,0,1.1-0.4,1.1-1.1v-7.6c0-0.8-0.4-1.1-1.1-1.1h-11.1c-1.8,0-2.7-0.9-2.7-2.7
				c0-1.8,0.9-2.7,2.7-2.7h7.6h7.2c0.9,0,1.7,0.3,2.2,0.9c0.6,0.6,0.9,1.3,0.9,2.2v14.4c0,0.9-0.3,1.7-0.9,2.2
				c-0.6,0.6-1.3,0.9-2.2,0.9h-10.5c-0.8,0-1.1,0.4-1.1,1.1v12.1c0,1,0.1,1.6,0.5,1.9c0.3,0.3,1,0.4,2.1,0.4h6.7c1,0,1.7-0.4,2-1.2
				c0.2-1.5,0.6-2.7,1.1-3.6c0.7-1,1.6-1.3,2.7-0.9c0.7,0.3,1.2,1,1.4,2.1c0.2,0.9,0.3,1.8,0.1,2.9c-0.4,2.3-1.2,3.8-2.2,4.7
				c-1,0.9-2.6,1.3-4.7,1.3H268.2z"/>
			<path class="st6" d="M299.9,75.2c-0.8-1.8,0.2-2.7,2.7-2.7c0.6,0,1.3,0,1.9,0c0.4,0,0.8-0.1,0.9-0.3c0.2-0.2,0.3-0.5,0.3-0.9
				v-1.5h-12.2c-1.4,0-2-0.7-2-2c0-1.4,0.7-2,2-2h12.2v-2.2h-16.4c-1.4,0-2.1-0.7-2.1-2.2c0-1.4,0.7-2.1,2.1-2.1h7.2h9.3v-2h-12
				c-1.3,0-1.9-0.6-1.9-1.9c0-1.3,0.6-1.9,1.9-1.9h12v-2.1H296c-0.9,0-1.7-0.3-2.2-0.9c-0.6-0.6-0.9-1.3-0.9-2.2V45
				c0-0.9,0.3-1.7,0.9-2.2c0.6-0.6,1.3-0.9,2.2-0.9h9.7V40h-15.3c-1.5,0-2.2-0.7-2.2-2.2c0-1.5,0.7-2.2,2.2-2.2h15.3v-0.3
				c0-1.9,0.9-2.8,2.8-2.8c1.9,0,2.8,0.9,2.8,2.8v0.3h15.7c1.5,0,2.2,0.7,2.2,2.2c0,1.5-0.7,2.2-2.2,2.2h-15.7V42h10.3
				c0.9,0,1.7,0.3,2.2,0.9s0.9,1.3,0.9,2.2v3.2c0,0.9-0.3,1.7-0.9,2.2c-0.6,0.6-1.3,0.9-2.2,0.9h-10.3v2.1h11c0.9,0,1.7,0.3,2.2,0.9
				s0.9,1.3,0.9,2.2v2.7h2.7c1.4,0,2.1,0.7,2.1,2.1c0,1.5-0.7,2.2-2.1,2.2h-2.7v3.3c0,0.9-0.3,1.6-0.8,2.2c-0.5,0.6-1.3,0.8-2.2,0.8
				h-11.1v1.5c0,1.4-0.2,2.4-0.5,3.1c-0.4,0.7-1,1.2-1.9,1.6c-1.2,0.4-3,0.7-5.5,0.8C301.5,76.9,300.3,76.3,299.9,75.2z M299.3,47.8
				h6.4v-2.3H302h-2.6c-0.8,0-1.1,0.4-1.1,1.1v0.1C298.3,47.4,298.6,47.8,299.3,47.8z M311.3,47.8h3.8h2.7c0.8,0,1.1-0.4,1.1-1.1
				v-0.1c0-0.7-0.3-1-1-1h-6.6V47.8z M311.3,59.2h8.5v-1.2c0-0.6-0.3-0.9-0.9-0.9h-3.4h-4.2V59.2z M311.3,65.8h4.2h3.1
				c0.8,0,1.1-0.4,1.1-1.1v-1.1h-8.5V65.8z"/>
		</g>
	</g>
	<path class="st5" d="M13,83.5c143.8-1.5,305.2-1.5,449,0c0.8,0,1.4,0.6,1.4,1.4c0,0.8-0.6,1.4-1.4,1.4
		c-123.6,1.4-269.1,1.3-392.9,0.5c0,0-56.1-0.5-56.1-0.5c-0.8,0-1.4-0.6-1.4-1.4C11.6,84.1,12.2,83.5,13,83.5L13,83.5z"/>
	<g>
		<g>
			<path class="st5" d="M173.3,119.6c-3.1,0-5.7-1-7.7-3.1c-2.1-2.2-3.2-5.2-3.2-9.1s1.1-6.9,3.3-9.1c2.1-2.2,4.7-3.3,7.8-3.3
				c2.1,0,4,0.6,5.7,1.9c0.8,0.7,0.9,1.6,0.1,2.5c-0.9,1.1-1.9,1.2-3,0.3c-0.8-0.5-1.7-0.7-2.7-0.7c-1.8,0-3.3,0.7-4.5,2.2
				c-1.2,1.5-1.8,3.5-1.8,6c0,2.6,0.6,4.6,1.7,6.1c1.1,1.5,2.6,2.2,4.5,2.2c1.2,0,2.3-0.3,3.3-1c1.1-0.9,2.1-0.8,3,0.3
				c0.7,0.9,0.7,1.8-0.2,2.6C177.8,118.9,175.7,119.6,173.3,119.6z"/>
			<path class="st5" d="M192.9,119.6c-3.2,0-5.7-1.1-7.7-3.3c-2-2.2-2.9-5.3-2.9-9.1s1-6.8,2.9-9c1.9-2.1,4.5-3.2,7.7-3.2
				s5.7,1.1,7.7,3.2c2,2.2,2.9,5.2,2.9,9c0,3.8-1,6.8-2.9,9.1C198.6,118.5,196,119.6,192.9,119.6z M192.9,115.5
				c1.8,0,3.2-0.7,4.2-2.2c1-1.5,1.6-3.5,1.6-6.1s-0.5-4.5-1.6-6c-1-1.4-2.4-2.2-4.2-2.2s-3.2,0.7-4.2,2.2c-1,1.4-1.6,3.4-1.6,6
				c0,2.5,0.5,4.6,1.6,6.1C189.7,114.8,191.1,115.5,192.9,115.5z"/>
			<path class="st5" d="M210.3,119.2c-1.5,0-2.2-0.7-2.2-2.2V97.6c0-0.6,0.2-1.1,0.6-1.5c0.4-0.4,0.9-0.6,1.5-0.6h0.3h1.3
				c0.8,0,1.3,0.3,1.7,1l6.3,11.6l2.4,5.1h0.2c0-0.1,0-0.3-0.1-0.6c-0.4-3.5-0.5-6.1-0.5-7.7v-7.2c0-1.5,0.7-2.2,2.2-2.2
				s2.2,0.7,2.2,2.2v19.1c0,0.8-0.3,1.4-0.8,1.8c-0.5,0.4-1.2,0.6-2,0.6c-0.6,0-1.1-0.1-1.6-0.4c-0.5-0.3-0.9-0.6-1.2-1.1l-6.1-11.2
				l-2.4-5.1H212c0,0.4,0.1,0.9,0.2,1.7c0.3,2.9,0.4,5.1,0.4,6.6v7.3C212.6,118.5,211.8,119.2,210.3,119.2z"/>
			<path class="st5" d="M234.3,119.2c-1.5,0-2.2-0.7-2.2-2.2V97.6c0-0.6,0.2-1.1,0.6-1.5c0.4-0.4,0.9-0.6,1.5-0.6h0.3h1.3
				c0.8,0,1.3,0.3,1.7,1l6.3,11.6l2.4,5.1h0.2c0-0.1,0-0.3-0.1-0.6c-0.4-3.5-0.5-6.1-0.5-7.7v-7.2c0-1.5,0.7-2.2,2.2-2.2
				s2.2,0.7,2.2,2.2v19.1c0,0.8-0.3,1.4-0.8,1.8c-0.5,0.4-1.2,0.6-2,0.6c-0.6,0-1.1-0.1-1.6-0.4c-0.5-0.3-0.9-0.6-1.2-1.1l-6.1-11.2
				l-2.4-5.1H236c0,0.4,0.1,0.9,0.2,1.7c0.3,2.9,0.4,5.1,0.4,6.6v7.3C236.6,118.5,235.8,119.2,234.3,119.2z"/>
			<path class="st5" d="M258.2,119.2c-0.6,0-1.1-0.2-1.5-0.6c-0.4-0.4-0.6-0.9-0.6-1.5V97.6c0-0.6,0.2-1.1,0.6-1.5
				c0.4-0.4,0.9-0.6,1.5-0.6h10.5c1.3,0,2,0.7,2,2c0,1.3-0.7,2-2,2h-7.8v5.5h6.3c1.3,0,2,0.7,2,2s-0.7,2-2,2h-6.3v6.3h8.2
				c1.3,0,2,0.7,2,2s-0.7,2-2,2h-5.5H258.2z"/>
			<path class="st5" d="M285.5,119.6c-3.1,0-5.7-1-7.7-3.1c-2.1-2.2-3.2-5.2-3.2-9.1s1.1-6.9,3.3-9.1c2.1-2.2,4.7-3.3,7.8-3.3
				c2.1,0,4,0.6,5.7,1.9c0.8,0.7,0.9,1.6,0.1,2.5c-0.9,1.1-1.9,1.2-3,0.3c-0.8-0.5-1.7-0.7-2.7-0.7c-1.8,0-3.3,0.7-4.5,2.2
				c-1.2,1.5-1.8,3.5-1.8,6c0,2.6,0.6,4.6,1.7,6.1c1.1,1.5,2.6,2.2,4.5,2.2c1.2,0,2.3-0.3,3.3-1c1.1-0.9,2.1-0.8,3,0.3
				c0.7,0.9,0.7,1.8-0.2,2.6C290,118.9,287.9,119.6,285.5,119.6z"/>
			<path class="st5" d="M303.4,119.2c-1.6,0-2.4-0.8-2.4-2.4V99.4h-4.7c-1.3,0-2-0.7-2-2c0-1.3,0.7-2,2-2h7.1h7.1c1.3,0,2,0.7,2,2
				c0,1.3-0.7,2-2,2h-4.8v17.4C305.8,118.4,305,119.2,303.4,119.2z"/>
		</g>
	</g>
</g>
</svg>
