<?xml version="1.0" encoding="utf-8"?>
<!-- Generator: Adobe Illustrator 27.0.0, SVG Export Plug-In . SVG Version: 6.00 Build 0)  -->
<svg version="1.1" id="圖層_1" xmlns="http://www.w3.org/2000/svg" xmlns:xlink="http://www.w3.org/1999/xlink" x="0px" y="0px"
	 viewBox="0 0 216.9 195.9" style="enable-background:new 0 0 216.9 195.9;" xml:space="preserve">
<style type="text/css">
	.st0{fill:#47CFB9;}
	.st1{fill:#FFFFFF;}
	.st2{fill:#FFFFF4;}
	.st3{fill:#2AA890;}
	.st4{fill:#FFFFFF;stroke:#FF86AA;stroke-width:3;stroke-miterlimit:10;}
	.st5{fill:#FF86AA;}
	.st6{fill:#4D4867;}
	.st7{fill:#FFFFFF;stroke:#BBAEF9;stroke-width:3;stroke-linecap:round;stroke-linejoin:round;stroke-miterlimit:10;}
	.st8{fill:#BBAEF9;stroke:#BBAEF9;stroke-width:3;stroke-linecap:round;stroke-linejoin:round;stroke-miterlimit:10;}
	.st9{fill:#BBAEF9;}
	.st10{fill:#F95D98;}
</style>
<g>
	<g>
		<path class="st6" d="M80.5,165.9c-18.1,0-35.8-5.2-51-15c-2.6-1.7-3.7-4.9-2.7-7.8c1-2.9,3.9-4.7,7-4.3c2.1,0.3,4.4,0.4,6.6,0.4
			c7.6,0,14.9-1.5,21.6-4.3c-8.6-4.5-15.3-12.2-18.4-21.8c-0.6-1.9-0.3-3.9,0.7-5.5c-7.4-6.9-11.9-16.7-11.9-27.4c0-0.2,0-0.5,0-0.7
			c0.1-2.3,1.4-4.4,3.4-5.5c0.1-0.1,0.3-0.1,0.4-0.2c-2.3-4.9-3.5-10.3-3.5-15.9c0-6.6,1.8-13.2,5.1-18.9c1.1-1.9,3-3.1,5.2-3.3
			c2.2-0.2,4.3,0.7,5.6,2.4c12.9,15.8,31.3,26.2,51.3,29.2c0.2-20.6,17-37.3,37.6-37.3c9,0,17.8,3.3,24.6,9.2c5-1.3,9.8-3.3,14.3-6
			c2.4-1.4,5.3-1.2,7.5,0.5c2.1,1.7,3,4.6,2.2,7.2c-0.4,1.3-0.9,2.5-1.4,3.7c1.6,0.2,3.2,1,4.3,2.3c1.9,2.2,2.1,5.5,0.4,7.9
			c-3.9,5.9-8.7,11.1-14.3,15.6c0,0.3,0,0.5,0,0.8C175.2,117.7,139.7,165.9,80.5,165.9z M59.1,149.8c6.9,1.9,14.1,2.8,21.3,2.8
			c51,0,81.5-41.4,81.5-81.5c0-1.2,0-2.5-0.1-3.7c-0.1-2,0.7-3.9,2.2-5.2c-1.9-0.6-3.5-2.1-4.2-4.1c-0.6-1.7-0.4-3.6,0.4-5.1
			c-1.8,0.1-3.7-0.7-5-2.1c-4.6-4.9-11.1-7.7-17.8-7.7c-13.4,0-24.4,10.9-24.4,24.4c0,1.9,0.2,3.8,0.6,5.6c0.5,2,0,4.1-1.4,5.7
			c-1.3,1.6-3.3,2.5-5.4,2.4c-22.9-1.1-44.5-10.6-60.9-26.4c-0.1,1-0.2,2-0.2,3c0,8.2,4.1,15.8,10.8,20.3c2.5,1.6,3.5,4.7,2.6,7.5
			c-0.9,2.8-3.5,4.7-6.5,4.6c-1.8-0.1-3.5-0.2-5.3-0.5c3.1,7.2,9.5,12.7,17.6,14.3c3,0.6,5.2,3.2,5.3,6.3c0.1,3.1-1.9,5.8-4.9,6.6
			c-1.5,0.4-2.9,0.7-4.4,0.9c4.4,5,10.8,8,17.7,8.1c2.8,0.1,5.3,1.9,6.1,4.5c0.9,2.6,0,5.6-2.2,7.3
			C75.7,143.4,67.7,147.4,59.1,149.8z"/>
	</g>
</g>
</svg>
