<?xml version="1.0" encoding="utf-8"?>
<!-- Generator: Adobe Illustrator 27.0.0, SVG Export Plug-In . SVG Version: 6.00 Build 0)  -->
<svg version="1.1" id="圖層_1" xmlns="http://www.w3.org/2000/svg" xmlns:xlink="http://www.w3.org/1999/xlink" x="0px" y="0px"
	 viewBox="0 0 216.9 195.9" style="enable-background:new 0 0 216.9 195.9;" xml:space="preserve">
<style type="text/css">
	.st0{fill:#47CFB9;}
	.st1{fill:#FFFFFF;}
	.st2{fill:#FFFFF4;}
	.st3{fill:#2AA890;}
	.st4{fill:#FFFFFF;stroke:#FF86AA;stroke-width:3;stroke-miterlimit:10;}
	.st5{fill:#FF86AA;}
	.st6{fill:#4D4867;}
	.st7{fill:#FFFFFF;stroke:#BBAEF9;stroke-width:3;stroke-linecap:round;stroke-linejoin:round;stroke-miterlimit:10;}
	.st8{fill:#BBAEF9;stroke:#BBAEF9;stroke-width:3;stroke-linecap:round;stroke-linejoin:round;stroke-miterlimit:10;}
	.st9{fill:#BBAEF9;}
	.st10{fill:#F95D98;}
</style>
<g>
	<g>
		<path class="st6" d="M108.5,41.7c18.3,0,20.5,0.1,27.7,0.4c6.7,0.3,10.3,1.4,12.7,2.4c3.2,1.2,5.5,2.7,7.9,5.1
			c2.4,2.4,3.9,4.7,5.1,7.9c0.9,2.4,2.1,6,2.4,12.7c0.3,7.2,0.4,9.4,0.4,27.7s-0.1,20.5-0.4,27.7c-0.3,6.7-1.4,10.3-2.4,12.7
			c-1.2,3.2-2.7,5.5-5.1,7.9c-2.4,2.4-4.7,3.9-7.9,5.1c-2.4,0.9-6,2.1-12.7,2.4c-7.2,0.3-9.4,0.4-27.7,0.4
			c-18.3,0-20.5-0.1-27.7-0.4c-6.7-0.3-10.3-1.4-12.7-2.4c-3.2-1.2-5.5-2.7-7.9-5.1c-2.4-2.4-3.9-4.7-5.1-7.9
			c-0.9-2.4-2.1-6-2.4-12.7c-0.3-7.2-0.4-9.4-0.4-27.7s0.1-20.5,0.4-27.7c0.3-6.7,1.4-10.3,2.4-12.7c1.2-3.2,2.7-5.5,5.1-7.9
			c2.4-2.4,4.7-3.9,7.9-5.1c2.4-0.9,6-2.1,12.7-2.4C88,41.8,90.1,41.7,108.5,41.7 M108.5,29.3c-18.6,0-21,0.1-28.3,0.4
			c-7.3,0.3-12.3,1.5-16.7,3.2c-4.5,1.8-8.3,4.1-12.2,7.9c-3.8,3.8-6.2,7.6-7.9,12.2c-1.7,4.4-2.9,9.4-3.2,16.7
			c-0.3,7.3-0.4,9.7-0.4,28.3c0,18.6,0.1,21,0.4,28.3c0.3,7.3,1.5,12.3,3.2,16.7c1.8,4.5,4.1,8.3,7.9,12.2c3.8,3.8,7.6,6.2,12.2,7.9
			c4.4,1.7,9.4,2.9,16.7,3.2c7.3,0.3,9.7,0.4,28.3,0.4c18.6,0,21-0.1,28.3-0.4c7.3-0.3,12.3-1.5,16.7-3.2c4.5-1.8,8.3-4.1,12.2-7.9
			c3.8-3.8,6.2-7.6,7.9-12.2c1.7-4.4,2.9-9.4,3.2-16.7c0.3-7.3,0.4-9.7,0.4-28.3s-0.1-21-0.4-28.3c-0.3-7.3-1.5-12.3-3.2-16.7
			c-1.8-4.5-4.1-8.3-7.9-12.2c-3.8-3.8-7.6-6.2-12.2-7.9c-4.4-1.7-9.4-2.9-16.7-3.2C129.4,29.4,127.1,29.3,108.5,29.3L108.5,29.3z"
			/>
		<path class="st6" d="M108.5,62.7c-19.5,0-35.2,15.8-35.2,35.2s15.8,35.2,35.2,35.2c19.5,0,35.2-15.8,35.2-35.2
			S127.9,62.7,108.5,62.7z M108.5,120.8c-12.6,0-22.9-10.2-22.9-22.9s10.2-22.9,22.9-22.9s22.9,10.2,22.9,22.9
			S121.1,120.8,108.5,120.8z"/>
		<circle class="st6" cx="145.1" cy="61.3" r="8.2"/>
	</g>
</g>
</svg>
