<?xml version="1.0" encoding="utf-8"?>
<!-- Generator: Adobe Illustrator 27.0.0, SVG Export Plug-In . SVG Version: 6.00 Build 0)  -->
<svg version="1.1" id="圖層_1" xmlns="http://www.w3.org/2000/svg" xmlns:xlink="http://www.w3.org/1999/xlink" x="0px" y="0px"
	 viewBox="0 0 137.8 295.7" style="enable-background:new 0 0 137.8 295.7;" xml:space="preserve">
<style type="text/css">
	.st0{fill:#47CFB9;}
	.st1{fill:#FFFFFF;}
	.st2{fill:#FFFFF4;}
	.st3{fill:#2AA890;}
	.st4{fill:#FFFFFF;stroke:#FF86AA;stroke-width:3;stroke-miterlimit:10;}
	.st5{fill:#FF86AA;}
	.st6{fill:#4D4867;}
	.st7{fill:#FFFFFF;stroke:#BBAEF9;stroke-width:3;stroke-linecap:round;stroke-linejoin:round;stroke-miterlimit:10;}
	.st8{fill:#BBAEF9;stroke:#BBAEF9;stroke-width:3;stroke-linecap:round;stroke-linejoin:round;stroke-miterlimit:10;}
	.st9{fill:#BBAEF9;}
	.st10{fill:#F95D98;}
</style>
<g>
	<polygon class="st0" points="125.4,27.9 12.4,267.9 125.4,267.9 	"/>
	<g>
		<polygon class="st1" points="87.2,178.8 78.4,193.9 95.9,193.9 		"/>
		<polygon class="st1" points="87.2,158.9 78.4,174 95.9,174 		"/>
		<g>
			<path class="st1" d="M75.3,223.5v-16.3c-1.8,0-4.1,0.2-5.1,0.4v-1.6c1.6,0.1,4.1,0.1,6.8,0.1c2.3,0,4.4,0,6.7-0.1v1.6
				c-1-0.2-3.1-0.4-5.1-0.4v16.3H75.3z"/>
			<path class="st1" d="M85.6,214.8c0-5.5,3.2-9.2,9.1-9.2c6,0,9.1,3.7,9.1,9.2c0,5.5-3.1,9.1-9.1,9.1
				C88.8,223.9,85.6,220.3,85.6,214.8z M100.5,215.5c0-5-2.3-8.8-5.7-8.8c-3.4,0-5.7,2.5-5.7,7.4s2.3,8.8,5.7,8.8
				C98.2,222.8,100.5,220.4,100.5,215.5z"/>
			<path class="st1" d="M67.7,251.8v-16.3c-1.8,0-4.1,0.2-5.1,0.4v-1.6c1.6,0.1,4.1,0.1,6.8,0.1c2.3,0,4.4,0,6.7-0.1v1.6
				c-1-0.2-3.1-0.4-5.1-0.4v16.3H67.7z"/>
			<path class="st1" d="M78.1,243.1c0-5.5,3.2-9.2,9.1-9.2c6,0,9.1,3.7,9.1,9.2c0,5.5-3.1,9.1-9.1,9.1
				C81.3,252.2,78.1,248.7,78.1,243.1z M92.9,243.8c0-5-2.3-8.8-5.7-8.8c-3.4,0-5.7,2.5-5.7,7.4s2.3,8.8,5.7,8.8
				C90.6,251.2,92.9,248.8,92.9,243.8z"/>
			<path class="st1" d="M99.6,251.8v-17.5h6.4c2.9,0,5.7,1.7,5.7,5.1c0,3.4-2.8,5.1-5.7,5.1h-3.2v7.2H99.6z M104.5,243.5
				c2.1,0,3.8-1.4,3.8-4s-1.7-4-3.8-4h-1.7v8.1H104.5z"/>
		</g>
	</g>
</g>
</svg>
