<?xml version="1.0" encoding="utf-8"?>
<!-- Generator: Adobe Illustrator 27.0.0, SVG Export Plug-In . SVG Version: 6.00 Build 0)  -->
<svg version="1.1" id="圖層_1" xmlns="http://www.w3.org/2000/svg" xmlns:xlink="http://www.w3.org/1999/xlink" x="0px" y="0px"
	 viewBox="0 0 137 123.1" style="enable-background:new 0 0 137 123.1;" xml:space="preserve">
<style type="text/css">
	.st0{fill:#47CFB9;}
	.st1{fill:#FFFFFF;}
	.st2{fill:#FFFFF4;}
	.st3{fill:#2AA890;}
	.st4{fill:#FFFFFF;stroke:#FF86AA;stroke-width:3;stroke-miterlimit:10;}
	.st5{fill:#FF86AA;}
	.st6{fill:#4D4867;}
	.st7{fill:#FFFFFF;stroke:#BBAEF9;stroke-width:3;stroke-linecap:round;stroke-linejoin:round;stroke-miterlimit:10;}
	.st8{fill:#BBAEF9;stroke:#BBAEF9;stroke-width:3;stroke-linecap:round;stroke-linejoin:round;stroke-miterlimit:10;}
	.st9{fill:#BBAEF9;}
	.st10{fill:#F95D98;}
</style>
<g>
	<rect x="18.5" y="11.5" class="st7" width="100" height="100"/>
	<g>
		<g>
			<path class="st9" d="M45.8,67.1c-1.6,0-2.9-0.5-3.9-1.6c-1.1-1-1.6-2.3-1.6-3.8c0-1.6,0.5-2.9,1.6-4c1.1-1.1,2.4-1.6,3.9-1.6
				c1.5,0,2.8,0.5,3.9,1.6c1.1,1.1,1.6,2.4,1.6,3.9s-0.5,2.9-1.6,3.9C48.7,66.5,47.4,67.1,45.8,67.1z M68.5,67.1
				c-1.6,0-2.9-0.5-3.9-1.6c-1.1-1-1.6-2.3-1.6-3.8c0-1.6,0.5-2.9,1.6-4c1.1-1.1,2.4-1.6,3.9-1.6s2.8,0.5,3.9,1.6
				c1.1,1.1,1.6,2.4,1.6,3.9s-0.5,2.9-1.6,3.9C71.4,66.5,70.1,67.1,68.5,67.1z M91.2,67.1c-1.6,0-2.9-0.5-3.9-1.6
				c-1.1-1-1.6-2.3-1.6-3.8c0-1.6,0.5-2.9,1.6-4c1.1-1.1,2.4-1.6,3.9-1.6c1.5,0,2.8,0.5,3.9,1.6c1.1,1.1,1.6,2.4,1.6,3.9
				s-0.5,2.9-1.6,3.9C94.1,66.5,92.7,67.1,91.2,67.1z"/>
		</g>
	</g>
</g>
</svg>
