<?xml version="1.0" encoding="utf-8"?>
<!-- Generator: Adobe Illustrator 27.0.0, SVG Export Plug-In . SVG Version: 6.00 Build 0)  -->
<svg version="1.1" id="圖層_1" xmlns="http://www.w3.org/2000/svg" xmlns:xlink="http://www.w3.org/1999/xlink" x="0px" y="0px"
	 viewBox="0 0 331.1 172.8" style="enable-background:new 0 0 331.1 172.8;" xml:space="preserve">
<style type="text/css">
	.st0{fill:#47CFB9;}
	.st1{fill:#FFFFFF;}
	.st2{fill:#FFFFF4;}
	.st3{fill:#2AA890;}
	.st4{fill:#FFFFFF;stroke:#FF86AA;stroke-width:3;stroke-miterlimit:10;}
	.st5{fill:#FF86AA;}
	.st6{fill:#4D4867;}
	.st7{fill:#FFFFFF;stroke:#BBAEF9;stroke-width:3;stroke-linecap:round;stroke-linejoin:round;stroke-miterlimit:10;}
	.st8{fill:#BBAEF9;stroke:#BBAEF9;stroke-width:3;stroke-linecap:round;stroke-linejoin:round;stroke-miterlimit:10;}
	.st9{fill:#BBAEF9;}
	.st10{fill:#F95D98;}
</style>
<g>
	<g>
		<path class="st0" d="M77,111.3c-3,0-4.6-1.5-4.6-4.5V65.3c0-1.3,0.4-2.4,1.2-3.2c0.8-0.8,1.9-1.2,3.2-1.2h3.3c1,0,2,0.3,2.9,0.9
			c0.9,0.6,1.5,1.4,1.8,2.4l7.4,20.3c0.5,1.5,1.2,3.7,2.1,6.7c0.4,1.4,0.7,2.4,1,3.1h0.3c0.3-1,0.8-2.5,1.4-4.5
			c0.7-2.4,1.2-4.1,1.6-5.2l7.2-20.3c0.3-1,0.9-1.8,1.8-2.4c0.9-0.6,1.8-0.9,2.9-0.9h2.1h3c0.8,0,1.4,0.2,1.9,0.7s0.7,1.1,0.7,1.9
			v43.3c0,3-1.5,4.6-4.6,4.6c-3.1,0-4.6-1.5-4.6-4.6V90.2c0-2.9,0.4-8,1.1-15.3c0-0.5,0.1-1,0.1-1.2H110l-4.1,11.9L99.1,104
			c-0.3,0.8-0.8,1.5-1.6,2c-0.7,0.5-1.5,0.8-2.4,0.8H95c-1.8,0-3-0.8-3.6-2.5l-6.9-18.7l-4-11.9h-0.3c0,0.5,0.1,1.3,0.3,2.4
			c0.7,6.8,1,11.5,1,14.2v16.6C81.5,109.8,80,111.3,77,111.3z"/>
		<path class="st0" d="M150.6,112.2c-6.8,0-12.2-2.4-16.3-7.1c-4.2-4.8-6.3-11.2-6.3-19.3c0-8.1,2.1-14.5,6.3-19.1
			c4.1-4.5,9.5-6.8,16.3-6.8c6.8,0,12.2,2.3,16.3,6.8c4.2,4.7,6.3,11.1,6.3,19.2c0,8.1-2.1,14.5-6.3,19.2
			C162.8,109.8,157.4,112.2,150.6,112.2z M150.6,103.5c3.7,0,6.7-1.6,8.9-4.8c2.2-3.2,3.3-7.5,3.3-12.9c0-5.4-1.1-9.6-3.3-12.7
			c-2.2-3.1-5.2-4.6-9-4.6c-3.8,0-6.8,1.5-9,4.6c-2.2,3.1-3.3,7.3-3.3,12.7s1.1,9.7,3.3,12.9C143.9,101.9,146.9,103.5,150.6,103.5z"
			/>
		<path class="st0" d="M188.1,111.3c-3.4,0-5-1.7-5-5V65.3c0-1.3,0.4-2.4,1.2-3.2c0.8-0.8,1.9-1.2,3.2-1.2h4.4h8.8
			c12.6,0,18.9,5.1,18.9,15.3c0,7.2-3.2,12-9.6,14.5l8.9,15.6c0.9,1.5,1,2.7,0.5,3.6c-0.5,0.9-1.7,1.4-3.4,1.4h-2.3
			c-1,0-1.9-0.2-2.7-0.7s-1.5-1.2-1.9-2l-8.9-16.4h-7v14C193.1,109.6,191.5,111.3,188.1,111.3z M193.1,84.2h6.5c6.7,0,10-2.7,10-8.1
			c0-2.6-0.9-4.5-2.6-5.7c-1.6-1-4.1-1.6-7.4-1.6h-6.5v7.7V84.2z"/>
		<path class="st0" d="M233.9,111.3c-1.3,0-2.4-0.4-3.2-1.2s-1.2-1.9-1.2-3.2V65.3c0-1.3,0.4-2.4,1.2-3.2s1.9-1.2,3.2-1.2h22.3
			c2.8,0,4.2,1.4,4.2,4.2c0,2.8-1.4,4.2-4.2,4.2h-16.7v11.6h13.5c2.8,0,4.2,1.4,4.2,4.2s-1.4,4.2-4.2,4.2h-13.5v13.5H257
			c2.8,0,4.2,1.4,4.2,4.2s-1.4,4.2-4.2,4.2h-11.6H233.9z"/>
	</g>
</g>
<path class="st0" d="M37.5,138.4c-2.8,0-5-2.2-5-5V38.7c0-2.8,2.2-5,5-5s5,2.2,5,5v94.6C42.5,136.1,40.3,138.4,37.5,138.4z"/>
<path class="st0" d="M296.1,138.4c-2.8,0-5-2.2-5-5V38.7c0-2.8,2.2-5,5-5s5,2.2,5,5v94.6C301.1,136.1,298.9,138.4,296.1,138.4z"/>
</svg>
