<?xml version="1.0" encoding="utf-8"?>
<!-- Generator: Adobe Illustrator 27.0.0, SVG Export Plug-In . SVG Version: 6.00 Build 0)  -->
<svg version="1.1" id="圖層_1" xmlns="http://www.w3.org/2000/svg" xmlns:xlink="http://www.w3.org/1999/xlink" x="0px" y="0px"
	 viewBox="0 0 326.7 226.1" style="enable-background:new 0 0 326.7 226.1;" xml:space="preserve">
<style type="text/css">
	.st0{fill:#47CFB9;}
	.st1{fill:#FFFFFF;}
	.st2{fill:#FFFFF4;}
	.st3{fill:#2AA890;}
	.st4{fill:#FFFFFF;stroke:#FF86AA;stroke-width:3;stroke-miterlimit:10;}
	.st5{fill:#FF86AA;}
	.st6{fill:#4D4867;}
	.st7{fill:#FFFFFF;stroke:#BBAEF9;stroke-width:3;stroke-linecap:round;stroke-linejoin:round;stroke-miterlimit:10;}
	.st8{fill:#BBAEF9;stroke:#BBAEF9;stroke-width:3;stroke-linecap:round;stroke-linejoin:round;stroke-miterlimit:10;}
	.st9{fill:#BBAEF9;}
	.st10{fill:#F95D98;}
</style>
<g>
	<path class="st0" d="M254.8,184.9H71.9c-7.1,0-12.8-5.7-12.8-12.8V54c0-7.1,5.7-12.8,12.8-12.8h182.8c7.1,0,12.8,5.7,12.8,12.8
		v118.1C267.5,179.2,261.8,184.9,254.8,184.9z"/>
	<path class="st3" d="M254.8,189.9H71.9c-9.8,0-17.8-8-17.8-17.8V54c0-9.8,8-17.8,17.8-17.8h182.8c9.8,0,17.8,8,17.8,17.8v118.1
		C272.5,181.9,264.6,189.9,254.8,189.9z M71.9,46.2c-4.3,0-7.8,3.5-7.8,7.8v118.1c0,4.3,3.5,7.8,7.8,7.8h182.8
		c4.3,0,7.8-3.5,7.8-7.8V54c0-4.3-3.5-7.8-7.8-7.8H71.9z"/>
	<g>
		<g>
			<path class="st1" d="M103.4,99.3c-2.5,0-3.7-1.2-3.7-3.7c0-2.5,1.2-3.7,3.7-3.7h10.4c-0.4-0.9-1-2-1.9-3.2
				c-1-1.3-1.4-2.5-1.1-3.5c0.3-1,1.2-1.8,2.8-2.4c1.9-0.6,3.5-0.2,4.9,1.4c1,1.3,2,2.6,2.9,4c0.4,0.7,0.4,1.4,0.1,2.1
				c-0.3,0.7-0.8,1.2-1.7,1.5l-0.2,0.1H140l-1.6-0.5c-0.8-0.3-0.9-0.8-0.5-1.3c1.3-1.7,2.5-3.5,3.5-5.2c1.3-2.3,3.2-3.1,5.7-2.3
				c3.4,1,3.9,3.1,1.5,6.1c-0.9,1.1-1.7,2.2-2.6,3.2H157c2.5,0,3.7,1.2,3.7,3.7c0,2.5-1.2,3.7-3.7,3.7h-26.8H103.4z M115.6,142.6
				c-1-2.8,0.2-4.2,3.9-4.1c0.2,0,0.4,0,0.6,0c0.7,0,1.1-0.4,1.1-1.1v-7.1l-1.5,2c-0.3,0.5-0.7,0.7-1.2,0.8c-0.5,0.1-0.9,0-1.3-0.3
				c-1.8-1.5-3.7-2.7-5.7-3.7v12.3c0,2.5-1.3,3.8-3.8,3.8c-2.5,0-3.8-1.3-3.8-3.8v-32.9c0-1.3,0.4-2.4,1.2-3.2
				c0.8-0.8,1.9-1.2,3.2-1.2h8.1h8.1c1.3,0,2.4,0.4,3.2,1.2c0.8,0.8,1.2,1.9,1.2,3.2v29.2c0,1.8-0.2,3.1-0.6,4.1
				c-0.5,1-1.2,1.8-2.2,2.4c-1.4,0.7-3.2,1.1-5.7,1.2C117.9,145.3,116.3,144.4,115.6,142.6z M121.2,117.1v-4.8
				c0-1.1-0.5-1.6-1.6-1.6h-6.4c-1.1,0-1.6,0.5-1.6,1.6v4.5l1.4-1.8c0.8-1,1.7-1.3,2.9-0.8c0.3,0.1,0.8,0.4,1.5,0.7
				c0.2,0.1,0.3,0.2,0.5,0.3C119.1,115.8,120.2,116.5,121.2,117.1z M121.2,128.2v-8.4l-1.3,1.8c-0.3,0.5-0.7,0.7-1.1,0.8
				c-0.4,0.1-0.8,0-1.1-0.3c-2-1.5-4.1-2.7-6.2-3.6v8.2l1.2-1.4c0.5-0.8,1.3-1,2.2-0.6c0.7,0.3,1.7,0.7,2.8,1.4
				C119.2,126.7,120.3,127.5,121.2,128.2z M137.9,132.4c-2.5,0-3.8-1.3-3.8-3.8v-10.1v-10.1c0-2.5,1.3-3.8,3.8-3.8
				c2.5,0,3.8,1.3,3.8,3.8v20.2C141.7,131.1,140.4,132.4,137.9,132.4z M140.5,142.2c-1.1-3.1,0.5-4.6,4.7-4.4c0.3,0,0.6,0,1.1-0.1
				c0.3,0,0.5,0,0.5,0c0.9,0,1.4-0.5,1.4-1.2v-29.8c0-2.6,1.3-4,4-4c2.6,0,4,1.3,4,4v12.9v16.9c0,2-0.2,3.6-0.7,4.7
				c-0.5,1.1-1.4,2-2.7,2.6c-1.5,0.7-3.8,1.1-6.8,1.4C143.1,145.3,141.3,144.3,140.5,142.2z"/>
			<path class="st1" d="M173.9,141.5c-1.3,0-2.4-0.4-3.2-1.2c-0.8-0.8-1.2-1.9-1.2-3.2V88.2c0-1.3,0.4-2.4,1.2-3.2
				c0.8-0.8,1.9-1.2,3.2-1.2h24.4h24.5c1.3,0,2.4,0.4,3.2,1.2s1.2,1.9,1.2,3.2V137c0,1.3-0.4,2.4-1.2,3.2c-0.8,0.8-1.9,1.2-3.2,1.2
				H173.9z M179.5,133.9h38.9V92.1h-20.3h-18.6c-1.1,0-1.6,0.5-1.6,1.6v38.6C177.9,133.4,178.4,133.9,179.5,133.9z M188.8,126
				c-1.3,0-2.4-0.4-3.2-1.2c-0.8-0.8-1.2-1.9-1.2-3.2v-17c0-1.3,0.4-2.4,1.2-3.2c0.8-0.8,1.9-1.2,3.2-1.2h18.7
				c1.3,0,2.4,0.4,3.2,1.2c0.8,0.8,1.2,1.9,1.2,3.2v17c0,1.3-0.4,2.4-1.2,3.2c-0.8,0.8-1.9,1.2-3.2,1.2h-9.3H188.8z M193.5,119h4.3
				h4.3c1.1,0,1.6-0.5,1.6-1.6v-8.5c0-1.1-0.5-1.6-1.6-1.6h-8.6c-1.1,0-1.6,0.5-1.6,1.6v8.5C191.9,118.4,192.5,119,193.5,119z"/>
		</g>
	</g>
</g>
</svg>
