<?xml version="1.0" encoding="utf-8"?>
<!-- Generator: Adobe Illustrator 27.0.0, SVG Export Plug-In . SVG Version: 6.00 Build 0)  -->
<svg version="1.1" id="圖層_1" xmlns="http://www.w3.org/2000/svg" xmlns:xlink="http://www.w3.org/1999/xlink" x="0px" y="0px"
	 viewBox="0 0 1000 172.8" style="enable-background:new 0 0 1000 172.8;" xml:space="preserve">
<style type="text/css">
	.st0{fill:#47CFB9;}
	.st1{fill:#FFFFFF;}
	.st2{fill:#FFFFF4;}
	.st3{fill:#2AA890;}
	.st4{fill:#FFFFFF;stroke:#FF86AA;stroke-width:3;stroke-miterlimit:10;}
	.st5{fill:#FF86AA;}
	.st6{fill:#4D4867;}
	.st7{fill:#FFFFFF;stroke:#BBAEF9;stroke-width:3;stroke-linecap:round;stroke-linejoin:round;stroke-miterlimit:10;}
	.st8{fill:#BBAEF9;stroke:#BBAEF9;stroke-width:3;stroke-linecap:round;stroke-linejoin:round;stroke-miterlimit:10;}
	.st9{fill:#BBAEF9;}
	.st10{fill:#F95D98;}
</style>
<g>
	<path class="st0" d="M932.1,143.2H67.9c-31.3,0-56.8-25.6-56.8-56.8v0c0-31.3,25.6-56.8,56.8-56.8h864.1
		c31.3,0,56.8,25.6,56.8,56.8v0C988.9,117.6,963.3,143.2,932.1,143.2z"/>
	<g>
		<g>
			<path class="st1" d="M382.4,119.4c-4,0-6-2-6-5.9V59.2c0-1.7,0.5-3.1,1.6-4.2s2.5-1.6,4.2-1.6h4.3c1.4,0,2.6,0.4,3.7,1.2
				c1.1,0.8,1.9,1.8,2.3,3.1l9.7,26.6c0.7,1.9,1.6,4.8,2.8,8.7c0.5,1.8,1,3.1,1.2,4h0.4c0.4-1.3,1-3.3,1.9-5.9
				c0.9-3.1,1.6-5.4,2.1-6.9l9.5-26.6c0.4-1.3,1.2-2.3,2.3-3.1c1.1-0.8,2.4-1.2,3.7-1.2h2.8h3.9c1,0,1.8,0.3,2.5,0.9
				c0.6,0.6,0.9,1.4,0.9,2.5v56.6c0,4-2,6-6,6c-4,0-6.1-2-6.1-6V91.8c0-3.8,0.5-10.5,1.4-20.1c0.1-0.7,0.1-1.2,0.2-1.6h-0.4
				l-5.4,15.5l-8.8,24.2c-0.4,1.1-1.1,1.9-2.1,2.6c-1,0.7-2,1-3.1,1h-0.3c-2.3,0-3.9-1.1-4.7-3.3l-9-24.4l-5.3-15.5h-0.4
				c0.1,0.7,0.2,1.7,0.4,3.1c0.9,8.9,1.3,15,1.3,18.6v21.7C388.3,117.4,386.3,119.4,382.4,119.4z"/>
			<path class="st1" d="M478.8,120.6c-8.9,0-16-3.1-21.3-9.3c-5.5-6.2-8.2-14.7-8.2-25.2c0-10.6,2.7-18.9,8.2-25.1
				c5.4-5.9,12.5-8.9,21.3-8.9c8.9,0,16,3,21.3,8.9c5.5,6.2,8.2,14.6,8.2,25.1c0,10.6-2.7,19-8.2,25.2
				C494.8,117.5,487.7,120.6,478.8,120.6z M478.8,109.2c4.9,0,8.8-2.1,11.7-6.2c2.9-4.2,4.4-9.8,4.4-16.9c0-7.1-1.4-12.6-4.3-16.6
				c-2.9-4-6.8-6-11.7-6c-4.9,0-8.8,2-11.7,6c-2.9,4-4.3,9.5-4.3,16.6c0,7,1.5,12.7,4.4,16.9C470,107.1,473.9,109.2,478.8,109.2z"/>
			<path class="st1" d="M527.9,119.4c-4.4,0-6.6-2.2-6.6-6.6V59.2c0-1.7,0.5-3.1,1.6-4.2s2.5-1.6,4.2-1.6h5.7h11.5
				c16.5,0,24.8,6.7,24.8,20c0,9.4-4.2,15.7-12.6,19l11.7,20.4c1.1,2,1.3,3.6,0.6,4.8s-2.2,1.8-4.5,1.8h-3c-1.2,0-2.4-0.3-3.5-1
				c-1.1-0.7-1.9-1.5-2.5-2.6l-11.6-21.4h-9.2v18.4C534.5,117.2,532.3,119.4,527.9,119.4z M534.5,84h8.6c8.7,0,13.1-3.5,13.1-10.6
				c0-3.4-1.1-5.9-3.4-7.5c-2.1-1.4-5.3-2.1-9.7-2.1h-8.6v10.1V84z"/>
			<path class="st1" d="M587.9,119.4c-1.7,0-3.1-0.5-4.2-1.6s-1.6-2.5-1.6-4.2V59.2c0-1.7,0.5-3.1,1.6-4.2s2.5-1.6,4.2-1.6h29.3
				c3.6,0,5.4,1.8,5.4,5.4c0,3.7-1.8,5.5-5.4,5.5h-21.9v15.3H613c3.7,0,5.5,1.8,5.5,5.5c0,3.7-1.8,5.5-5.5,5.5h-17.7v17.7h22.7
				c3.7,0,5.5,1.8,5.5,5.5c0,3.7-1.8,5.5-5.5,5.5h-15.3H587.9z"/>
		</g>
	</g>
</g>
</svg>
