<?xml version="1.0" encoding="utf-8"?>
<!-- Generator: Adobe Illustrator 27.0.0, SVG Export Plug-In . SVG Version: 6.00 Build 0)  -->
<svg version="1.1" id="圖層_1" xmlns="http://www.w3.org/2000/svg" xmlns:xlink="http://www.w3.org/1999/xlink" x="0px" y="0px"
	 viewBox="0 0 367 253.9" style="enable-background:new 0 0 367 253.9;" xml:space="preserve">
<style type="text/css">
	.st0{fill:#47CFB9;}
	.st1{fill:#FFFFFF;}
	.st2{fill:#FFFFF4;}
	.st3{fill:#2AA890;}
	.st4{fill:#FFFFFF;stroke:#FF86AA;stroke-width:3;stroke-miterlimit:10;}
	.st5{fill:#FF86AA;}
	.st6{fill:#4D4867;}
	.st7{fill:#FFFFFF;stroke:#BBAEF9;stroke-width:3;stroke-linecap:round;stroke-linejoin:round;stroke-miterlimit:10;}
	.st8{fill:#BBAEF9;stroke:#BBAEF9;stroke-width:3;stroke-linecap:round;stroke-linejoin:round;stroke-miterlimit:10;}
	.st9{fill:#BBAEF9;}
	.st10{fill:#F95D98;}
</style>
<g>
	<path class="st1" d="M183.5,233.4c-58.7,0-106.4-47.7-106.4-106.4S124.8,20.6,183.5,20.6S289.9,68.3,289.9,127
		S242.2,233.4,183.5,233.4z M183.5,46.9c-44.1,0-80,35.9-80,80s35.9,80,80,80s80-35.9,80-80S227.6,46.9,183.5,46.9z"/>
	<path class="st1" d="M170.1,179.6c-2.5,0-5.1-1-7-2.9c-3.9-3.9-3.9-10.1,0-14l33.4-33.4l-33.2-33.2c-3.9-3.9-3.9-10.1,0-14
		c3.9-3.9,10.1-3.9,14,0l40.2,40.2c3.9,3.9,3.9,10.1,0,14l-40.4,40.4C175.2,178.7,172.6,179.6,170.1,179.6z"/>
</g>
</svg>
