<?xml version="1.0" encoding="utf-8"?>
<!-- Generator: Adobe Illustrator 27.0.0, SVG Export Plug-In . SVG Version: 6.00 Build 0)  -->
<svg version="1.1" id="圖層_1" xmlns="http://www.w3.org/2000/svg" xmlns:xlink="http://www.w3.org/1999/xlink" x="0px" y="0px"
	 viewBox="0 0 259.1 253.9" style="enable-background:new 0 0 259.1 253.9;" xml:space="preserve">
<style type="text/css">
	.st0{fill:#FFFFFF;}
</style>
<g>
	<path class="st0" d="M3.1,127C3.1,57.2,59.8,0.5,129.6,0.5S256,57.2,256,127s-56.7,126.5-126.5,126.5S3.1,196.6,3.1,127z M34.5,127
		c0,52.4,42.7,95.1,95.1,95.1s95.1-42.7,95.1-95.1S182,31.9,129.6,31.9S34.5,74.4,34.5,127z"/>
	<path class="st0" d="M145.5,189.5c3,0,6.1-1.2,8.3-3.4c4.6-4.6,4.6-12,0-16.6l-39.7-39.7l39.5-39.5c4.6-4.6,4.6-12,0-16.6
		c-4.6-4.6-12-4.6-16.6,0l-47.8,47.8c-4.6,4.6-4.6,12,0,16.6l48,48C139.4,188.4,142.5,189.5,145.5,189.5z"/>
</g>
</svg>
