<?xml version="1.0" encoding="utf-8"?>
<!-- Generator: Adobe Illustrator 27.0.0, SVG Export Plug-In . SVG Version: 6.00 Build 0)  -->
<svg version="1.1" id="圖層_1" xmlns="http://www.w3.org/2000/svg" xmlns:xlink="http://www.w3.org/1999/xlink" x="0px" y="0px"
	 viewBox="0 0 227.6 123.1" style="enable-background:new 0 0 227.6 123.1;" xml:space="preserve">
<style type="text/css">
	.st0{fill:#FF86AA;}
	.st1{fill:#FFFFFF;}
</style>
<g>
	<rect x="2.6" y="3.2" class="st0" width="222.3" height="116.8"/>
	<g>
		<path class="st1" d="M64.3,77.1c0-3,1.5-5,4.4-6.2l15.9-5.4l14.7-5.3v-0.5l-14.7-5.3l-16-5.5c-2.9-0.9-4.3-2.9-4.3-6
			c0-4.8,2.2-6.3,6.7-4.6L109,53.3c1.4,0.5,2.6,1.4,3.4,2.6c0.8,1.2,1.3,2.6,1.3,4.1v0.4c0,1.4-0.4,2.7-1.2,3.9
			c-0.8,1.2-1.9,2-3.3,2.6l-20.3,7.8l-17.9,6.9C66.5,83.3,64.3,81.8,64.3,77.1z"/>
		<path class="st1" d="M120.9,77.1c0-3,1.5-5,4.4-6.2l15.9-5.4l14.7-5.3v-0.5l-14.7-5.3l-16-5.5c-2.9-0.9-4.3-2.9-4.3-6
			c0-4.8,2.2-6.3,6.7-4.6l38.1,14.7c1.4,0.5,2.6,1.4,3.4,2.6c0.8,1.2,1.3,2.6,1.3,4.1v0.4c0,1.4-0.4,2.7-1.2,3.9
			c-0.8,1.2-1.9,2-3.3,2.6l-20.3,7.8l-17.9,6.9C123.3,83.3,120.9,81.8,120.9,77.1z"/>
	</g>
</g>
</svg>
