<?xml version="1.0" encoding="utf-8"?>
<!-- Generator: Adobe Illustrator 27.0.0, SVG Export Plug-In . SVG Version: 6.00 Build 0)  -->
<svg version="1.1" id="圖層_1" xmlns="http://www.w3.org/2000/svg" xmlns:xlink="http://www.w3.org/1999/xlink" x="0px" y="0px"
	 viewBox="0 0 1000 123.3" style="enable-background:new 0 0 1000 123.3;" xml:space="preserve">
<style type="text/css">
	.st0{fill:#47CFB9;}
	.st1{fill:#FFFFFF;}
</style>
<g>
	<path class="st0" d="M940.2,119.5H59.9C28,119.5,2,93.4,2,61.6l0,0C2,29.7,28.1,3.8,59.9,3.8h880.2C972,3.8,998,29.8,998,61.6l0,0
		C998.1,93.4,972,119.5,940.2,119.5z"/>
	<g>
		<g>
			<path class="st1" d="M380.3,95.2c-4.1,0-6.1-2-6.1-6V33.9c0-1.7,0.5-3.2,1.6-4.3c1.1-1.1,2.5-1.6,4.3-1.6h4.4
				c1.4,0,2.6,0.4,3.8,1.2c1.1,0.8,1.9,1.8,2.3,3.2l9.9,27.1c0.7,1.9,1.6,4.9,2.9,8.9c0.5,1.8,1,3.2,1.2,4.1h0.4
				c0.4-1.3,1-3.4,1.9-6c0.9-3.2,1.6-5.5,2.1-7l9.7-27.1c0.4-1.3,1.2-2.3,2.3-3.2s2.4-1.2,3.8-1.2h2.9h4c1,0,1.8,0.3,2.5,0.9
				c0.6,0.6,0.9,1.4,0.9,2.5V89c0,4.1-2,6.1-6.1,6.1c-4.1,0-6.2-2-6.2-6.1V67.1c0-3.9,0.5-10.7,1.4-20.5c0.1-0.7,0.1-1.2,0.2-1.6
				H424l-5.5,15.8l-9,24.7c-0.4,1.1-1.1,1.9-2.1,2.6c-1,0.7-2,1-3.2,1h-0.3c-2.3,0-4-1.1-4.8-3.4l-9.2-24.9l-5.4-15.8h-0.4
				c0.1,0.7,0.2,1.7,0.4,3.2c0.9,9.1,1.3,15.3,1.3,18.9v22.1C386.3,93.2,384.2,95.2,380.3,95.2z"/>
			<path class="st1" d="M478.5,96.5c-9.1,0-16.3-3.2-21.7-9.5c-5.6-6.3-8.4-15-8.4-25.7c0-10.8,2.8-19.3,8.4-25.6
				c5.5-6,12.7-9.1,21.7-9.1c9.1,0,16.3,3.1,21.7,9.1c5.6,6.3,8.4,14.9,8.4,25.6c0,10.8-2.8,19.4-8.4,25.7
				C494.8,93.3,487.5,96.5,478.5,96.5z M478.5,84.9c5,0,9-2.1,11.9-6.3c3-4.3,4.5-10,4.5-17.2s-1.4-12.8-4.4-16.9s-6.9-6.1-11.9-6.1
				c-5,0-9,2-11.9,6.1c-3,4.1-4.4,9.7-4.4,16.9c0,7.1,1.5,12.9,4.5,17.2C469.5,82.7,473.5,84.9,478.5,84.9z"/>
			<path class="st1" d="M528.5,95.2c-4.5,0-6.7-2.2-6.7-6.7V33.9c0-1.7,0.5-3.2,1.6-4.3c1.1-1.1,2.5-1.6,4.3-1.6h5.8h11.7
				c16.8,0,25.3,6.8,25.3,20.4c0,9.6-4.3,16-12.8,19.4l11.9,20.8c1.1,2,1.3,3.7,0.6,4.9c-0.7,1.2-2.2,1.8-4.6,1.8h-3.1
				c-1.2,0-2.4-0.3-3.6-1c-1.1-0.7-1.9-1.5-2.5-2.6l-11.8-21.8h-9.4v18.7C535.2,93,533,95.2,528.5,95.2z M535.2,59.2h8.8
				c8.9,0,13.3-3.6,13.3-10.8c0-3.5-1.1-6-3.5-7.6c-2.1-1.4-5.4-2.1-9.9-2.1h-8.8v10.3L535.2,59.2L535.2,59.2z"/>
			<path class="st1" d="M589.6,95.2c-1.7,0-3.2-0.5-4.3-1.6c-1.1-1.1-1.6-2.5-1.6-4.3V33.9c0-1.7,0.5-3.2,1.6-4.3
				c1.1-1.1,2.5-1.6,4.3-1.6h29.8c3.7,0,5.5,1.8,5.5,5.5c0,3.8-1.8,5.6-5.5,5.6h-22.3v15.6h18c3.8,0,5.6,1.8,5.6,5.6
				s-1.8,5.6-5.6,5.6h-18v18h23.1c3.8,0,5.6,1.8,5.6,5.6c0,3.8-1.8,5.6-5.6,5.6h-15.6h-15.1V95.2z"/>
		</g>
	</g>
</g>
</svg>
