<?xml version="1.0" encoding="utf-8"?>
<!-- Generator: Adobe Illustrator 27.0.0, SVG Export Plug-In . SVG Version: 6.00 Build 0)  -->
<svg version="1.1" id="圖層_1" xmlns="http://www.w3.org/2000/svg" xmlns:xlink="http://www.w3.org/1999/xlink" x="0px" y="0px"
	 viewBox="0 0 216.9 178.9" style="enable-background:new 0 0 216.9 178.9;" xml:space="preserve">
<style type="text/css">
	.st0{fill:#4D4867;}
</style>
<g>
	<g>
		<path class="st0" d="M71.9,178.1c-23.6,0-46.7-6.8-66.6-19.6c-3.4-2.2-4.8-6.4-3.5-10.2c1.3-3.8,5.1-6.1,9.1-5.6
			c2.7,0.4,5.7,0.5,8.6,0.5c9.9,0,19.4-2,28.2-5.6c-11.2-5.9-20-15.9-24-28.4c-0.8-2.5-0.4-5.1,0.9-7.2C15,93,9.1,80.2,9.1,66.3
			c0-0.3,0-0.7,0-0.9c0.1-3,1.8-5.7,4.4-7.2c0.1-0.1,0.4-0.1,0.5-0.3c-3-6.4-4.6-13.4-4.6-20.7c0-8.6,2.3-17.2,6.7-24.7
			c1.4-2.5,3.9-4,6.8-4.3c2.9-0.3,5.6,0.9,7.3,3.1c16.8,20.6,40.8,34.2,66.9,38.1c0.3-26.9,22.2-48.7,49.1-48.7
			c11.7,0,23.2,4.3,32.1,12c6.5-1.7,12.8-4.3,18.7-7.8c3.1-1.8,6.9-1.6,9.8,0.7c2.7,2.2,3.9,6,2.9,9.4c-0.5,1.7-1.2,3.3-1.8,4.8
			c2.1,0.3,4.2,1.3,5.6,3c2.5,2.9,2.7,7.2,0.5,10.3c-5.1,7.7-11.4,14.5-18.7,20.4c0,0.4,0,0.7,0,1
			C195.5,115.2,149.2,178.1,71.9,178.1z M44,157.1c9,2.5,18.4,3.7,27.8,3.7c66.6,0,106.4-54,106.4-106.4c0-1.6,0-3.3-0.1-4.8
			c-0.1-2.6,0.9-5.1,2.9-6.8c-2.5-0.8-4.6-2.7-5.5-5.4c-0.8-2.2-0.5-4.7,0.5-6.7c-2.3,0.1-4.8-0.9-6.5-2.7c-6-6.4-14.5-10-23.2-10
			c-17.5,0-31.8,14.2-31.8,31.8c0,2.5,0.3,5,0.8,7.3c0.7,2.6,0,5.4-1.8,7.4c-1.7,2.1-4.3,3.3-7,3.1c-29.9-1.4-58.1-13.8-79.5-34.5
			c-0.1,1.3-0.3,2.6-0.3,3.9c0,10.7,5.4,20.6,14.1,26.5c3.3,2.1,4.6,6.1,3.4,9.8c-1.2,3.7-4.6,6.1-8.5,6c-2.3-0.1-4.6-0.3-6.9-0.7
			c4,9.4,12.4,16.6,23,18.7c3.9,0.8,6.8,4.2,6.9,8.2c0.1,4-2.5,7.6-6.4,8.6c-2,0.5-3.8,0.9-5.7,1.2c5.7,6.5,14.1,10.4,23.1,10.6
			c3.7,0.1,6.9,2.5,8,5.9c1.2,3.4,0,7.3-2.9,9.5C65.7,148.7,55.2,154,44,157.1z"/>
	</g>
</g>
</svg>
