<?xml version="1.0" encoding="utf-8"?>
<!-- Generator: Adobe Illustrator 27.0.0, SVG Export Plug-In . SVG Version: 6.00 Build 0)  -->
<svg version="1.1" id="圖層_1" xmlns="http://www.w3.org/2000/svg" xmlns:xlink="http://www.w3.org/1999/xlink" x="0px" y="0px"
	 viewBox="0 0 720.1 100.7" style="enable-background:new 0 0 720.1 100.7;" xml:space="preserve">
<style type="text/css">
	.st0{fill:#4D4867;}
	.st1{fill:#FF86AA;}
</style>
<g>
	<g>
		<path class="st0" d="M15.9,68.7c-3.9,0-5.7-1.9-5.7-5.7V16.9c0-3.9,1.9-5.7,5.7-5.7c3.9,0,5.7,1.9,5.7,5.7v16.9h21.8v-17
			c0-3.8,1.9-5.7,5.7-5.7s5.7,1.9,5.7,5.7v46.3c0,3.8-1.9,5.7-5.7,5.7c-3.9,0-5.7-1.9-5.7-5.7V43.8H32.6H21.8V63
			C21.6,66.8,19.7,68.7,15.9,68.7z"/>
		<path class="st0" d="M92,69.9c-7.8,0-13.9-2.7-18.6-8.1c-4.8-5.5-7.2-12.8-7.2-22.1s2.4-16.6,7.2-21.8c4.7-5.1,10.9-7.8,18.6-7.8
			s13.9,2.6,18.6,7.8c4.8,5.4,7.2,12.7,7.2,22s-2.4,16.6-7.2,22C105.9,67.1,99.7,69.9,92,69.9z M92,59.9c4.2,0,7.7-1.8,10.2-5.5
			c2.5-3.7,3.8-8.6,3.8-14.7s-1.3-11-3.8-14.5c-2.5-3.5-5.9-5.3-10.3-5.3c-4.3,0-7.8,1.7-10.3,5.3c-2.5,3.5-3.8,8.3-3.8,14.5
			s1.3,11.1,3.8,14.7C84.3,58.1,87.6,59.9,92,59.9z"/>
		<path class="st0" d="M143.9,68.7c-3.9,0-5.7-1.9-5.7-5.7V20.7h-11.4c-3.2,0-4.8-1.6-4.8-4.8s1.6-4.8,4.8-4.8H144h17.3
			c3.2,0,4.8,1.6,4.8,4.8c0,3.2-1.6,4.8-4.8,4.8h-11.7V63C149.6,66.8,147.8,68.7,143.9,68.7z"/>
	</g>
</g>
<g>
	<path class="st1" d="M10.1,90.4c224.1-1.7,475.7-1.7,699.8,0c0.9,0,1.6,0.7,1.6,1.6c0,0.9-0.7,1.6-1.6,1.6
		C517.2,95.1,290.5,95,97.6,94.2l-87.5-0.6c-0.9,0-1.6-0.7-1.6-1.6C8.5,91.1,9.3,90.4,10.1,90.4L10.1,90.4z"/>
</g>
<g>
	<g>
		<path class="st1" d="M181.5,62.5c-0.8-0.5-1.1-1-1.3-1.6s0.2-1.1,0.8-1.8c1.5-1.7,2.7-3.5,4-5.6c0.7-1.3,1.7-1.6,3-0.9
			c1.4,0.7,1.7,1.6,1,2.9c-0.5,0.8-1.3,2.1-2.3,3.5c-0.6,0.8-1.4,1.8-2.4,3.2c-0.5,0.5-0.9,0.8-1.4,0.8
			C182.6,63.1,182.1,63,181.5,62.5z M194.5,68.7c-1.5,0-2.9,0-4-0.1c-1.3-0.1-1.9-0.8-2.1-2.1c-0.1-0.8,0.1-1.5,0.6-1.8
			c0.5-0.3,1.1-0.5,2.1-0.3c0.3,0,0.7,0,1.1,0c0.5,0,0.8-0.1,0.9-0.3c0.1-0.2,0.3-0.6,0.3-1c0-0.9,0-5.7,0-14.4l0,0h-9.1
			c-0.3,0-0.6,0-0.9,0c-1.7,0.1-2.5-0.6-2.5-2.3c0-1.6,0.8-2.3,2.5-2.2c0.2,0,0.6,0,0.9,0h4.6h4.6v-2.7c0-0.1,0-0.1,0-0.2
			c-0.1-1,0-1.7,0.3-2.2c0.3-0.5,1-0.7,1.9-0.7c0.9,0,1.6,0.2,2.1,0.8c0.3,0.5,0.5,1.3,0.3,2.3v0.1v2.9h8.3c0.5,0,0.7,0,0.9,0
			c1.7-0.1,2.6,0.6,2.6,2.2c0,1.5-0.8,2.3-2.5,2.2c-0.3,0-0.7,0-1,0h-8.3v16.7C198.2,67.6,197,68.7,194.5,68.7z M206.4,61.4
			c-0.6-0.9-1.1-1.9-1.8-3.1c-0.6-1-1.1-1.9-1.7-2.7c-0.5-0.7-0.6-1.1-0.5-1.7c0.1-0.5,0.6-0.9,1.4-1.3c0.6-0.3,1.1-0.5,1.5-0.5
			c0.5,0,0.8,0.3,1.3,0.8c1.4,1.8,2.7,3.9,4.1,6.2c0.3,0.7,0.5,1.3,0.3,1.7c-0.1,0.5-0.6,0.9-1.4,1.3
			C208.1,63,207.1,62.8,206.4,61.4z"/>
		<path class="st1" d="M219.3,56.7c-0.5-0.1-0.8-0.6-1-1.4c-0.1-0.5-0.5-1.3-0.8-2.3c-0.2-0.7-0.5-1.4-0.8-1.9
			c-0.3-0.7-0.5-1.4-0.2-1.8c0.2-0.5,0.8-0.8,1.6-1c0.7-0.2,1.3-0.3,1.6-0.2c0.5,0.1,0.8,0.5,1,1.1c0.5,1.1,1.1,2.6,1.9,4.7
			c0.2,0.7,0.2,1.3,0,1.7c-0.2,0.3-0.7,0.7-1.4,1C220.4,56.8,219.8,56.9,219.3,56.7z M222.4,68.9c-0.8-0.8-1.1-1.6-1.1-2.2
			c0.1-0.6,0.7-1,1.8-1.5c3.8-1.6,6.6-3.8,8.8-6.4c1.8-2.4,3.2-5.4,4.1-9.1c0.3-2.1,1.4-2.9,3.2-2.3c1.6,0.5,2.1,1.6,1.6,3.3l0,0
			v0.1c-1.1,4.2-2.7,7.8-4.9,10.5c-1.6,2.1-3.5,3.9-5.7,5.5c-1.6,1.1-3.1,2.1-4.6,2.7C224.4,70.1,223.3,69.9,222.4,68.9z
			 M227.3,54.4c-0.5-0.2-0.8-0.7-1-1.5c-0.1-0.3-0.3-1-0.6-1.8c-0.1-0.2-0.2-0.5-0.3-0.9s-0.3-0.9-0.5-1.1c-0.3-0.7-0.3-1.3-0.1-1.7
			c0.2-0.5,0.7-0.8,1.5-1c0.7-0.2,1.3-0.3,1.6-0.2c0.5,0.1,0.8,0.5,1,1.1c0,0.1,0.1,0.3,0.2,0.6c0.7,1.8,1.1,3.1,1.5,3.9
			c0.2,0.7,0.2,1.3,0,1.6c-0.2,0.3-0.7,0.7-1.4,0.9C228.4,54.5,227.8,54.5,227.3,54.4z"/>
		<path class="st1" d="M253.3,68.6c-0.8,0-1.4-0.2-1.8-0.7c-0.5-0.5-0.6-1.1-0.6-1.8c0.1-0.8,0.1-1.6,0.1-2.4V43.1
			c0-0.7,0-1.5-0.1-2.3c-0.1-0.6,0-1.1,0.3-1.5c0.3-0.3,0.8-0.6,1.4-0.6h0.7h1.5c0.3,0,0.7,0.1,0.9,0.3c0.2,0.2,0.3,0.5,0.2,0.8
			c-0.1,1.1-0.2,2.2-0.2,3.2v5.1c4.7,1.4,9,3,13.1,4.7c0.7,0.3,1.1,0.8,1.3,1.3s0,1.1-0.5,1.9c-0.7,1.7-1.8,2.2-3.4,1.4
			c-3.1-1.4-6.5-2.9-10.5-4.2v10.2c0,0.7,0,1.5,0.1,2.4c0.1,0.8-0.1,1.4-0.5,1.8c-0.3,0.5-0.9,0.7-1.7,0.7h-0.3V68.6z"/>
	</g>
</g>
</svg>
