<?xml version="1.0" encoding="utf-8"?>
<!-- Generator: Adobe Illustrator 27.0.0, SVG Export Plug-In . SVG Version: 6.00 Build 0)  -->
<svg version="1.1" id="圖層_1" xmlns="http://www.w3.org/2000/svg" xmlns:xlink="http://www.w3.org/1999/xlink" x="0px" y="0px"
	 viewBox="0 0 124.6 123.1" style="enable-background:new 0 0 124.6 123.1;" xml:space="preserve">
<style type="text/css">
	.st0{fill:#FF86AA;}
	.st1{fill:#FFFFFF;}
</style>
<g>
	<rect x="2.8" y="2.1" class="st0" width="119" height="119"/>
	<g>
		<path class="st1" d="M37.2,78.9c0-3.1,1.5-5.1,4.5-6.3l16.2-5.5l15-5.4v-0.5l-15-5.4l-16.3-5.6c-3-1-4.4-3-4.4-6.1
			c0-4.9,2.3-6.4,6.8-4.6l38.8,15c1.4,0.5,2.6,1.4,3.5,2.6c0.8,1.2,1.3,2.6,1.3,4.2v0.4c0,1.4-0.4,2.7-1.2,3.9
			c-0.8,1.2-1.9,2-3.3,2.6l-20.7,8.1l-18.2,7C39.5,85.2,37.2,83.7,37.2,78.9z"/>
	</g>
</g>
</svg>
