<?xml version="1.0" encoding="utf-8"?>
<!-- Generator: Adobe Illustrator 27.0.0, SVG Export Plug-In . SVG Version: 6.00 Build 0)  -->
<svg version="1.1" id="圖層_1" xmlns="http://www.w3.org/2000/svg" xmlns:xlink="http://www.w3.org/1999/xlink" x="0px" y="0px"
	 viewBox="0 0 387.6 174.7" style="enable-background:new 0 0 387.6 174.7;" xml:space="preserve">
<style type="text/css">
	.st0{fill:#FF86AA;}
	.st1{fill:#FFFFFF;}
	.st2{fill:#4D4867;}
</style>
<g>
	<polygon class="st0" points="193.8,1.1 0.3,46.9 0.3,71.8 0.3,102.9 0.3,127.8 193.8,173.6 387.3,127.8 387.3,102.9 387.3,71.8 
		387.3,46.9 	"/>
	<g>
		<path class="st1" d="M91.6,99.8c-3.7,0-5.5-1.9-5.5-5.5V53.7h-11c-3.1,0-4.6-1.5-4.6-4.6c0-3.1,1.5-4.6,4.6-4.6h16.6h16.6
			c3.1,0,4.6,1.5,4.6,4.6c0,3.1-1.5,4.6-4.6,4.6H97.1v40.6C97.1,97.9,95.2,99.8,91.6,99.8z"/>
		<path class="st1" d="M127.3,99.8c-3.7,0-5.5-1.9-5.5-5.5V49.3c0-1.4,0.4-2.6,1.3-3.5c0.9-0.9,2.1-1.3,3.5-1.3h4.8h9.6
			c13.8,0,20.7,5.6,20.7,16.8c0,7.9-3.5,13.2-10.5,15.9l9.8,17.1c1,1.6,1.1,3,0.5,3.9s-1.9,1.5-3.7,1.5h-2.5c-1.1,0-2.1-0.2-3-0.8
			c-0.9-0.5-1.6-1.3-2.1-2.2l-9.8-18h-7.7v15.3C132.8,97.9,131,99.8,127.3,99.8z M132.8,70.2h7.1c7.3,0,11-3,11-8.9
			c0-2.9-1-4.9-2.9-6.2c-1.8-1.1-4.5-1.8-8.1-1.8h-7.1v8.4V70.2z"/>
		<path class="st1" d="M177.6,99.8c-1.4,0-2.6-0.4-3.5-1.3c-0.9-0.9-1.3-2.1-1.3-3.5V49.3c0-1.4,0.4-2.6,1.3-3.5
			c0.9-0.9,2.1-1.3,3.5-1.3H202c3.1,0,4.6,1.5,4.6,4.6c0,3.1-1.5,4.6-4.6,4.6h-18.3v12.7h14.8c3.1,0,4.6,1.5,4.6,4.6
			c0,3.1-1.5,4.6-4.6,4.6h-14.8v14.8h19.1c3.1,0,4.6,1.5,4.6,4.6c0,3.1-1.5,4.6-4.6,4.6h-12.7h-12.5V99.8z"/>
		<path class="st1" d="M223.8,99.8c-3.5,0-5.3-1.8-5.3-5.3V49.3c0-1.4,0.4-2.6,1.3-3.5c0.9-0.9,2.1-1.3,3.5-1.3h0.8h3.1
			c1.8,0,3.1,0.8,3.8,2.3l14.8,27.1l5.5,11.9h0.3c0-0.3-0.1-0.8-0.1-1.3c-0.9-8.1-1.3-14.1-1.3-18V49.8c0-3.5,1.8-5.3,5.3-5.3
			c3.5,0,5.3,1.8,5.3,5.3v44.4c0,1.8-0.7,3.2-2,4.2c-1.2,1-2.7,1.4-4.7,1.4c-1.3,0-2.5-0.2-3.6-0.8c-1.2-0.5-2.2-1.4-2.7-2.5
			l-14.1-26.2L228,58.4h-0.3c0,0.9,0.2,2.2,0.3,3.9c0.7,6.9,1,11.9,1,15.3v17C229.1,98,227.3,99.8,223.8,99.8z"/>
		<path class="st1" d="M278.2,99.8c-1.1,0-2-0.3-2.6-1c-0.7-0.7-1-1.5-1-2.6V49.3c0-1.4,0.4-2.6,1.3-3.5c0.9-0.9,2.1-1.3,3.5-1.3
			h10.3c8.7,0,15.3,2.2,20.1,6.7c4.9,4.7,7.3,11.6,7.3,20.7s-2.4,16.1-7.2,20.9c-4.7,4.6-11.2,6.9-19.5,6.9h-7.9
			C282.5,99.8,278.2,99.8,278.2,99.8z M285.7,90.9h3.4c11.2,0,16.8-6.4,16.8-19c0-12.4-5.6-18.6-16.8-18.6h-3.4v18.9V90.9z"/>
	</g>
	<g>
		<g>
			<path class="st2" d="M139.4,145.4c-0.8,0-1.3-0.2-1.8-0.7c-0.4-0.4-0.5-1.1-0.5-1.8c0.1-0.8,0.1-1.5,0.1-2.3v-19.7
				c0-0.7,0-1.4-0.1-2.2c-0.1-0.5,0-1.1,0.3-1.4s0.8-0.5,1.3-0.5h0.7h1.4c0.3,0,0.7,0.1,0.9,0.3c0.2,0.2,0.3,0.4,0.2,0.8
				c-0.1,1.1-0.2,2.1-0.2,3.1v5c4.5,1.3,8.7,2.9,12.6,4.5c0.7,0.3,1.1,0.8,1.2,1.2c0.1,0.4,0,1.1-0.4,1.9c-0.7,1.6-1.8,2.1-3.3,1.3
				c-3-1.3-6.2-2.7-10.1-4.1v9.8c0,0.7,0,1.4,0.1,2.3c0.1,0.8-0.1,1.3-0.4,1.8c-0.3,0.4-0.9,0.7-1.6,0.7h-0.3V145.4z"/>
			<path class="st2" d="M166.9,144.6l-1-0.9c-0.4-0.3-0.8-0.9-0.9-1.4c-0.1-0.5-0.2-1.2-0.1-1.8c0-0.1,0-0.2,0-0.3v-18.6
				c0-0.8,0-1.5-0.1-2.2c-0.1-0.4,0-0.9,0.3-1.2c0.3-0.3,0.8-0.4,1.3-0.4h0.9h1.4c0.3,0,0.7,0.1,0.9,0.3c0.2,0.2,0.2,0.5,0.2,0.9
				c-0.1,1-0.2,1.9-0.2,2.6v17.9c2.5-0.8,5.3-1.9,8-3.5c3-1.8,5.6-3.6,7.8-5.8c1.3-1.4,2.4-1.3,3.4,0.3c0.7,1,0.5,2-0.2,2.9
				c-4.5,4.7-10.7,8.4-18.9,11.1c-0.1,0-0.2,0.1-0.4,0.2c-0.2,0.1-0.4,0.1-0.5,0.2C168,145.1,167.5,145,166.9,144.6z"/>
			<path class="st2" d="M195.4,143.7l-0.5-0.9c-0.4-0.7-0.5-1.2-0.2-1.8c0.2-0.4,0.9-0.8,1.8-1c3.8-0.9,7.3-2.2,10.3-4.1
				c2.4-1.4,4.7-3.2,6.7-5.3c1.9-1.9,3.5-3.9,4.7-6c0.3-0.5,0.7-0.9,1.1-0.9s0.9,0.4,1.2,1.1v0.1l0.8,1.3c0.4,0.8,0.4,1.4,0,2.1
				c-1.4,2.2-3.1,4.4-5.2,6.4c-2.1,2.1-4.5,3.8-7,5.4c-3.6,2.2-7.2,3.6-11,4.5C197,145,196,144.7,195.4,143.7z M201.6,127.1
				c-1.4-1.3-3.1-2.9-5.2-4.5c-1.3-1-1.3-2.1-0.1-3.3c0.4-0.5,1-0.9,1.4-1c0.4-0.1,1,0.1,1.5,0.4c1.1,0.8,2.1,1.6,3.1,2.4
				c0.9,0.7,1.8,1.4,2.7,2.3c0.5,0.5,0.8,1.1,0.8,1.6c0,0.4-0.3,1.1-0.9,1.6c-0.7,0.7-1.2,1-1.6,1.1
				C202.7,127.9,202.1,127.6,201.6,127.1z"/>
			<path class="st2" d="M230.4,145.9c-0.3,0-0.7-0.1-0.9-0.3c-0.2-0.2-0.3-0.5-0.2-0.9c0.1-1.2,0.2-2.4,0.2-3.6v-19.8
				c0-0.7,0-1.4-0.1-2.2c-0.1-0.7,0-1.1,0.3-1.4c0.3-0.3,0.8-0.5,1.3-0.5h1c0.8,0,1.3,0.2,1.6,0.7c0.3,0.4,0.5,1,0.4,1.8
				c0,0.8-0.1,1.4-0.1,1.8v5c4.6,1.4,8.8,2.9,12.6,4.6c0.7,0.3,1.1,0.7,1.2,1.2c0.1,0.4,0,1.1-0.3,1.9c-0.7,1.6-1.8,2.2-3.4,1.3
				c-2.9-1.3-6.2-2.6-10.1-3.9v9.8c0,0.7,0,1.4,0.1,2.3c0.1,0.8-0.1,1.3-0.4,1.8c-0.3,0.4-0.9,0.7-1.5,0.7h-0.4h-1.3V145.9z
				 M244.9,124.1c-1,0.4-1.8,0.1-2.2-0.9c-0.1-0.1-0.2-0.4-0.4-0.8c-0.1-0.2-0.2-0.4-0.3-0.5c-0.1-0.1-0.2-0.3-0.3-0.5
				s-0.2-0.4-0.3-0.5c-0.7-1-0.4-1.8,0.5-2.2c0.9-0.3,1.5-0.2,2,0.5c0.8,1.1,1.3,2,1.8,2.7C246.1,123,245.9,123.7,244.9,124.1z
				 M249.5,122.1c-1,0.4-1.6,0.2-2.2-0.8c-0.3-0.5-0.5-1-0.8-1.3c-0.1-0.1-0.2-0.3-0.3-0.4c-0.1-0.2-0.2-0.3-0.3-0.4
				c-0.7-1-0.4-1.8,0.5-2.2c0.8-0.4,1.4-0.2,2,0.4c0,0.1,0.1,0.1,0.2,0.3c0.8,1.1,1.3,2,1.5,2.4C250.7,121,250.5,121.7,249.5,122.1z
				"/>
		</g>
	</g>
</g>
</svg>
