<?xml version="1.0" encoding="utf-8"?>
<!-- Generator: Adobe Illustrator 27.0.0, SVG Export Plug-In . SVG Version: 6.00 Build 0)  -->
<svg version="1.1" id="圖層_1" xmlns="http://www.w3.org/2000/svg" xmlns:xlink="http://www.w3.org/1999/xlink" x="0px" y="0px"
	 viewBox="0 0 172.4 154.8" style="enable-background:new 0 0 172.4 154.8;" xml:space="preserve">
<style type="text/css">
	.st0{fill:#47CFB9;}
</style>
<path class="st0" d="M159.6,78.2L88,6.6c-0.4-0.4-0.9-0.8-1.5-0.9L16.2,3.2c-2.6-0.6-4.9,1.7-4.2,4.2l2.6,70.3
	c0.1,0.6,0.5,1.2,0.9,1.5L87,150.8c1.3,1.3,3.5,1.3,4.9,0L159.6,83C160.9,81.6,160.9,79.5,159.6,78.2z M38.8,47
	c-4.7-4.7-4.7-12.5,0-17.3s12.5-4.7,17.3,0s4.7,12.5,0,17.3C51.2,51.9,43.5,51.9,38.8,47z"/>
</svg>
