<?xml version="1.0" encoding="utf-8"?>
<!-- Generator: Adobe Illustrator 27.0.0, SVG Export Plug-In . SVG Version: 6.00 Build 0)  -->
<svg version="1.1" id="圖層_1" xmlns="http://www.w3.org/2000/svg" xmlns:xlink="http://www.w3.org/1999/xlink" x="0px" y="0px"
	 viewBox="0 0 475 94.8" style="enable-background:new 0 0 475 94.8;" xml:space="preserve">
<style type="text/css">
	.st0{fill:#4D4867;}
	.st1{fill:#FF86AA;}
</style>
<g>
	<g>
		<g>
			<path class="st0" d="M175.2,42.4c-2.2,0-3.3-1.1-3.3-3.3V10.4c0-0.9,0.3-1.7,0.9-2.2s1.3-0.9,2.2-0.9h0.5h1.9
				c1.1,0,2,0.5,2.5,1.5l9.4,17.2l3.5,7.6h0.2c0-0.2-0.1-0.5-0.1-0.9c-0.5-5.2-0.8-9-0.8-11.4V10.7c0-2.2,1.1-3.3,3.3-3.3
				s3.3,1.1,3.3,3.3v28.2c0,1.1-0.4,2-1.2,2.7c-0.8,0.6-1.8,0.9-3,0.9c-0.9,0-1.6-0.2-2.3-0.5c-0.8-0.4-1.4-0.9-1.8-1.6l-9-16.6
				l-3.6-7.5h-0.2c0,0.5,0.1,1.4,0.2,2.5c0.4,4.4,0.6,7.6,0.6,9.7v10.6C178.5,41.3,177.4,42.4,175.2,42.4z"/>
			<path class="st0" d="M210.5,42.4c-0.9,0-1.7-0.3-2.2-0.9s-0.9-1.3-0.9-2.2V10.4c0-0.9,0.3-1.7,0.9-2.2s1.3-0.9,2.2-0.9H226
				c1.9,0,2.9,1,2.9,2.9c0,2-1,2.9-2.9,2.9h-11.6v8.1h9.4c2,0,2.9,1,2.9,2.9c0,2-1,2.9-2.9,2.9h-9.4v9.4h12.1c2,0,2.9,1,2.9,2.9
				s-1,2.9-2.9,2.9h-8.1h-7.9V42.4z"/>
			<path class="st0" d="M242.5,42.4c-0.8,0-1.5-0.2-2.1-0.7s-1-1.1-1.1-1.9l-5.6-29c-0.2-1-0.1-1.9,0.4-2.5s1.3-0.9,2.3-0.9h0.9
				c0.9,0,1.6,0.3,2.2,0.8c0.6,0.5,1,1.2,1.1,2l2.3,14.4c0.2,1.1,0.4,2.8,0.8,5.1c0.4,2.7,0.7,4.7,0.9,6.1h0.2
				c0.7-3.6,1.4-7.3,2.2-11.2l3.5-14.6c0.2-0.8,0.6-1.4,1.3-1.8c0.6-0.4,1.4-0.6,2.3-0.6c0.9,0,1.6,0.2,2.3,0.6
				c0.7,0.4,1.1,1.1,1.3,1.8l3.5,14.6c0.3,1.5,0.8,3.9,1.4,7.1c0.3,1.8,0.6,3.2,0.8,4.1h0.2c0.6-4.2,1.1-7.9,1.6-11.2l2.3-14.2
				c0.3-2,1.5-2.9,3.5-2.9c2.4,0,3.4,1.2,3,3.6l-5.3,28.8c-0.2,0.8-0.5,1.5-1.1,2s-1.3,0.7-2.1,0.7h-1.6h-2.3
				c-0.6,0-1.1-0.2-1.6-0.5c-0.5-0.4-0.8-0.8-0.9-1.4l-3.6-15.6c-0.6-3.1-1.1-5.8-1.5-8.1h-0.2c0,0.2-0.1,0.4-0.1,0.7
				c-0.6,3.3-1,5.7-1.4,7.4L249,39.8c-0.2,0.8-0.5,1.5-1.1,1.9c-0.6,0.5-1.3,0.7-2.1,0.7C245.8,42.4,242.5,42.4,242.5,42.4z"/>
			<path class="st0" d="M290.2,43.1c-3.8,0-7.2-1.1-10.4-3.2c-1.6-1.3-1.7-2.7-0.4-4.3c1.4-1.7,3-1.8,4.8-0.5
				c2.1,1.2,4.2,1.8,6.2,1.8c1.8,0,3.2-0.4,4.1-1.1c1-0.7,1.4-1.7,1.4-3c0-1.1-0.5-2.1-1.4-2.8c-0.6-0.4-1.8-1-3.6-1.8
				c-0.2-0.1-0.3-0.1-0.3-0.1l-4.7-2c-4.7-2-7.1-5.1-7.1-9.4c0-2.9,1.1-5.3,3.4-7.2s5.2-2.9,8.7-2.9c3.3,0,6.3,0.9,9,2.8
				c1.3,1.1,1.4,2.4,0.3,3.8c-1.3,1.5-2.7,1.8-4.3,0.7c-1.5-0.8-3.2-1.2-5-1.2c-1.5,0-2.8,0.3-3.7,1c-0.9,0.7-1.4,1.6-1.4,2.7
				c0,1.1,0.5,2,1.5,2.7c0.6,0.5,1.8,1.1,3.6,1.8c0.2,0.1,0.3,0.1,0.3,0.1l4.6,1.9c2.3,0.9,4,2.1,5.1,3.5c1.3,1.6,1.9,3.6,1.9,6
				c0,3-1.1,5.4-3.4,7.4C297.3,42,294.1,43.1,290.2,43.1z"/>
		</g>
	</g>
	<path class="st1" d="M13,53.3c143.8-1.5,305.2-1.5,449,0c0.8,0,1.4,0.6,1.4,1.4s-0.6,1.4-1.4,1.4c-123.6,1.4-269.1,1.3-392.9,0.5
		L13,56.1c-0.8,0-1.4-0.6-1.4-1.4C11.6,53.9,12.2,53.3,13,53.3L13,53.3z"/>
	<g>
		<g>
			<path class="st1" d="M204.9,87.5c-0.3,0-0.5,0-0.8,0h-9h-9c-0.6,0-1.1,0-1.4,0c-1.7,0.1-2.6-0.6-2.6-2.2s0.8-2.3,2.5-2.2
				c0.2,0,0.4,0,0.7,0s0.5,0,0.7,0h18c0.4,0,0.7,0,0.9,0c0.9-0.1,1.5,0.1,2,0.4c0.4,0.3,0.6,0.9,0.6,1.8
				C207.5,86.9,206.6,87.6,204.9,87.5z M202.6,72c-0.3,0-0.7,0-1.2,0h-13c-0.6,0-1,0-1.3,0c-1.6,0.1-2.3-0.7-2.3-2.1
				c0-1.6,0.8-2.3,2.4-2.2c0.3,0,0.7,0,1.2,0h6.5h6.5c0.5,0,0.9,0,1.2,0c1.6-0.1,2.3,0.7,2.3,2.2C204.9,71.3,204.2,72,202.6,72z"/>
			<path class="st1" d="M233,89.2c-0.3,0-0.6,0-0.9,0h-8.3h-8.3c-0.3,0-0.7,0-1,0c-1.4,0.1-2.1-0.6-2.1-1.9c0-0.7,0.2-1.2,0.5-1.5
				s0.9-0.4,1.6-0.4c0.3,0,0.6,0,1,0h10.2c0.7-4.3,1.1-7.3,1.2-8.9h-8.5c-0.4,0-0.8,0-1,0c-1.4,0.1-2.1-0.6-2.1-1.9
				c0-1.4,0.8-2.1,2.3-2c0.2,0,0.5,0,0.8,0h8c0.4,0,0.9,0,1.4-0.1c0.6-0.2,1.3-0.1,1.9,0.2l0.9,0.5c0.3,0.1,0.6,0.4,0.7,0.7
				s0.2,0.7,0.1,1.1c0,0,0,0,0,0.1c-0.2,1.8-0.7,5.2-1.5,10.2h2c0.3,0,0.6,0,0.9,0c1.5-0.1,2.2,0.5,2.2,2
				C235.1,88.7,234.4,89.3,233,89.2z"/>
			<path class="st1" d="M240.1,78.6c-0.4-0.4-0.6-0.9-0.6-1.6v-0.6c0-0.6,0.2-1.2,0.6-1.5c0.4-0.4,0.8-0.6,1.4-0.5
				c1.3,0,2.3,0.1,3.1,0.1h16.9c0.6,0,1.3,0,2.2-0.1c0.4,0,0.8,0.1,1,0.4c0.3,0.3,0.4,0.7,0.4,1.2v1.1c0,0.6-0.2,1.1-0.5,1.5
				c-0.4,0.4-0.8,0.5-1.4,0.5c-0.8,0-1.3-0.1-1.7-0.1H253h-8.4c-0.8,0-1.8,0-3.1,0.1C240.9,79.2,240.4,79,240.1,78.6z"/>
			<path class="st1" d="M268.9,88.8c-1.3-1.4-1-2.5,0.8-3.3c1.9-1,3.8-2.2,5.6-3.7c1.7-1.3,3.1-2.7,4.4-4.1c1-1.2,2-2.5,2.9-3.9
				s1.5-2.7,1.8-3.8h-10.6c-0.4,0-0.9,0-1.6,0.1s-1.3-0.1-1.6-0.4s-0.5-0.9-0.5-1.6c0-1.5,0.8-2.2,2.5-2.1c0.3,0,0.7,0,1.2,0h5.5
				h5.5c0.8,0,1.5-0.1,2.2-0.2c0.3-0.1,0.7-0.1,1.1,0s0.8,0.3,1.1,0.5l0.3,0.2c0.4,0.3,0.6,0.6,0.7,1s0,0.8-0.2,1.2
				c0,0.1-0.1,0.3-0.3,0.5c0,0.1,0,0.1-0.1,0.2c-1.4,3.2-3,6.1-4.9,8.7c2.6,2.3,5.1,4.8,7.6,7.6c0.5,0.6,0.7,1.1,0.5,1.5
				c-0.1,0.4-0.4,0.8-1.1,1.4c-0.6,0.6-1.2,0.8-1.7,0.8s-1-0.4-1.5-1c-1.8-2.3-4-4.6-6.5-7.1c-3.2,3.3-6.6,6-10.2,8
				C270.7,89.9,269.8,89.7,268.9,88.8z"/>
		</g>
	</g>
</g>
</svg>
