<?xml version="1.0" encoding="utf-8"?>
<!-- Generator: Adobe Illustrator 27.0.0, SVG Export Plug-In . SVG Version: 6.00 Build 0)  -->
<svg version="1.1" id="圖層_1" xmlns="http://www.w3.org/2000/svg" xmlns:xlink="http://www.w3.org/1999/xlink" x="0px" y="0px"
	 viewBox="0 0 216.9 195.9" style="enable-background:new 0 0 216.9 195.9;" xml:space="preserve">
<style type="text/css">
	.st0{fill:#4D4867;}
</style>
<g>
	<g>
		<path class="st0" d="M108.5,18.2c25.9,0,29,0.1,39.2,0.6c9.5,0.4,14.6,2,18,3.4c4.5,1.7,7.8,3.8,11.2,7.2
			c3.4,3.4,5.5,6.7,7.2,11.2c1.3,3.4,3,8.5,3.4,18c0.4,10.2,0.6,13.3,0.6,39.2s-0.1,29-0.6,39.2c-0.4,9.5-2,14.6-3.4,18
			c-1.7,4.5-3.8,7.8-7.2,11.2c-3.4,3.4-6.7,5.5-11.2,7.2c-3.4,1.3-8.5,3-18,3.4c-10.2,0.4-13.3,0.6-39.2,0.6s-29-0.1-39.2-0.6
			c-9.5-0.4-14.6-2-18-3.4c-4.5-1.7-7.8-3.8-11.2-7.2c-3.4-3.4-5.5-6.7-7.2-11.2c-1.3-3.4-3-8.5-3.4-18c-0.4-10.2-0.6-13.3-0.6-39.2
			s0.1-29,0.6-39.2c0.4-9.5,2-14.6,3.4-18c1.7-4.5,3.8-7.8,7.2-11.2c3.4-3.4,6.7-5.5,11.2-7.2c3.4-1.3,8.5-3,18-3.4
			C79.4,18.4,82.4,18.2,108.5,18.2 M108.5,0.6c-26.3,0-29.7,0.1-40.1,0.6S50.9,3.3,44.7,5.7C38.3,8.3,33,11.6,27.4,16.9
			c-5.4,5.4-8.8,10.8-11.2,17.3c-2.4,6.2-4.1,13.3-4.5,23.7c-0.4,10.3-0.6,13.7-0.6,40.1s0.1,29.7,0.6,40.1
			c0.4,10.3,2.1,17.4,4.5,23.7c2.5,6.4,5.8,11.8,11.2,17.3c5.4,5.4,10.8,8.8,17.3,11.2c6.2,2.4,13.3,4.1,23.7,4.5s13.7,0.6,40.1,0.6
			s29.7-0.1,40.1-0.6c10.3-0.4,17.4-2.1,23.7-4.5c6.4-2.5,11.8-5.8,17.3-11.2c5.4-5.4,8.8-10.8,11.2-17.3c2.4-6.2,4.1-13.3,4.5-23.7
			c0.4-10.3,0.6-13.7,0.6-40.1s-0.1-29.7-0.6-40.1c-0.4-10.3-2.1-17.4-4.5-23.7c-2.5-6.4-5.8-11.8-11.2-17.3
			c-5.4-5.4-10.8-8.8-17.3-11.2c-6.2-2.4-13.3-4.1-23.7-4.5C138.1,0.8,134.8,0.6,108.5,0.6L108.5,0.6z"/>
		<path class="st0" d="M108.5,48c-27.6,0-49.9,22.4-49.9,49.9s22.4,49.9,49.9,49.9c27.6,0,49.9-22.4,49.9-49.9S135.9,48,108.5,48z
			 M108.5,130.2c-17.8,0-32.4-14.4-32.4-32.4s14.4-32.4,32.4-32.4s32.4,14.4,32.4,32.4S126.3,130.2,108.5,130.2z"/>
		<circle class="st0" cx="160.3" cy="46" r="11.6"/>
	</g>
</g>
</svg>
