<?xml version="1.0" encoding="utf-8"?>
<!-- Generator: Adobe Illustrator 27.0.0, SVG Export Plug-In . SVG Version: 6.00 Build 0)  -->
<svg version="1.1" id="圖層_1" xmlns="http://www.w3.org/2000/svg" xmlns:xlink="http://www.w3.org/1999/xlink" x="0px" y="0px"
	 viewBox="0 0 317.4 117.6" style="enable-background:new 0 0 317.4 117.6;" xml:space="preserve">
<style type="text/css">
	.st0{fill:#47CFB9;}
	.st1{fill:#FFFFFF;}
</style>
<g>
	<path class="st0" d="M258.8,115.4H58.6C27.4,115.4,2,89.9,2,58.8l0,0C2,27.6,27.5,2.2,58.6,2.2h200.2c31.2,0,56.6,25.5,56.6,56.6
		l0,0C315.4,89.9,289.9,115.4,258.8,115.4z"/>
	<g>
		<path class="st1" d="M125,86.8c-3.7,0-5.7-1.8-5.7-5.6V41.8l-6.6,3.5c-2.4,1.4-4.4,0.8-5.9-1.6c-1.6-2.5-1.1-4.5,1.5-6l12.1-7.1
			c1.1-0.7,2.3-1,3.6-1h2.5c1.1,0,2.2,0.3,2.8,1.1c0.7,0.7,1.1,1.7,1.1,2.8v24.7v23C130.5,85,128.7,86.8,125,86.8z"/>
		<path class="st1" d="M163.1,88c-4.4,0-8.7-1.2-13-3.7c-2.3-1.6-2.6-3.5-0.9-5.8c0.9-1.1,1.9-1.8,3.2-2c1.2-0.1,2.4,0.2,3.6,1
			c2.5,1.4,5,2,7.5,2c4.2,0,6.2-1.5,6.2-4.5c0-1.4-0.8-2.5-2.5-3.5c-1-0.7-2.8-1.5-5.6-2.5c-0.5-0.1-0.8-0.2-1-0.3
			c-3.5-1.4-6.1-2.8-7.9-4.4c-2.6-2.3-3.9-5-3.9-8.2c0-4,1.5-7.1,4.4-9.5c2.9-2.5,6.8-3.7,11.7-3.7c4,0,7.8,1,11.6,3.2
			c2.3,1.5,2.5,3.3,0.7,5.7c-1.7,2.3-3.7,2.7-6.4,1.1c-2-0.9-3.9-1.4-5.6-1.4c-1.8,0-3.3,0.3-4.3,1.1c-0.9,0.7-1.4,1.7-1.4,3.1
			c0,1.2,0.7,2.4,2.2,3.3c0.9,0.6,2.6,1.4,5.2,2.3c0.7,0.2,1.1,0.5,1.5,0.6c3.7,1.5,6.5,2.8,8.2,4.3c2.6,2.3,3.9,5.1,3.9,8.7
			c0,4-1.5,7.1-4.4,9.6C172.8,86.6,168.5,88,163.1,88z"/>
		<path class="st1" d="M203,88c-9.5,0-14.2-5.4-14.2-16.2V52.6h-1.9c-2.8,0-4.2-1.5-4.2-4.3c0-2.7,1.4-4.2,4-4.4l2.7-0.2l0.8-7.1
			c0.3-2.9,1.9-4.4,5-4.4c3.3,0,5,1.6,5,4.8v6.9h6.2c2.9,0,4.5,1.5,4.5,4.5c0,2.9-1.5,4.5-4.5,4.5h-6.2v9.5v9.5
			c0,4.9,1.9,7.3,5.9,7.3h0.1c2.7-0.6,4.3,0.5,5,3.3c0.6,2.7-0.2,4.3-2.5,5C206.7,87.7,204.8,88,203,88z"/>
	</g>
</g>
</svg>
