<?xml version="1.0" encoding="utf-8"?>
<!-- Generator: Adobe Illustrator 27.0.0, SVG Export Plug-In . SVG Version: 6.00 Build 0)  -->
<svg version="1.1" id="圖層_1" xmlns="http://www.w3.org/2000/svg" xmlns:xlink="http://www.w3.org/1999/xlink" x="0px" y="0px"
	 viewBox="0 0 326.7 226.1" style="enable-background:new 0 0 326.7 226.1;" xml:space="preserve">
<style type="text/css">
	.st0{fill:#FFFFF4;}
	.st1{fill:#47CFB9;}
</style>
<g>
	<path class="st0" d="M292.3,214.3H34.5c-10,0-18-8-18-18V29.8c0-10,8-18,18-18h257.7c10,0,18,8,18,18v166.5
		C310.2,206.3,302.2,214.3,292.3,214.3z"/>
	<path class="st1" d="M292.3,221.4H34.5c-13.8,0-25.1-11.3-25.1-25.1V29.8C9.4,16,20.7,4.7,34.5,4.7h257.7
		c13.8,0,25.1,11.3,25.1,25.1v166.5C317.3,210.1,306.1,221.4,292.3,221.4z M34.5,18.8c-6.1,0-11,4.9-11,11v166.5c0,6.1,4.9,11,11,11
		h257.7c6.1,0,11-4.9,11-11V29.8c0-6.1-4.9-11-11-11H34.5z"/>
	<g>
		<g>
			<path class="st1" d="M77.8,140.9c-1.3-0.4-2.4-1.7-3.4-3.7c-0.8-2-1.1-3.5-0.8-4.7c0.3-1.3,1.4-2.3,3.1-3.2
				c2.1-1.1,4.7-2.5,7.8-4.2c0.8-0.4,2.1-1.1,3.8-2.3c2.5-1.4,4.4-2.5,5.6-3.2c3.5-2.1,6.1-1.1,7.3,2.8c0.8,2.8,0.1,5.2-2.3,6.8
				c-5.6,3.8-11.1,7.3-16.4,10.6C80.6,141,79.1,141.3,77.8,140.9z M79.8,94.7c-3.5,0-5.4-1.8-5.4-5.5c0-3.5,1.8-5.4,5.4-5.4h7h7
				c3.5,0,5.4,1.8,5.4,5.4c0,3.7-1.8,5.5-5.4,5.5H79.8z M97.2,156.3c-2,0-3.4-0.8-4.4-2.3c-1.3-1.8-1.3-3.7,0.1-5.8
				c1.1-1.7,3-3.1,5.5-4.4c7.9-5.1,14-11.6,17.9-19.5c3.1-6.2,4.7-12.1,4.7-17.9v-9.9h-7.8c-2,4.8-4.1,9-6.5,12.8
				c-1.3,1.7-2.4,2.7-3.7,3c-1.3,0.3-2.8-0.1-4.5-1.1c-2.1-1.3-3.2-2.4-3.5-3.8c-0.3-1.3,0.4-2.8,1.8-4.8
				c4.8-7.2,8.6-16.4,11.3-27.3c0.4-2,1.3-3.5,2.5-4.4c1.3-1,2.8-1.4,4.8-1c3.9,0.7,5.5,3.1,4.5,7c-0.6,2.1-1.3,4.8-2.4,8H134h20
				c2.1,0,3.7,0.7,4.7,2c1,1.4,1.1,3.4,0.4,5.9c-1.7,6.8-4.1,13.1-7,19.2c-0.7,1.4-1.7,2.3-2.7,2.4c-0.8,0.1-2.1-0.3-3.9-1.1
				c-1.7-0.8-2.8-1.7-3.2-2.8c-0.4-1.1-0.3-2.4,0.4-4.1c1.4-3.2,2.7-6.6,3.8-10.1H133v9.7c0,5.6,1.4,11.3,4.1,17.3
				c3.5,7.8,8.9,14.2,15.8,19.2c2.4,1.4,4.2,3,5.2,4.9c1.3,2.1,1.1,4.2-0.1,6.1c-1,1.4-2.4,2.3-4.4,2.4c-1.7,0-3.5-0.4-5.2-1.4
				c-5.8-3.9-10.9-9-14.9-15.2c-3.4-5.1-5.5-9.9-6.3-14.4c-1.3,4.5-3.7,9.3-7.5,14.4c-4.7,6.3-10.3,11.4-17.1,15.5
				C100.8,155.8,98.9,156.3,97.2,156.3z"/>
			<path class="st1" d="M178.3,153.2c-1.8,0-3.4-0.6-4.5-1.7s-1.7-2.7-1.7-4.5V78c0-1.8,0.6-3.4,1.7-4.5c1.1-1.1,2.7-1.7,4.5-1.7
				h34.4h34.5c1.8,0,3.4,0.6,4.5,1.7s1.7,2.7,1.7,4.5v68.8c0,1.8-0.6,3.4-1.7,4.5s-2.7,1.7-4.5,1.7h-68.9V153.2z M186.2,142.4H241
				V83.5h-28.6h-26.2c-1.6,0-2.3,0.7-2.3,2.3v54.4C183.9,141.7,184.6,142.4,186.2,142.4z M199.3,131.3c-1.8,0-3.4-0.6-4.5-1.7
				c-1.1-1.1-1.7-2.7-1.7-4.5v-24c0-1.8,0.6-3.4,1.7-4.5c1.1-1.1,2.7-1.7,4.5-1.7h26.4c1.8,0,3.4,0.6,4.5,1.7
				c1.1,1.1,1.7,2.7,1.7,4.5v24c0,1.8-0.6,3.4-1.7,4.5c-1.1,1.1-2.7,1.7-4.5,1.7h-13.1H199.3z M205.9,121.4h6.1h6.1
				c1.6,0,2.3-0.7,2.3-2.3v-12c0-1.6-0.7-2.3-2.3-2.3h-12.1c-1.6,0-2.3,0.7-2.3,2.3v12C203.7,120.6,204.5,121.4,205.9,121.4z"/>
		</g>
	</g>
</g>
</svg>
