<?xml version="1.0" encoding="utf-8"?>
<!-- Generator: Adobe Illustrator 27.0.0, SVG Export Plug-In . SVG Version: 6.00 Build 0)  -->
<svg version="1.1" id="圖層_1" xmlns="http://www.w3.org/2000/svg" xmlns:xlink="http://www.w3.org/1999/xlink" x="0px" y="0px"
	 viewBox="0 0 331.1 131" style="enable-background:new 0 0 331.1 131;" xml:space="preserve">
<style type="text/css">
	.st0{fill:#47CFB9;}
</style>
<g>
	<g>
		<g>
			<path class="st0" d="M57.1,96c-3.6,0-5.6-1.8-5.6-5.4V40.4c0-1.6,0.5-2.9,1.4-3.9c1-1,2.3-1.4,3.9-1.4h4c1.2,0,2.4,0.4,3.5,1.1
				c1.1,0.7,1.8,1.7,2.2,2.9l8.9,24.5c0.6,1.8,1.4,4.5,2.5,8.1c0.5,1.7,0.8,2.9,1.2,3.7h0.4c0.4-1.2,1-3,1.7-5.4
				c0.8-2.9,1.4-5,1.9-6.3l8.7-24.5c0.4-1.2,1.1-2.2,2.2-2.9c1.1-0.7,2.2-1.1,3.5-1.1h2.5h3.6c1,0,1.7,0.2,2.3,0.8
				c0.6,0.6,0.8,1.3,0.8,2.3v52.3c0,3.6-1.8,5.6-5.6,5.6s-5.6-1.8-5.6-5.6V70.5c0-3.5,0.5-9.7,1.3-18.5c0-0.6,0.1-1.2,0.1-1.4h-0.2
				L92,65l-8.2,22.2c-0.4,1-1,1.8-1.9,2.4c-0.8,0.6-1.8,1-2.9,1h-0.1c-2.2,0-3.6-1-4.3-3L66.1,65l-4.8-14.4h-0.4
				c0,0.6,0.1,1.6,0.4,2.9c0.8,8.2,1.2,13.9,1.2,17.2v20.1C62.5,94.2,60.7,96,57.1,96z"/>
			<path class="st0" d="M146,97.1c-8.2,0-14.7-2.9-19.7-8.6c-5.1-5.8-7.6-13.5-7.6-23.3s2.5-17.5,7.6-23.1c5-5.4,11.5-8.2,19.7-8.2
				s14.7,2.8,19.7,8.2c5.1,5.7,7.6,13.4,7.6,23.2s-2.5,17.5-7.6,23.2C160.7,94.2,154.2,97.1,146,97.1z M146,86.6
				c4.5,0,8.1-1.9,10.8-5.8c2.7-3.9,4-9.1,4-15.6c0-6.5-1.3-11.6-4-15.3c-2.7-3.7-6.3-5.6-10.9-5.6s-8.2,1.8-10.9,5.6
				c-2.7,3.7-4,8.8-4,15.3s1.3,11.7,4,15.6C137.9,84.6,141.5,86.6,146,86.6z"/>
			<path class="st0" d="M191.3,96c-4.1,0-6-2.1-6-6V40.4c0-1.6,0.5-2.9,1.4-3.9c1-1,2.3-1.4,3.9-1.4h5.3h10.6
				c15.2,0,22.8,6.2,22.8,18.5c0,8.7-3.9,14.5-11.6,17.5L228.5,90c1.1,1.8,1.2,3.3,0.6,4.3c-0.6,1.1-2.1,1.7-4.1,1.7h-2.8
				c-1.2,0-2.3-0.2-3.3-0.8c-1-0.6-1.8-1.4-2.3-2.4l-10.8-19.8h-8.5v16.9C197.3,93.9,195.4,96,191.3,96z M197.3,63.3h7.9
				c8.1,0,12.1-3.3,12.1-9.8c0-3.1-1.1-5.4-3.1-6.9c-1.9-1.2-5-1.9-8.9-1.9h-7.9V54V63.3z"/>
			<path class="st0" d="M246.6,96c-1.6,0-2.9-0.5-3.9-1.4c-1-1-1.4-2.3-1.4-3.9V40.4c0-1.6,0.5-2.9,1.4-3.9c1-1,2.3-1.4,3.9-1.4
				h26.9c3.4,0,5.1,1.7,5.1,5.1c0,3.4-1.7,5.1-5.1,5.1h-20.2v14h16.3c3.4,0,5.1,1.7,5.1,5.1c0,3.4-1.7,5.1-5.1,5.1h-16.3v16.3h21.1
				c3.4,0,5.1,1.7,5.1,5.1c0,3.4-1.7,5.1-5.1,5.1h-14h-13.9V96z"/>
		</g>
	</g>
	<path class="st0" d="M9.4,128.7c-3.4,0-6-2.7-6-6V8.3c0-3.4,2.7-6,6-6s6,2.7,6,6v114.3C15.4,126,12.8,128.7,9.4,128.7z"/>
	<path class="st0" d="M321.7,128.7c-3.4,0-6-2.7-6-6V8.3c0-3.4,2.7-6,6-6s6,2.7,6,6v114.3C327.8,126,325.1,128.7,321.7,128.7z"/>
</g>
</svg>
