<?xml version="1.0" encoding="utf-8"?>
<!-- Generator: Adobe Illustrator 27.0.0, SVG Export Plug-In . SVG Version: 6.00 Build 0)  -->
<svg version="1.1" id="圖層_1" xmlns="http://www.w3.org/2000/svg" xmlns:xlink="http://www.w3.org/1999/xlink" x="0px" y="0px"
	 viewBox="0 0 137.8 286.4" style="enable-background:new 0 0 137.8 286.4;" xml:space="preserve">
<style type="text/css">
	.st0{fill:#47CFB9;}
	.st1{fill:#FFFFFF;}
</style>
<g>
	<polygon class="st0" points="136.1,0 1.7,285.4 136.1,285.4 	"/>
	<g>
		<polygon class="st1" points="90.7,179.4 80.2,197.4 101,197.4 		"/>
		<polygon class="st1" points="90.7,155.8 80.2,173.7 101,173.7 		"/>
		<g>
			<path class="st1" d="M76.5,232.6v-19.4c-2.1,0-4.9,0.2-6.1,0.5v-1.9c1.9,0.1,4.9,0.1,8.1,0.1c2.7,0,5.2,0,8-0.1v1.9
				c-1.2-0.2-3.7-0.5-6.1-0.5v19.4H76.5z"/>
			<path class="st1" d="M88.8,222.2c0-6.5,3.8-10.9,10.8-10.9c7.1,0,10.8,4.4,10.8,10.9s-3.7,10.8-10.8,10.8
				C92.6,233.1,88.8,228.8,88.8,222.2z M106.5,223.1c0-5.9-2.7-10.5-6.8-10.5c-4,0-6.8,3-6.8,8.8c0,5.8,2.7,10.5,6.8,10.5
				C103.7,231.8,106.5,228.9,106.5,223.1z"/>
			<path class="st1" d="M67.5,266.2v-19.4c-2.1,0-4.9,0.2-6.1,0.5v-1.9c1.9,0.1,4.9,0.1,8.1,0.1c2.7,0,5.2,0,8-0.1v1.9
				c-1.2-0.2-3.7-0.5-6.1-0.5v19.4H67.5z"/>
			<path class="st1" d="M79.8,255.9c0-6.5,3.8-10.9,10.8-10.9c7.1,0,10.8,4.4,10.8,10.9s-3.7,10.8-10.8,10.8
				C83.6,266.7,79.8,262.6,79.8,255.9z M97.4,256.7c0-5.9-2.7-10.5-6.8-10.5c-4,0-6.8,3-6.8,8.8c0,5.8,2.7,10.5,6.8,10.5
				S97.4,262.7,97.4,256.7z"/>
			<path class="st1" d="M105.4,266.2v-20.8h7.6c3.4,0,6.8,2,6.8,6.1c0,4-3.3,6.1-6.8,6.1h-3.8v8.6h-3.8V266.2z M111.2,256.4
				c2.5,0,4.5-1.7,4.5-4.8c0-3.1-2-4.8-4.5-4.8h-2v9.6h2V256.4z"/>
		</g>
	</g>
</g>
</svg>
