<?xml version="1.0" encoding="utf-8"?>
<!-- Generator: Adobe Illustrator 27.0.0, SVG Export Plug-In . SVG Version: 6.00 Build 0)  -->
<svg version="1.1" id="圖層_1" xmlns="http://www.w3.org/2000/svg" xmlns:xlink="http://www.w3.org/1999/xlink" x="0px" y="0px"
	 viewBox="0 0 441.3 160.3" style="enable-background:new 0 0 441.3 160.3;" xml:space="preserve">
<style type="text/css">
	.st0{fill:#47CFB9;}
	.st1{fill:#FFFFFF;}
	.st2{fill:#FFFFF4;}
	.st3{fill:#2AA890;}
	.st4{fill:#FFFFFF;stroke:#FF86AA;stroke-width:3;stroke-miterlimit:10;}
	.st5{fill:#FF86AA;}
	.st6{fill:#4D4867;}
	.st7{fill:#FFFFFF;stroke:#BBAEF9;stroke-width:3;stroke-linecap:round;stroke-linejoin:round;stroke-miterlimit:10;}
	.st8{fill:#BBAEF9;stroke:#BBAEF9;stroke-width:3;stroke-linecap:round;stroke-linejoin:round;stroke-miterlimit:10;}
	.st9{fill:#BBAEF9;}
	.st10{fill:#F95D98;}
</style>
<g>
	<path class="st1" d="M21.6,128.6c-3.4,0-6.2-2.8-6.2-6.2V51.1c0-3.4,2.8-6.2,6.2-6.2s6.2,2.8,6.2,6.2v71.3
		C27.8,125.8,25,128.6,21.6,128.6z"/>
	<path class="st1" d="M75.9,128.9c-1.5,0-2.9-0.5-4.1-1.6L32.6,92.6c-1.3-1.2-2.1-2.8-2.1-4.5c0-1.7,0.7-3.4,1.9-4.6l39.1-37.2
		c2.5-2.4,6.4-2.3,8.8,0.2c2.4,2.5,2.3,6.4-0.2,8.8L45.9,87.8L80,118c2.6,2.3,2.8,6.2,0.5,8.8C79.3,128.2,77.6,128.9,75.9,128.9z"/>
	<g>
		<ellipse class="st5" cx="158.8" cy="86.7" rx="56.2" ry="48.9"/>
		<path class="st5" d="M191,47.7c2.2-1.8,9.1-6.2,16.4-2.9c6.6,3,9.3,10.2,8.8,17.5c-0.4,7.3-4.4,12.8-4.4,12.8l-16.5-3.6L191,47.7z
			"/>
		<path class="st5" d="M124.9,47.7c-2.2-1.8-9.1-6.2-16.4-2.9c-6.6,3-9.3,10.2-8.8,17.5c0.4,7.3,4.4,12.8,4.4,12.8l16.5-3.6
			L124.9,47.7z"/>
		<ellipse transform="matrix(0.9773 -0.212 0.212 0.9773 -10.1466 40.1452)" class="st1" cx="182.1" cy="67.4" rx="2.8" ry="3.6"/>
		<ellipse transform="matrix(0.212 -0.9773 0.9773 0.212 41.4119 186.1192)" class="st1" cx="136.1" cy="67.4" rx="3.6" ry="2.8"/>
		<path class="st1" d="M183.6,98.4c0-3.8-0.2-7.1-4.9-19.8c-4.6-12.5-14.9-15.5-19.6-15.5c-6.1,0-15.8,3-20.4,15.5
			c-4.7,12.7-4.7,16-4.9,19.8c-0.3,5.2,1.9,18.2,12.9,21.3c6.6,1.9,10.5,1.9,12,1.9c1.5,0,5.2,0.3,11.9-1.9
			C181.5,116.1,183.6,104.2,183.6,98.4z"/>
		<path class="st5" d="M158.9,67.6c-3.4,0-10,3.4-11.2,8.1c-1.1,4.5,3.9,3.9,8.2,3.7c0.3,0,0.6,0.3,0.6,0.6l0,15.4
			c0,1.4,1.1,2.5,2.5,2.5s2.5-1.1,2.5-2.5l0-15.3c0-0.3,0.3-0.6,0.6-0.6c4,0.3,8.5,1.2,8.2-1.9C169.6,71.1,161.7,67.6,158.9,67.6z"
			/>
		<path class="st5" d="M148.4,100.6c-0.1,0-0.3,0-0.4,0c-5.5-0.1-8.3-3.3-8.4-3.4c-0.7-0.8-0.6-1.9,0.2-2.6c0.8-0.7,1.9-0.6,2.6,0.2
			c0.1,0.1,1.9,2,5.7,2.1c4.3,0.1,9.3-2.2,9.3-2.2c0.9-0.4,2,0,2.5,0.9c0.4,0.9,0,2-0.9,2.5C158.8,98.2,153.5,100.6,148.4,100.6z"/>
		<path class="st5" d="M170.1,100.8c-5,0-10.4-2.5-10.6-2.6c-0.9-0.4-1.3-1.5-0.9-2.5c0.4-0.9,1.5-1.3,2.5-0.9
			c0.1,0,5.1,2.3,9.3,2.2C174.2,97,176,95,176,95c0.7-0.8,1.8-0.9,2.6-0.2c0.8,0.7,0.9,1.8,0.2,2.6c-0.1,0.1-2.9,3.2-8.4,3.4
			C170.3,100.8,170.2,100.8,170.1,100.8z"/>
	</g>
	<g>
		<path class="st1" d="M292.5,69.6H277c0-5.9-4.8-10.8-10.8-10.8c-5.9,0-10.8,4.8-10.8,10.8h-15.5c0-14.5,11.8-26.3,26.3-26.3
			C280.7,43.2,292.5,55,292.5,69.6z"/>
		<path class="st1" d="M329.7,69.6h-15.5c0-5.9-4.8-10.8-10.8-10.8c-5.9,0-10.8,4.8-10.8,10.8H277c0-14.5,11.8-26.3,26.3-26.3
			C317.9,43.2,329.7,55,329.7,69.6z"/>
		<path class="st1" d="M321.9,130.2c-4.3,0-7.8-3.5-7.8-7.8V68.6c0-4.3,3.5-7.8,7.8-7.8s7.8,3.5,7.8,7.8v53.8
			C329.7,126.7,326.2,130.2,321.9,130.2z"/>
		<path class="st1" d="M284.8,130.2c-4.3,0-7.8-3.5-7.8-7.8V68.6c0-4.3,3.5-7.8,7.8-7.8s7.8,3.5,7.8,7.8v53.8
			C292.5,126.7,289.1,130.2,284.8,130.2z"/>
		<path class="st1" d="M247.7,130.2c-4.3,0-7.8-3.5-7.8-7.8V68.6c0-4.3,3.5-7.8,7.8-7.8c4.3,0,7.8,3.5,7.8,7.8v53.8
			C255.4,126.7,252,130.2,247.7,130.2z"/>
	</g>
	<g>
		<path class="st1" d="M425.9,131.7c-2.8,0-5.6-1.7-6.8-4.5l-28.9-64.3c-0.9-2.1-2.4-3.3-3.8-3.3c-1.4,0-2.8,1.3-3.8,3.3l-28.9,64.3
			c-1.7,3.9-6.2,5.6-10,3.8c-3.8-1.8-5.4-6.4-3.7-10.3l28.9-64.3c3.4-7.6,10.1-12.3,17.5-12.3c7.4,0,14,4.7,17.5,12.3l28.9,64.3
			c1.7,3.9,0.1,8.5-3.7,10.3C428,131.5,426.9,131.7,425.9,131.7z"/>
		<g>
			<path class="st5" d="M383.8,96.7l33.3,6.2c3.1,0.6,5.2,3.1,4.7,5.7c-0.5,2.6-3.4,4.2-6.4,3.6l-33.3-6.2c-3.1-0.6-5.2-3.1-4.7-5.7
				S380.7,96.1,383.8,96.7z"/>
			<g>
				<circle class="st5" cx="383.3" cy="101.3" r="8.2"/>
			</g>
		</g>
	</g>
</g>
</svg>
