<?xml version="1.0" encoding="utf-8"?>
<!-- Generator: Adobe Illustrator 27.0.0, SVG Export Plug-In . SVG Version: 6.00 Build 0)  -->
<svg version="1.1" id="圖層_1" xmlns="http://www.w3.org/2000/svg" xmlns:xlink="http://www.w3.org/1999/xlink" x="0px" y="0px"
	 viewBox="0 0 124.1 123.1" style="enable-background:new 0 0 124.1 123.1;" xml:space="preserve">
<style type="text/css">
	.st0{fill:#FFFFFF;}
	.st1{fill:#BBAEF9;}
</style>
<g>
	<g>
		<rect x="5.3" y="4.8" class="st0" width="113.6" height="113.6"/>
		<path class="st1" d="M118.8,120.1H5.3c-0.9,0-1.7-0.8-1.7-1.7V4.8C3.5,3.8,4.3,3,5.3,3h113.6c0.9,0,1.7,0.8,1.7,1.7v113.6
			C120.5,119.3,119.8,120.1,118.8,120.1z M7,116.6h110.2V6.5H7V116.6z"/>
	</g>
	<g>
		<g>
			<path class="st1" d="M36.3,67.9c-1.8,0-3.3-0.6-4.4-1.8C30.6,65,30,63.5,30,61.8c0-1.8,0.6-3.3,1.8-4.5c1.2-1.2,2.7-1.8,4.4-1.8
				c1.7,0,3.2,0.6,4.4,1.8c1.2,1.2,1.8,2.7,1.8,4.4s-0.6,3.3-1.8,4.4C39.6,67.2,38.1,67.9,36.3,67.9z M62,67.9
				c-1.8,0-3.3-0.6-4.4-1.8c-1.2-1.1-1.8-2.6-1.8-4.3c0-1.8,0.6-3.3,1.8-4.5c1.2-1.2,2.7-1.8,4.4-1.8c1.7,0,3.2,0.6,4.4,1.8
				c1.2,1.2,1.8,2.7,1.8,4.4s-0.6,3.3-1.8,4.4C65.3,67.2,63.9,67.9,62,67.9z M87.8,67.9c-1.8,0-3.3-0.6-4.4-1.8
				c-1.2-1.1-1.8-2.6-1.8-4.3c0-1.8,0.6-3.3,1.8-4.5c1.2-1.2,2.7-1.8,4.4-1.8c1.7,0,3.2,0.6,4.4,1.8c1.2,1.2,1.8,2.7,1.8,4.4
				s-0.6,3.3-1.8,4.4C91.1,67.2,89.5,67.9,87.8,67.9z"/>
		</g>
	</g>
</g>
</svg>
