<?xml version="1.0" encoding="utf-8"?>
<!-- Generator: Adobe Illustrator 27.0.0, SVG Export Plug-In . SVG Version: 6.00 Build 0)  -->
<svg version="1.1" id="圖層_1" xmlns="http://www.w3.org/2000/svg" xmlns:xlink="http://www.w3.org/1999/xlink" x="0px" y="0px"
	 viewBox="0 0 115.2 195.9" style="enable-background:new 0 0 115.2 195.9;" xml:space="preserve">
<style type="text/css">
	.st0{fill:#4D4867;}
</style>
<path class="st0" d="M55.6,195.2c-6.3,0-12.5-0.5-18.5-1.5c-4-0.6-7-4.1-7-8.1v-69H10.3c-4.5,0-8.3-3.8-8.3-8.3V76.4
	c0-4.5,3.8-8.3,8.3-8.3h19.8V52c0-31.6,19.1-51.3,50-51.3c12.6,0,25.6,2.1,26.1,2.3c4,0.6,6.9,4.1,6.9,8.1v27.1
	c0,4.5-3.8,8.3-8.3,8.3H91c-7,0-9.8,2.5-9.8,9V68h22.4c2.4,0,4.8,1,6.3,2.9c1.6,1.9,2.3,4.3,1.9,6.6l-4.9,31.9c-0.6,4-4.1,7-8.1,7
	H81.2v69.2c0,4.1-3,7.5-7,8.1C68.1,194.7,61.9,195.2,55.6,195.2z M46.6,178.2c6,0.5,12,0.5,18,0v-69.9c0-4.5,3.8-8.3,8.3-8.3h18.6
	l2.4-15.4h-21c-4.5,0-8.3-3.8-8.3-8.3V55.6c0-15.8,10-25.5,26.3-25.5h5.6V18.3C92,17.8,85.9,17.2,80,17.2
	c-21.6,0-33.5,12.4-33.5,34.8v24.4c0,4.5-3.8,8.3-8.3,8.3H18.6V100h19.8c4.5,0,8.3,3.8,8.3,8.3C46.6,108.3,46.6,178.2,46.6,178.2z"
	/>
</svg>
