<?xml version="1.0" encoding="utf-8"?>
<!-- Generator: Adobe Illustrator 27.0.0, SVG Export Plug-In . SVG Version: 6.00 Build 0)  -->
<svg version="1.1" id="圖層_1" xmlns="http://www.w3.org/2000/svg" xmlns:xlink="http://www.w3.org/1999/xlink" x="0px" y="0px"
	 viewBox="0 0 317.4 116.1" style="enable-background:new 0 0 317.4 116.1;" xml:space="preserve">
<style type="text/css">
	.st0{fill:#47CFB9;}
	.st1{fill:#FFFFFF;}
</style>
<g>
	<path class="st0" d="M259.4,115H58C26.6,115,1,89.3,1,58l0,0c0-31.4,25.7-57,57-57h201.4c31.4,0,57,25.7,57,57l0,0
		C316.4,89.3,290.7,115,259.4,115z"/>
	<g>
		<path class="st1" d="M102.5,88.5c-1,0-1.8-0.3-2.5-1S99,86,99,85v-0.2c0-1.9,1-3.9,3.1-5.7c7.3-6.6,12.6-12.3,16-17
			c3.9-5.3,5.7-9.8,5.7-13.8c0-2.9-0.8-5.1-2.3-6.8c-1.5-1.7-3.7-2.5-6.4-2.5c-2.3,0-4.7,0.9-7.1,2.6c-2.3,2.2-4.6,2.2-6.7,0.1
			c-2.1-2.1-1.9-4.1,0.3-6.3c4.3-3.7,9.2-5.5,15-5.5c5.5,0,9.8,1.6,13.1,4.9c3.3,3.2,5,7.5,5,12.9c0,8.8-6.4,19.4-19.2,31.8
			c3.9-0.5,7-0.6,9.4-0.6h7.6c3.2,0,4.8,1.6,4.8,4.8c0,3.2-1.6,4.8-4.8,4.8H118H102.5z"/>
		<path class="st1" d="M153.3,88.5c-3.8,0-5.7-1.9-5.7-5.7V66.7V49.6c0-3.1,1.6-4.7,4.9-4.7c3,0,4.6,1.4,5,4.2l0.2,1.6h0.3
			c4.7-4.6,9.4-6.8,14.2-6.8c9,0,13.5,5.8,13.5,17.5v21.5c0,3.8-1.9,5.7-5.7,5.7c-3.9,0-5.7-1.9-5.7-5.7V62.7c0-3.3-0.5-5.7-1.5-7.1
			c-0.9-1.4-2.5-2.1-4.7-2.1c-1.7,0-3.2,0.5-4.7,1.3c-1.1,0.7-2.6,1.9-4.5,3.7v24.3C158.9,86.6,157,88.5,153.3,88.5z"/>
		<path class="st1" d="M212.7,89.5c-5.5,0-9.8-2.1-13-6c-3.2-4.1-4.8-9.6-4.8-16.7c0-6.8,1.8-12.4,5.6-16.8
			c3.5-4.1,7.8-6.2,12.7-6.2c2.3,0,4.3,0.5,6.3,1.4c1.5,0.7,3.1,1.8,4.8,3.4l-0.5-6.8v-9.6c0-3.8,1.9-5.7,5.7-5.7
			c3.8,0,5.7,1.9,5.7,5.7v25.3v26.5c0,1.5-0.5,2.6-1.4,3.4c-0.9,0.8-2.1,1.1-3.7,1.1c-2.9,0-4.5-1.3-5-3.9l-0.1-0.6h-0.2
			C221,87.7,217,89.5,212.7,89.5z M215.7,80.2c3.1,0,5.8-1.5,8.1-4.6v-9.5v-9.6c-2.4-2.2-5.1-3.3-8.1-3.3c-2.6,0-4.7,1.1-6.4,3.4
			c-1.7,2.4-2.6,5.7-2.6,9.9c0,4.5,0.8,7.9,2.3,10.2C210.6,79,212.7,80.2,215.7,80.2z"/>
	</g>
</g>
</svg>
