<?xml version="1.0" encoding="utf-8"?>
<!-- Generator: Adobe Illustrator 27.0.0, SVG Export Plug-In . SVG Version: 6.00 Build 0)  -->
<svg version="1.1" id="圖層_1" xmlns="http://www.w3.org/2000/svg" xmlns:xlink="http://www.w3.org/1999/xlink" x="0px" y="0px"
	 viewBox="0 0 317.4 115.1" style="enable-background:new 0 0 317.4 115.1;" xml:space="preserve">
<style type="text/css">
	.st0{fill:#47CFB9;}
	.st1{fill:#FFFFFF;}
</style>
<g>
	<path class="st0" d="M259.3,114.4H58.1c-31.3,0-56.9-25.6-56.9-56.9l0,0c0-31.3,25.6-56.9,56.9-56.9h201.1
		c31.3,0,56.9,25.6,56.9,56.9l0,0C316.1,88.7,290.5,114.4,259.3,114.4z"/>
	<g>
		<path class="st1" d="M128.1,88c-3.5,0-5.4-1.7-5.4-5.2v-9.6h-12.3h-7.2c-1.5,0-2.7-0.5-3.6-1.4c-0.9-0.9-1.4-2.2-1.4-3.6v-0.7
			c0-1.4,0.3-2.6,1.1-3.8L118,33.5c1.1-1.9,2.8-2.8,5.1-2.8h5.2c1.5,0,2.7,0.5,3.6,1.4c0.9,0.9,1.4,2.2,1.4,3.6v28.8h2.5
			c2.8,0,4.3,1.5,4.3,4.3c0,2.8-1.5,4.3-4.3,4.3h-2.5v9.6C133.3,86.1,131.6,88,128.1,88z M109.3,64.4h6.7h6.7V52.6
			c0-1.7,0.1-4.9,0.3-9.5c0.1-1.1,0.1-1.9,0.1-2.4h-0.3c-1.5,3.3-3.1,6.4-4.6,9.3L109.3,64.4z"/>
		<path class="st1" d="M164.5,89c-9.6,0-14.2-5.5-14.2-16.3V53.4h-1.9c-2.8,0-4.2-1.5-4.2-4.3c0-2.7,1.4-4.2,4-4.4l2.7-0.2l0.8-7.2
			c0.3-3,1.9-4.4,5-4.4c3.3,0,5,1.6,5,4.8v7h6.3c3,0,4.6,1.5,4.6,4.6c0,3-1.5,4.6-4.6,4.6h-6.3v9.6v9.6c0,4.9,1.9,7.3,5.9,7.3h0.1
			c2.7-0.6,4.3,0.5,5,3.3c0.6,2.7-0.2,4.3-2.5,5C168.2,88.7,166.3,89,164.5,89z"/>
		<path class="st1" d="M186.8,88c-3.8,0-5.7-1.9-5.7-5.7V57V31.7c0-3.8,1.9-5.7,5.7-5.7c3.8,0,5.7,1.9,5.7,5.7v9.9l-0.5,8.2
			c4.6-4.2,9.1-6.4,13.7-6.4c9,0,13.4,5.8,13.4,17.4v21.4c0,3.8-1.9,5.7-5.7,5.7c-3.9,0-5.7-1.9-5.7-5.7V62.2c0-3.3-0.5-5.7-1.5-7.1
			c-0.9-1.4-2.5-2.1-4.7-2.1c-1.7,0-3.2,0.5-4.7,1.3c-1.1,0.7-2.6,1.9-4.4,3.6v24.3C192.4,86,190.5,88,186.8,88z"/>
	</g>
</g>
</svg>
