<?xml version="1.0" encoding="utf-8"?>
<!-- Generator: Adobe Illustrator 27.0.0, SVG Export Plug-In . SVG Version: 6.00 Build 0)  -->
<svg version="1.1" id="圖層_1" xmlns="http://www.w3.org/2000/svg" xmlns:xlink="http://www.w3.org/1999/xlink" x="0px" y="0px"
	 viewBox="0 0 634.2 88.3" style="enable-background:new 0 0 634.2 88.3;" xml:space="preserve">
<style type="text/css">
	.st0{fill:#FF86AA;}
	.st1{fill:#4D4867;}
</style>
<g>
	<g>
		<path class="st0" d="M11.4,77.5c196-1.5,416-1.5,612,0c0.8,0,1.4,0.6,1.4,1.4s-0.6,1.4-1.4,1.4c-168.5,1.3-366.8,1.2-535.5,0.5
			l-76.5-0.5c-0.8,0-1.4-0.6-1.4-1.4C10,78.1,10.7,77.5,11.4,77.5L11.4,77.5z"/>
	</g>
</g>
<g>
	<path class="st1" d="M30.4,60c-3.4,0-5-1.7-5-5V18.1h-10c-2.8,0-4.1-1.4-4.1-4.2c0-2.8,1.4-4.1,4.1-4.1h15.1h15.1
		c2.8,0,4.1,1.4,4.1,4.1c0,2.8-1.4,4.2-4.1,4.2H35.5v36.9C35.5,58.3,33.8,60,30.4,60z"/>
	<path class="st1" d="M62.9,60c-3.4,0-5-1.7-5-5V14.1c0-1.3,0.4-2.4,1.2-3.2c0.8-0.8,1.9-1.2,3.2-1.2h4.3h8.8
		c12.6,0,18.9,5.1,18.9,15.2c0,7.2-3.2,12-9.6,14.5l8.9,15.6c0.9,1.5,1,2.7,0.5,3.6c-0.5,0.9-1.7,1.4-3.4,1.4h-2.3
		c-1,0-1.8-0.2-2.7-0.7c-0.8-0.5-1.5-1.2-1.9-2l-8.8-16.3h-7v14C67.9,58.3,66.2,60,62.9,60z M67.9,33h6.5c6.7,0,10-2.7,10-8.1
		c0-2.6-0.9-4.5-2.6-5.7c-1.6-1-4.1-1.6-7.4-1.6h-6.5v7.7V33z"/>
	<path class="st1" d="M108.6,60c-1.3,0-2.4-0.4-3.2-1.2c-0.8-0.8-1.2-1.9-1.2-3.2V14.1c0-1.3,0.4-2.4,1.2-3.2
		c0.8-0.8,1.9-1.2,3.2-1.2h22.3c2.8,0,4.1,1.4,4.1,4.1c0,2.8-1.4,4.2-4.1,4.2h-16.6v11.6h13.5c2.8,0,4.2,1.4,4.2,4.2
		c0,2.8-1.4,4.2-4.2,4.2h-13.5v13.5h17.3c2.8,0,4.2,1.4,4.2,4.2s-1.4,4.2-4.2,4.2H120H108.6z"/>
	<path class="st1" d="M150.7,60c-3.2,0-4.8-1.6-4.8-4.8V14.1c0-1.3,0.4-2.4,1.2-3.2c0.8-0.8,1.9-1.2,3.2-1.2h0.7h2.8
		c1.6,0,2.8,0.7,3.5,2.1l13.5,24.7l5,10.9h0.3c0-0.3-0.1-0.7-0.1-1.2c-0.8-7.4-1.2-12.9-1.2-16.4V14.5c0-3.2,1.6-4.8,4.8-4.8
		c3.2,0,4.8,1.6,4.8,4.8v40.4c0,1.6-0.6,2.9-1.8,3.8c-1.1,0.9-2.5,1.3-4.3,1.3c-1.2,0-2.3-0.2-3.3-0.7c-1.1-0.5-2-1.3-2.5-2.3
		l-12.8-23.8l-5.1-10.8h-0.3c0,0.8,0.2,2,0.3,3.6c0.6,6.3,0.9,10.9,0.9,13.9v15.4C155.5,58.4,153.9,60,150.7,60z"/>
	<path class="st1" d="M200.2,60c-1,0-1.8-0.3-2.4-0.9c-0.6-0.6-0.9-1.4-0.9-2.4V14.1c0-1.3,0.4-2.4,1.2-3.2c0.8-0.8,1.9-1.2,3.2-1.2
		h9.4c7.9,0,13.9,2,18.2,6.1c4.4,4.3,6.7,10.5,6.7,18.8c0,8.3-2.2,14.6-6.6,19c-4.3,4.2-10.2,6.3-17.7,6.3H204H200.2z M206.9,51.9
		h3.1c10.1,0,15.2-5.8,15.2-17.3c0-11.3-5.1-16.9-15.2-16.9h-3.1v17.1V51.9z"/>
</g>
<g>
	<path class="st0" d="M262.3,59.5c-0.6,0-1.1-0.2-1.5-0.6s-0.5-0.9-0.4-1.5c0.1-0.7,0.1-1.3,0.1-1.9V38.6c0-0.6,0-1.2-0.1-1.9
		c-0.1-0.5,0-0.9,0.3-1.2c0.3-0.3,0.7-0.4,1.2-0.4h0.6h1.3c0.3,0,0.5,0.1,0.7,0.3s0.2,0.4,0.2,0.7c-0.1,0.9-0.1,1.8-0.1,2.6v4.3
		c3.8,1.1,7.4,2.4,10.8,3.9c0.6,0.3,0.9,0.6,1,1c0.1,0.4,0,0.9-0.3,1.6c-0.6,1.4-1.5,1.8-2.8,1.2c-2.5-1.2-5.4-2.3-8.6-3.4v8.3
		c0,0.5,0,1.2,0.1,2c0.1,0.6-0.1,1.1-0.4,1.5c-0.3,0.4-0.8,0.6-1.4,0.6H262.3z"/>
	<path class="st0" d="M285.8,58.9l-0.9-0.7c-0.4-0.3-0.6-0.7-0.8-1.2s-0.2-1-0.1-1.5c0-0.1,0-0.2,0-0.3V39.3c0-0.7,0-1.3-0.1-1.9
		c-0.1-0.4,0-0.8,0.3-1c0.2-0.3,0.6-0.4,1.1-0.4h0.7h1.3c0.3,0,0.6,0.1,0.7,0.3c0.2,0.2,0.2,0.4,0.2,0.8c-0.1,0.8-0.1,1.6-0.1,2.3
		v15.2c2.2-0.6,4.5-1.6,6.9-3c2.6-1.5,4.8-3.1,6.6-4.9c1.1-1.2,2-1.1,2.9,0.2c0.5,0.9,0.5,1.7-0.1,2.4c-3.8,4-9.2,7.2-16.1,9.5
		c-0.1,0-0.2,0.1-0.4,0.1c-0.2,0.1-0.3,0.1-0.5,0.2C286.7,59.3,286.2,59.3,285.8,58.9z"/>
	<path class="st0" d="M310.1,58.1l-0.5-0.8c-0.4-0.6-0.4-1-0.2-1.5c0.2-0.4,0.7-0.7,1.5-0.8c3.3-0.7,6.2-1.9,8.8-3.4
		c2.1-1.2,4-2.7,5.7-4.5c1.6-1.6,3-3.3,4-5.2c0.3-0.5,0.6-0.7,1-0.7c0.4,0,0.7,0.3,1.1,0.9l0,0.1l0.6,1.1c0.3,0.6,0.3,1.2,0,1.8
		c-1.2,1.9-2.6,3.7-4.4,5.4c-1.8,1.8-3.8,3.3-6,4.6c-3.1,1.8-6.2,3.1-9.3,3.8C311.4,59.3,310.6,58.9,310.1,58.1z M315.3,43.9
		c-1.2-1.1-2.7-2.4-4.4-3.8c-1.1-0.8-1.1-1.8-0.1-2.8c0.4-0.5,0.8-0.7,1.2-0.8c0.4-0.1,0.8,0.1,1.3,0.4c0.9,0.7,1.8,1.4,2.6,2.1
		c0.7,0.6,1.5,1.2,2.3,1.9c0.5,0.5,0.7,0.9,0.7,1.4c0,0.4-0.3,0.9-0.8,1.4c-0.5,0.6-1,0.9-1.4,0.9C316.3,44.6,315.8,44.4,315.3,43.9
		z"/>
	<path class="st0" d="M339.9,60c-0.3,0-0.6-0.1-0.7-0.3c-0.2-0.2-0.2-0.4-0.2-0.7c0.1-1,0.2-2,0.2-3.1V39c0-0.6,0-1.2-0.1-1.9
		c-0.1-0.5,0-0.9,0.3-1.2s0.7-0.4,1.2-0.4h0.8c0.6,0,1.1,0.2,1.4,0.6c0.3,0.4,0.5,0.9,0.4,1.5c0,0.7-0.1,1.2-0.1,1.5v4.3
		c3.9,1.2,7.5,2.5,10.8,3.9c0.6,0.3,0.9,0.6,1,1c0.1,0.4,0,0.9-0.3,1.6c-0.6,1.4-1.5,1.8-2.9,1.2c-2.4-1.1-5.3-2.2-8.6-3.4v8.3
		c0,0.5,0,1.2,0.1,2c0.1,0.6-0.1,1.1-0.4,1.5c-0.3,0.4-0.8,0.6-1.3,0.6h-0.4H339.9z M352.2,41.4c-0.8,0.4-1.5,0.1-1.9-0.8
		c-0.1-0.1-0.2-0.3-0.3-0.6c-0.1-0.2-0.2-0.3-0.2-0.4c-0.1-0.1-0.1-0.2-0.3-0.4c-0.1-0.2-0.2-0.3-0.3-0.4c-0.6-0.9-0.4-1.5,0.5-1.9
		c0.7-0.3,1.3-0.1,1.6,0.4c0.6,0.9,1.1,1.7,1.5,2.4C353.3,40.5,353.1,41.1,352.2,41.4z M356.2,39.8c-0.8,0.4-1.4,0.2-1.9-0.7
		c-0.2-0.4-0.5-0.8-0.7-1.1c-0.1-0.1-0.1-0.2-0.3-0.4s-0.2-0.3-0.3-0.4c-0.6-0.8-0.4-1.5,0.5-1.9c0.7-0.3,1.3-0.2,1.7,0.4
		c0,0.1,0.1,0.1,0.1,0.2c0.6,0.9,1.1,1.6,1.3,2.1C357.2,38.8,357,39.4,356.2,39.8z"/>
</g>
</svg>
