<?xml version="1.0" encoding="utf-8"?>
<!-- Generator: Adobe Illustrator 27.0.0, SVG Export Plug-In . SVG Version: 6.00 Build 0)  -->
<svg version="1.1" id="圖層_1" xmlns="http://www.w3.org/2000/svg" xmlns:xlink="http://www.w3.org/1999/xlink" x="0px" y="0px"
	 viewBox="0 0 313.4 113.2" style="enable-background:new 0 0 313.4 113.2;" xml:space="preserve">
<style type="text/css">
	.st0{fill:#47CFB9;}
	.st1{fill:#FFFFFF;}
</style>
<g>
	<path class="st0" d="M256.8,113.2H56.6C25.4,113.2,0,87.7,0,56.6l0,0C0,25.4,25.5,0,56.6,0h200.2c31.2,0,56.6,25.5,56.6,56.6l0,0
		C313.4,87.7,287.9,113.2,256.8,113.2z"/>
	<g>
		<path class="st1" d="M102.7,85.3c-3.8,0-5.7-1.9-5.7-5.7V37.5H85.6c-3.2,0-4.7-1.6-4.7-4.8c0-3.2,1.6-4.7,4.7-4.7h17.2H120
			c3.2,0,4.7,1.6,4.7,4.7c0,3.2-1.6,4.8-4.7,4.8h-11.5v42.1C108.4,83.4,106.5,85.3,102.7,85.3z"/>
		<path class="st1" d="M154.4,86.4c-7.7,0-13.9-2.7-18.5-8.1c-4.8-5.4-7.1-12.7-7.1-21.9c0-9.2,2.4-16.5,7.1-21.8
			c4.6-5.2,10.8-7.7,18.5-7.7c7.7,0,13.9,2.6,18.5,7.7c4.8,5.4,7.1,12.6,7.1,21.8c0,9.2-2.4,16.5-7.1,21.9
			C168.2,83.7,162.1,86.4,154.4,86.4z M154.4,76.4c4.2,0,7.6-1.8,10.2-5.4c2.5-3.6,3.8-8.5,3.8-14.6c0-6.1-1.3-11-3.8-14.5
			c-2.5-3.5-5.9-5.2-10.2-5.2c-4.3,0-7.7,1.7-10.2,5.2c-2.5,3.5-3.8,8.3-3.8,14.4c0,6.1,1.3,11,3.8,14.7
			C146.7,74.6,150.1,76.4,154.4,76.4z"/>
		<path class="st1" d="M197,85.3c-3.8,0-5.7-1.9-5.7-5.7V33c0-1.5,0.5-2.7,1.4-3.6s2.1-1.4,3.6-1.4h4.3h9.5c15,0,22.5,6,22.5,18
			c0,6.3-2.1,11.1-6.4,14.4c-3.9,3-9.2,4.6-15.7,4.6h-7.7v14.6C202.7,83.4,200.8,85.3,197,85.3z M202.7,55.8h6.9
			c7.8,0,11.7-3.3,11.7-9.9c0-3.2-1-5.5-3.1-7c-1.9-1.3-4.9-1.9-9-1.9h-6.5v9.5V55.8z"/>
	</g>
</g>
</svg>
