<?xml version="1.0" encoding="utf-8"?>
<!-- Generator: Adobe Illustrator 27.0.0, SVG Export Plug-In . SVG Version: 6.00 Build 0)  -->
<svg version="1.1" id="圖層_1" xmlns="http://www.w3.org/2000/svg" xmlns:xlink="http://www.w3.org/1999/xlink" x="0px" y="0px"
	 viewBox="0 0 317.4 116.1" style="enable-background:new 0 0 317.4 116.1;" xml:space="preserve">
<style type="text/css">
	.st0{fill:#47CFB9;}
	.st1{fill:#FFFFFF;}
</style>
<g>
	<path class="st0" d="M259.3,114.9H58.1C26.8,114.9,1.3,89.3,1.3,58l0,0c0-31.3,25.6-56.9,56.9-56.9h201.1
		c31.3,0,56.9,25.6,56.9,56.9l0,0C316.1,89.3,290.5,114.9,259.3,114.9z"/>
	<g>
		<path class="st1" d="M117.2,89.5c-6.4,0-12-1.8-16.6-5.5c-1.8-1.6-1.9-3.5-0.3-5.7c1.9-2.6,4.2-3,6.6-0.9c2.8,1.8,5.8,2.7,8.9,2.7
			c3.1,0,5.5-0.9,7.3-2.7c1.9-1.9,2.8-4.6,2.8-7.9s-0.9-5.9-2.6-7.6c-1.7-1.8-4.1-2.7-7.1-2.7c-2.1,0-3.9,0.5-5.6,1.3
			c-1.9,1.1-3.9,1.3-5.6,0.1l-0.2-0.1c-1.6-1-2.4-2.5-2.3-4.4l1.1-20.1c0.1-1.5,0.6-2.7,1.6-3.5c0.9-0.9,2.2-1.4,3.5-1.4h10.5h10.6
			c3.2,0,4.8,1.6,4.8,4.8s-1.6,4.8-4.8,4.8h-16.2l-1.1,12.2c2.3-1.1,4.6-1.6,7-1.6c5.1,0,9.3,1.5,12.5,4.4c3.4,3.3,5.2,7.9,5.2,13.8
			c0,6.2-2.1,11.2-6,14.9C127.5,87.8,122.9,89.5,117.2,89.5z"/>
		<path class="st1" d="M163.5,89.5c-9.6,0-14.2-5.5-14.2-16.3V53.9h-1.9c-2.8,0-4.2-1.5-4.2-4.3c0-2.7,1.4-4.2,4-4.4l2.7-0.2
			l0.8-7.2c0.3-3,1.9-4.4,5-4.4c3.3,0,5,1.6,5,4.8v7h6.3c3,0,4.6,1.5,4.6,4.6c0,3-1.5,4.6-4.6,4.6h-6.3v9.6v9.6
			c0,4.9,1.9,7.3,5.9,7.3h0.1c2.7-0.6,4.3,0.5,5,3.3c0.6,2.7-0.2,4.3-2.5,5C167.3,89.3,165.5,89.5,163.5,89.5z"/>
		<path class="st1" d="M185.9,88.5c-3.8,0-5.7-1.9-5.7-5.7V57.5V32.2c0-3.8,1.9-5.7,5.7-5.7c3.8,0,5.7,1.9,5.7,5.7v9.9l-0.5,8.2
			c4.6-4.2,9.1-6.4,13.7-6.4c9,0,13.4,5.8,13.4,17.4v21.4c0,3.8-1.9,5.7-5.7,5.7c-3.9,0-5.7-1.9-5.7-5.7V62.7c0-3.3-0.5-5.7-1.5-7.1
			c-0.9-1.4-2.5-2.1-4.7-2.1c-1.7,0-3.2,0.5-4.7,1.3c-1.1,0.7-2.6,1.9-4.4,3.6v24.3C191.6,86.5,189.8,88.5,185.9,88.5z"/>
	</g>
</g>
</svg>
