<?xml version="1.0" encoding="utf-8"?>
<!-- Generator: Adobe Illustrator 27.0.0, SVG Export Plug-In . SVG Version: 6.00 Build 0)  -->
<svg version="1.1" id="圖層_1" xmlns="http://www.w3.org/2000/svg" xmlns:xlink="http://www.w3.org/1999/xlink" x="0px" y="0px"
	 viewBox="0 0 326.7 226.1" style="enable-background:new 0 0 326.7 226.1;" xml:space="preserve">
<style type="text/css">
	.st0{fill:#FFFFF4;}
	.st1{fill:#47CFB9;}
</style>
<g>
	<path class="st0" d="M294.6,216.1H32.3c-10.2,0-18.4-8.2-18.4-18.4V28.4c0-10.2,8.2-18.4,18.4-18.4h262.2
		c10.2,0,18.4,8.2,18.4,18.4v169.4C312.8,207.9,304.6,216.1,294.6,216.1z"/>
	<path class="st1" d="M294.6,223.3H32.3c-14.1,0-25.5-11.5-25.5-25.5V28.4c0-14.1,11.5-25.5,25.5-25.5h262.2
		c14.1,0,25.5,11.5,25.5,25.5v169.4C320,211.8,308.6,223.3,294.6,223.3z M32.3,17.2c-6.2,0-11.2,5-11.2,11.2v169.4
		c0,6.2,5,11.2,11.2,11.2h262.2c6.2,0,11.2-5,11.2-11.2V28.4c0-6.2-5-11.2-11.2-11.2H32.3z"/>
	<g>
		<g>
			<path class="st1" d="M77.3,92.3c-3.6,0-5.3-1.7-5.3-5.3s1.7-5.3,5.3-5.3h14.9c-0.6-1.3-1.4-2.9-2.7-4.6c-1.4-1.9-2-3.6-1.6-5
				c0.4-1.4,1.7-2.6,4-3.4c2.7-0.9,5-0.3,7,2c1.4,1.9,2.9,3.7,4.2,5.7c0.6,1,0.6,2,0.1,3c-0.4,1-1.1,1.7-2.4,2.2l-0.3,0.1h29.3
				l-2.3-0.7c-1.1-0.4-1.3-1.1-0.7-1.9c1.9-2.4,3.6-5,5-7.5c1.9-3.3,4.6-4.4,8.2-3.3c4.9,1.4,5.6,4.4,2.2,8.7
				c-1.3,1.6-2.4,3.2-3.7,4.6H154c3.6,0,5.3,1.7,5.3,5.3s-1.7,5.3-5.3,5.3h-38.4C115.6,92.3,77.3,92.3,77.3,92.3z M94.8,154.3
				c-1.4-4,0.3-6,5.6-5.9c0.3,0,0.6,0,0.9,0c1,0,1.6-0.6,1.6-1.6v-10.2l-2.2,2.9c-0.4,0.7-1,1-1.7,1.1c-0.7,0.1-1.3,0-1.9-0.4
				c-2.6-2.2-5.3-3.9-8.2-5.3v17.6c0,3.6-1.9,5.5-5.5,5.5s-5.5-1.9-5.5-5.5v-47.2c0-1.9,0.6-3.4,1.7-4.6c1.1-1.1,2.7-1.7,4.6-1.7
				h11.6h11.6c1.9,0,3.4,0.6,4.6,1.7c1.1,1.1,1.7,2.7,1.7,4.6v41.9c0,2.6-0.3,4.4-0.9,5.9c-0.7,1.4-1.7,2.6-3.2,3.4
				c-2,1-4.6,1.6-8.2,1.7C98.1,158.3,95.8,157,94.8,154.3z M102.8,117.9V111c0-1.6-0.7-2.3-2.3-2.3h-9.3c-1.6,0-2.3,0.7-2.3,2.3v6.5
				l2-2.6c1.1-1.4,2.4-1.9,4.2-1.1c0.4,0.1,1.1,0.6,2.2,1c0.3,0.1,0.4,0.3,0.7,0.4C99.8,116,101.4,116.9,102.8,117.9z M102.8,133.6
				v-12l-1.9,2.6c-0.4,0.7-1,1-1.6,1.1c-0.6,0.1-1.1,0-1.6-0.4c-2.9-2.2-5.9-3.9-8.9-5.2v11.8l1.7-2c0.7-1.1,1.9-1.4,3.2-0.9
				c1,0.4,2.4,1,4,2C99.8,131.6,101.5,132.8,102.8,133.6z M126.8,139.8c-3.6,0-5.5-1.9-5.5-5.5v-14.5v-14.5c0-3.6,1.9-5.5,5.5-5.5
				s5.5,1.9,5.5,5.5v29C132.2,137.9,130.4,139.8,126.8,139.8z M130.5,153.9c-1.6-4.4,0.7-6.6,6.7-6.3c0.4,0,0.9,0,1.6-0.1
				c0.4,0,0.7,0,0.7,0c1.3,0,2-0.7,2-1.7v-42.7c0-3.7,1.9-5.7,5.7-5.7c3.7,0,5.7,1.9,5.7,5.7v18.5v24.2c0,2.9-0.3,5.2-1,6.7
				c-0.7,1.6-2,2.9-3.9,3.7c-2.2,1-5.5,1.6-9.8,2C134.2,158.3,131.7,156.9,130.5,153.9z"/>
			<path class="st1" d="M178.4,152.7c-1.9,0-3.4-0.6-4.6-1.7c-1.1-1.1-1.7-2.7-1.7-4.6v-70c0-1.9,0.6-3.4,1.7-4.6
				c1.1-1.1,2.7-1.7,4.6-1.7h35h35.1c1.9,0,3.4,0.6,4.6,1.7c1.1,1.1,1.7,2.7,1.7,4.6v70c0,1.9-0.6,3.4-1.7,4.6
				c-1.1,1.1-2.7,1.7-4.6,1.7H178.4z M186.4,142h55.8V81.9h-29.1h-26.7c-1.6,0-2.3,0.7-2.3,2.3v55.4
				C184.1,141.1,184.9,142,186.4,142z M199.8,130.6c-1.9,0-3.4-0.6-4.6-1.7c-1.1-1.1-1.7-2.7-1.7-4.6V99.9c0-1.9,0.6-3.4,1.7-4.6
				c1.1-1.1,2.7-1.7,4.6-1.7h26.8c1.9,0,3.4,0.6,4.6,1.7s1.7,2.7,1.7,4.6v24.4c0,1.9-0.6,3.4-1.7,4.6c-1.1,1.1-2.7,1.7-4.6,1.7
				h-13.5H199.8z M206.5,120.4h6.2h6.2c1.6,0,2.3-0.7,2.3-2.3V106c0-1.6-0.7-2.3-2.3-2.3h-12.3c-1.6,0-2.3,0.7-2.3,2.3v12.2
				C204.2,119.7,204.9,120.4,206.5,120.4z"/>
		</g>
	</g>
</g>
</svg>
