<?xml version="1.0" encoding="utf-8"?>
<!-- Generator: Adobe Illustrator 27.0.0, SVG Export Plug-In . SVG Version: 6.00 Build 0)  -->
<svg version="1.1" id="圖層_1" xmlns="http://www.w3.org/2000/svg" xmlns:xlink="http://www.w3.org/1999/xlink" x="0px" y="0px"
	 viewBox="0 0 602.8 99.5" style="enable-background:new 0 0 602.8 99.5;" xml:space="preserve">
<style type="text/css">
	.st0{fill:#FF86AA;}
	.st1{fill:#FFFFFF;}
</style>
<g>
	<g>
		<path class="st0" d="M74.3,95.5L45,85.9c-0.7-0.2-0.4-1.1,0.2-1.1h29.3c0.3,0,0.5,0.2,0.5,0.5v9.5C75,95.4,74.7,95.6,74.3,95.5z"
			/>
		<path class="st0" d="M528.4,95.5l29.3-9.5c0.7-0.2,0.4-1.1-0.2-1.1h-29.3c-0.3,0-0.5,0.2-0.5,0.5v9.5
			C527.6,95.4,528,95.6,528.4,95.5z"/>
		<g>
			<path class="st0" d="M584.8,58.6L602,21.2c0.1-0.2,0-0.4-0.2-0.4h-39.1c-0.1,0-0.3,0.1-0.3,0.3v66.7c0,1-0.7,1.9-1.6,2.1l-24.6,8
				c-0.3,0.1-0.2,0.5,0.1,0.5h65.4c0.2,0,0.3-0.2,0.2-0.4l-17.2-37.4C584.5,60,584.5,59.3,584.8,58.6z"/>
			<path class="st0" d="M40.3,87.8V21.2c0-0.2-0.2-0.4-0.4-0.4H1.1c-0.3,0-0.4,0.3-0.3,0.5l17.1,37.2c0.3,0.7,0.3,1.4,0,2.2
				L0.8,97.9c-0.1,0.2,0.1,0.5,0.3,0.5h64.7c0.4,0,0.5-0.7,0.1-0.8l-24-7.8C40.9,89.7,40.3,88.9,40.3,87.8z"/>
			<path class="st0" d="M558,20.9v-4.4v-14c0-0.2-0.2-0.4-0.4-0.4H45.1c-0.2,0-0.4,0.2-0.4,0.4v14v4.4v64.4c0,0.2,0.2,0.4,0.4,0.4
				h27.6h4.4h448.4h4.4h27.6c0.2,0,0.4-0.2,0.4-0.4V20.9z"/>
		</g>
	</g>
	<g>
		<g>
			<path class="st1" d="M64.4,43.8c-1.2,0-1.8-0.5-1.8-1.8v-2.4c0-0.7,0.2-1.1,0.5-1.4s0.9-0.5,1.4-0.5h9.4v-1.2c0-0.7,0.3-1,1-1
				h0.3c-0.2-0.1-0.5-0.3-1-0.5c-0.2-0.1-0.2-0.2-0.2-0.3c0-0.1,0.1-0.3,0.2-0.4c0,0,0,0,0.1-0.1l0.1-0.1H71c0,0,0.1,0.1,0.1,0.2
				c0,0.1,0.1,0.2,0.1,0.2c0.4,1.1,0.1,1.8-1,2.1c-1.1,0.3-1.8,0-2.2-1c-0.3-0.7-0.7-1.2-0.8-1.5h-0.5c-0.4,0.5-0.9,1.2-1.4,1.9
				c-0.3,0.4-0.8,0.7-1.1,0.7c-0.3,0-0.8-0.1-1.2-0.4c-0.7-0.4-1-0.8-1-1.2c0-0.4,0.2-0.9,0.8-1.4c1-1.1,1.8-2.2,2.3-3.3
				c0.4-1,1.3-1.4,2.4-1.1c1.1,0.3,1.4,1,1,2h5.6c0.3,0,0.7,0.1,0.9,0.3c0.2,0.2,0.3,0.5,0.3,0.9v0.1c0,0.4,0.2,0.5,0.5,0.2
				c0.7-0.7,1.2-1.5,1.8-2.5c0.4-1,1.3-1.3,2.4-1.1c1.2,0.2,1.5,1,1,2.1h7.6c1,0,1.4,0.4,1.4,1.4c0,1-0.4,1.4-1.4,1.4h-3.6
				c0,0,0.1,0.1,0.2,0.2c0.1,0.1,0.1,0.2,0.2,0.2c0.7,1.1,0.3,1.8-0.9,2.1c-1.1,0.3-1.8,0-2.3-0.9C82,35,81.5,34.4,81,33.7h-1.8
				c-0.5,0.7-1.1,1.3-1.8,1.9v1.6h9.9c0.7,0,1.1,0.2,1.4,0.5c0.3,0.3,0.5,0.9,0.5,1.4v2.4c0,1.2-0.5,1.8-1.8,1.8
				c-1.2,0-1.9-0.5-1.9-1.8v-0.9c0-0.5-0.2-0.8-0.8-0.8h-9h-9.1c-0.5,0-0.8,0.2-0.8,0.8v1C66,43.1,65.5,43.8,64.4,43.8z M69.4,57.3
				c-0.7,0-1.1-0.2-1.4-0.5c-0.3-0.3-0.5-0.9-0.5-1.4V43.7c0-0.7,0.2-1.1,0.5-1.4c0.3-0.3,0.9-0.5,1.4-0.5h6.5h6.6
				c0.7,0,1.1,0.2,1.4,0.5c0.3,0.3,0.5,0.9,0.5,1.4v3c0,0.7-0.2,1.1-0.5,1.4c-0.3,0.3-0.9,0.5-1.4,0.5H71v1.4h13.8
				c0.7,0,1.1,0.2,1.4,0.5c0.3,0.3,0.5,0.9,0.5,1.4v3.2c0,0.7-0.2,1.1-0.5,1.4c-0.3,0.3-0.9,0.5-1.4,0.5H69.4V57.3z M71,46h4.9h4.2
				c0.5,0,0.8-0.2,0.8-0.8v-0.1c0-0.4-0.2-0.8-0.8-0.8h-8.4c-0.5,0-0.8,0.2-0.8,0.8V46H71z M71.8,54.6h5.4h5.4
				c0.5,0,0.8-0.2,0.8-0.8v-0.2c0-0.5-0.2-0.8-0.8-0.8H71v1C71,54.3,71.2,54.6,71.8,54.6z"/>
			<path class="st1" d="M94.9,54.7c-0.3-0.2-0.7-0.7-0.8-1.3c-0.2-1.2,0.2-2,1.3-2.3c0.2-0.1,0.5-0.2,1.1-0.3c0.4-0.1,0.8-0.2,1-0.3
				V43h-1.4c-1.1,0-1.6-0.5-1.6-1.8c0-1.1,0.5-1.6,1.6-1.6h1.4v-5.5h-1.6c-1.1,0-1.8-0.5-1.8-1.8c0-1.1,0.5-1.8,1.8-1.8h3.4h3.4
				c1.1,0,1.8,0.5,1.8,1.8s-0.5,1.8-1.8,1.8H101v5.5h1.1c1.1,0,1.6,0.5,1.6,1.6s-0.5,1.8-1.6,1.8H101v6.3c0.1,0,0.3-0.1,0.7-0.2
				c0.2-0.1,0.4-0.1,0.5-0.2c1.2-0.4,2,0,2.2,1.3c0.2,1.1-0.2,1.8-1.2,2.1c-2.3,0.8-4.6,1.5-6.8,2.3C95.8,54.9,95.2,54.9,94.9,54.7z
				 M104.9,57.1c-1.1,0-1.6-0.5-1.6-1.6c0-1.1,0.5-1.6,1.6-1.6h6.8v-3H107c-1.1,0-1.6-0.5-1.6-1.6c0-1.1,0.5-1.6,1.6-1.6h4.7v-2.9
				h-4.2c-0.7,0-1.1-0.2-1.4-0.5c-0.3-0.3-0.5-0.9-0.5-1.4V32.2c0-0.7,0.2-1.1,0.5-1.4c0.3-0.3,0.9-0.5,1.4-0.5h12.1
				c0.7,0,1.1,0.2,1.4,0.5c0.3,0.3,0.5,0.9,0.5,1.4v10.5c0,0.7-0.2,1.1-0.5,1.4c-0.3,0.3-0.9,0.5-1.4,0.5h-4.2v2.7h4.9
				c1.1,0,1.6,0.5,1.6,1.6s-0.5,1.6-1.6,1.6h-4.9v3h5.9c1.1,0,1.6,0.5,1.6,1.6s-0.5,1.6-1.6,1.6h-8.2h-8.2V57.1z M108.8,35.9h3.2
				v-2.6h-1.6h-0.9c-0.4,0-0.7,0.2-0.7,0.7V35.9z M109.6,41.6h2.4v-2.7h-1.6h-1.5v2C108.8,41.3,109.1,41.6,109.6,41.6z M115.2,35.9
				h1.5h1.5V34c0-0.5-0.2-0.8-0.8-0.8h-2.3L115.2,35.9L115.2,35.9z M115.2,41.6h1.5h0.9c0.4,0,0.7-0.2,0.7-0.7v-2.1h-3.1V41.6z"/>
			<path class="st1" d="M128,56.5c-1.2-1.1-0.9-2.3,1-3.4c3.7-2.9,6.5-6.8,7.9-12c0.8-2.9,1.3-6.3,1.4-10.3c0-0.5,0.2-1,0.5-1.1
				c0.2-0.1,0.8-0.1,1.5-0.1c0.1,0,0.1,0,0.1,0c0.5,0,1.1,0.1,1.4,0.4c0.3,0.3,0.5,0.8,0.4,1.3c0,0,0,0,0,0.1
				c0.2,3.4,0.8,6.7,1.9,9.8c1.8,5,4.5,8.9,8.2,11.5c0.9,0.5,1.5,1.1,1.9,1.8c0.4,0.8,0.3,1.4-0.2,2.1c-0.8,0.9-1.9,1-3.3,0.2
				c-4.8-3.2-8.2-8-10.2-14.6c-1.8,6.1-4.9,11-9.4,14.4C130,57.4,128.9,57.4,128,56.5z"/>
			<path class="st1" d="M167.3,56.5c-1.6,0-3.2-0.5-4.7-1.6c-1.6-1.2-2.5-2.6-2.5-4.1c0-1.3,0.7-2.5,2-3.9c1.2-1.2,2.9-2.3,4.8-3.2
				c0-0.4,0-1.2,0-2.1v-2.5c-0.8,0-1.3,0.1-1.6,0.1c-1.1,0-2,0-2.5,0c-1.1-0.1-1.8-0.7-1.8-1.9c0-0.7,0.2-1.1,0.7-1.4s1-0.4,1.6-0.3
				c0.4,0,1.1,0.1,1.9,0.1c0.3,0,1,0,1.8-0.1c0-0.7,0-1.5,0-2.5c0-0.1,0-0.2,0-0.3c-0.2-1.5,0.4-2.4,1.9-2.4s2,0.8,1.9,2.3
				c0,0,0,0.1,0,0.2s0,0.1,0,0.2c0,0.4,0,1.2-0.1,2.2c1.3-0.2,2.5-0.4,3.6-0.7c1.3-0.3,2,0.2,2.1,1.6c0,1.1-0.4,1.8-1.4,2
				c-1.2,0.2-2.6,0.4-4.3,0.7c0,0.7,0,1.5,0,2.7v1.1c2.1-0.5,4.1-0.8,5.8-0.8c2.4,0,4.4,0.5,5.9,1.8c1.6,1.2,2.4,2.9,2.4,4.9
				c0,3.8-2.2,6.4-6.7,7.5c-0.9,0.2-1.8,0.3-2.4,0.3c-1.1,0.1-1.8-0.4-2.1-1.4c-0.5-1.5,0-2.4,1.8-2.4c0.5,0,0.9-0.1,1.1-0.1
				c1.3-0.2,2.4-0.7,3.2-1.3c0.9-0.7,1.3-1.5,1.3-2.6c0-1-0.4-1.8-1.2-2.4c-0.8-0.5-1.9-0.9-3.2-0.9c-1.9,0-3.7,0.2-5.7,0.8
				c0,0.7,0,1.5,0.1,2.7c0,1.6,0.1,2.6,0.1,3.1c0,1.8-0.3,3.1-1,3.8C169.3,56.2,168.4,56.5,167.3,56.5z M166.1,52.5
				c0.7,0,1-0.4,1-1.3c0-0.9,0-2.2-0.1-3.7c-1,0.4-1.6,1-2.3,1.6c-0.5,0.5-0.9,1.2-0.9,1.6s0.2,0.9,0.8,1.2
				C165.2,52.3,165.7,52.5,166.1,52.5z M183.9,40.1c-1.3-0.9-2.7-1.8-4.5-2.7c-1-0.4-1.1-1.2-0.5-2.3c0.5-1,1.3-1.2,2.2-0.8
				c1,0.5,1.9,1,2.6,1.4c0.8,0.4,1.5,0.9,2.2,1.3c0.4,0.3,0.8,0.7,0.8,1c0.1,0.3-0.1,0.8-0.3,1.2c-0.3,0.7-0.7,1-1,1.1
				C184.9,40.6,184.4,40.4,183.9,40.1z"/>
			<path class="st1" d="M198.8,56.9c-0.5-0.1-1-0.3-1.3-0.7c-0.7-0.7-1-1.3-0.8-1.9c0.2-0.5,0.9-0.9,1.9-1.2
				c1.8-0.7,3.2-1.5,4.2-2.5c-0.4,0.1-1,0.1-1.4,0.1c-1.3,0-2.5-0.4-3.5-1.4c-1.2-1.1-1.8-2.4-1.8-4.2c0-1.6,0.7-3.1,1.9-4.2
				c1.1-1.1,2.5-1.5,4.3-1.5c0.4,0,0.9,0,1.2,0.1v-2.1c-4.3,0.1-8,0.2-11.4,0.3c-0.7,0-1-0.1-1.3-0.3c-0.2-0.2-0.4-0.8-0.4-1.3
				c0-0.7,0.1-1.1,0.3-1.4c0.2-0.3,0.7-0.4,1.2-0.4c1.4,0,3.8-0.1,7.4-0.1c2,0,3.4-0.1,4.3-0.1c0-0.4,0-0.8,0-1v-0.1
				c-0.1-0.9,0-1.5,0.3-1.9c0.3-0.4,0.9-0.7,1.6-0.7c0.8,0,1.3,0.2,1.6,0.7c0.3,0.4,0.4,1,0.3,1.9c0,0,0,0,0,0.1c0,0.1,0,0.2,0,0.3
				c0,0.2,0,0.4,0,0.5c0.5,0,1.4,0,2.5,0c2.4,0,4.1,0,4.9,0c0.5,0,0.9,0.1,1.1,0.4c0.1,0.2,0.2,0.7,0.2,1.3s-0.1,1.1-0.2,1.3
				c-0.2,0.3-0.5,0.4-1.1,0.4c-2.4,0-4.9-0.1-7.5-0.1c0,1,0,2.5,0,4.5c0.8,1.1,1.1,2.5,1.1,4.2c0,2.3-0.7,4.4-2.1,6.3
				c-1.4,1.9-3.4,3.3-5.8,4.3C199.8,56.9,199.2,57,198.8,56.9z M202,47.3c0.8,0,1.3-0.2,1.6-0.8c0.4-0.7,0.5-1.5,0.3-2.7
				c-0.4-0.7-1.1-1.1-2-1.1c-0.7,0-1.2,0.2-1.6,0.5c-0.4,0.4-0.8,1.1-0.8,1.9c0,0.7,0.2,1.2,0.8,1.6C200.9,47.2,201.4,47.3,202,47.3
				z"/>
			<path class="st1" d="M227.6,56.9c-0.5-0.1-1-0.3-1.3-0.7c-0.7-0.7-1-1.3-0.8-1.9c0.2-0.5,0.9-0.9,1.9-1.2
				c1.8-0.7,3.2-1.5,4.2-2.5c-0.4,0.1-1,0.1-1.4,0.1c-1.3,0-2.5-0.4-3.5-1.4c-1.2-1.1-1.8-2.4-1.8-4.2c0-1.6,0.7-3.1,1.9-4.2
				c1.1-1.1,2.5-1.5,4.3-1.5c0.4,0,0.9,0,1.2,0.1v-2.1c-4.3,0.1-8,0.2-11.4,0.3c-0.7,0-1-0.1-1.3-0.3c-0.2-0.2-0.4-0.8-0.4-1.3
				c0-0.7,0.1-1.1,0.3-1.4c0.2-0.3,0.7-0.4,1.2-0.4c1.4,0,3.8-0.1,7.4-0.1c2,0,3.4-0.1,4.3-0.1c0-0.4,0-0.8,0-1v-0.1
				c-0.1-0.9,0-1.5,0.3-1.9c0.3-0.4,0.9-0.7,1.6-0.7c0.8,0,1.3,0.2,1.6,0.7c0.3,0.4,0.4,1,0.3,1.9c0,0,0,0,0,0.1c0,0.1,0,0.2,0,0.3
				c0,0.2,0,0.4,0,0.5c0.5,0,1.4,0,2.5,0c2.4,0,4.1,0,4.9,0c0.5,0,0.9,0.1,1.1,0.4c0.1,0.2,0.2,0.7,0.2,1.3s-0.1,1.1-0.2,1.3
				c-0.2,0.3-0.5,0.4-1.1,0.4c-2.4,0-4.9-0.1-7.5-0.1c0,1,0,2.5,0,4.5c0.8,1.1,1.1,2.5,1.1,4.2c0,2.3-0.7,4.4-2.1,6.3
				c-1.4,1.9-3.4,3.3-5.8,4.3C228.5,56.9,228.1,57,227.6,56.9z M230.8,47.3c0.8,0,1.3-0.2,1.6-0.8c0.4-0.7,0.5-1.5,0.3-2.7
				c-0.4-0.7-1.1-1.1-2-1.1c-0.7,0-1.2,0.2-1.6,0.5c-0.4,0.4-0.8,1.1-0.8,1.9c0,0.7,0.2,1.2,0.8,1.6
				C229.6,47.2,230.2,47.3,230.8,47.3z"/>
			<path class="st1" d="M263.2,55.5c-0.4-0.7-0.4-1.3,0.1-2c0.5-0.5,1.3-0.9,2.3-1.1c1.9-0.7,3.2-1.5,4.1-2.9
				c0.9-1.2,1.2-2.5,1.2-4.1c0-1.6-0.4-3.1-1.3-4.3c-0.9-1.2-2.1-2-3.6-2.4c-1.2,4.2-2.6,7.4-4.1,9.7l0.1,0.1c0,0.1,0.1,0.1,0.1,0.1
				c1,1,0.9,2-0.3,3c-0.9,0.7-1.6,0.7-2.3-0.2c-1.1,1.1-2.1,2-3,2.5c-1,0.5-2,0.8-3.1,0.8c-1.3,0-2.4-0.5-3.4-1.5
				c-1-1.1-1.4-2.6-1.4-4.5c0-1.8,0.4-3.5,1.2-5.2c0.8-1.8,1.9-3.2,3.3-4.4c-0.3-1-0.7-1.8-0.8-2.4c0-0.1-0.1-0.2-0.1-0.4
				c-0.1-0.2-0.1-0.4-0.2-0.5c-0.5-1.4-0.2-2.3,1.1-2.7c1.3-0.4,2.1,0.1,2.5,1.5c0.1,0.3,0.1,0.5,0.2,0.8c0.2,0.5,0.3,1.2,0.5,1.9
				c2.1-1.1,4.4-1.8,6.8-1.9c0.1-0.3,0.2-0.9,0.3-1.4c0-0.2,0.1-0.4,0.1-0.5c0-0.8,0.2-1.3,0.5-1.8c0.3-0.3,0.9-0.4,1.6-0.4
				c1.4,0.1,2,1,1.5,2.6c-0.1,0.3-0.1,0.5-0.1,0.7l-0.2,1.2c2.4,0.5,4.3,1.8,5.8,3.5c1.4,1.9,2.2,4.1,2.2,6.7c0,3.1-1,5.6-3.1,7.6
				c-1.5,1.5-3.6,2.5-6.3,3.2C264.5,56.6,263.8,56.4,263.2,55.5z M254,50.8c1,0,2.1-0.8,3.3-2.3c-0.3-0.7-0.9-1.4-1.4-2.6
				c-0.4-1-1-2.1-1.4-3.2c-0.7,0.9-1.2,1.8-1.6,2.7c-0.4,1-0.5,2-0.5,3c0,0.8,0.1,1.3,0.4,1.8C253,50.6,253.5,50.8,254,50.8z
				 M259.6,45.1c0.5-1,1.1-2,1.5-3.2c0.4-1,0.9-2.1,1.2-3.4c-1.8,0.2-3.4,0.8-4.8,1.6C258.2,42.3,258.8,43.8,259.6,45.1z"/>
			<path class="st1" d="M295.4,56c-0.5-0.2-1-0.4-1.2-0.9c-1-1.5-0.5-2.4,1.2-2.7c0,0,0,0,0.1,0c0.1,0,0.1,0,0.1,0
				c2.1-0.5,3.7-1.4,4.9-2.7c1.3-1.5,2-3.3,2-5.4c0-2.1-0.5-3.8-1.6-5.3c-1.1-1.4-2.7-2.4-4.7-2.7c-0.5,3.2-1.1,5.9-1.8,8.2
				c-1,3.2-2.1,5.6-3.3,7.2c-1.3,1.8-2.9,2.6-4.5,2.6c-1.8,0-3.2-0.9-4.4-2.5c-1.2-1.8-1.9-3.8-1.9-6.4c0-1.8,0.3-3.4,1.1-4.9
				c0.7-1.5,1.6-3,3-4.2c1.3-1.2,2.7-2.2,4.5-2.9c1.8-0.7,3.6-1,5.5-1c3.6,0,6.7,1.1,9,3.4c2.2,2.2,3.3,5,3.3,8.4
				c0,3-0.8,5.4-2.4,7.5c-1.6,2.1-4.1,3.5-7.2,4.3C296.4,56.2,295.8,56.2,295.4,56z M286.6,49.7c1.3,0,2.5-2,3.7-6
				c0.7-2.1,1.2-4.5,1.6-7.4c-2.4,0.5-4.3,1.6-5.7,3.6c-1.3,1.6-2,3.4-2,5.3c0,1.4,0.2,2.6,0.8,3.4
				C285.4,49.3,285.9,49.7,286.6,49.7z"/>
			<path class="st1" d="M327.1,56.5c-1.2,0-2.4,0-3.6-0.1c-1.2-0.1-1.9-0.7-1.9-1.9c-0.1-1.5,0.7-2.1,2.2-2h0.1
				c0.8,0,1.3,0.1,1.5,0.1c0.7,0,1.1-0.4,1.1-1.3c0-3.4,0-6.1-0.1-8.2c-1.2,1.5-2.7,3.2-4.7,4.9c-2,1.8-4.1,3.3-6.3,4.5
				c-1.1,0.7-2,0.4-2.7-0.4c-0.5-0.7-0.7-1.2-0.5-1.8c0.2-0.5,0.7-1,1.4-1.4c2.3-1.3,4.5-2.9,6.5-4.6c1.9-1.6,3.4-3.2,4.5-4.7h-8.3
				c-0.7,0-1.1,0-1.4,0c-1.4,0.1-2.1-0.5-2.1-1.9c0-1.4,0.8-2.1,2.2-1.9c0.3,0,0.7,0,1.2,0h5h5c0-0.7,0-1.4-0.1-2.2
				c0-0.1,0-0.3-0.1-0.7c-0.1-0.8,0-1.4,0.3-1.9c0.3-0.4,0.9-0.7,1.6-0.7c0.8,0,1.3,0.2,1.6,0.5c0.3,0.4,0.4,1,0.3,1.9
				c0,0.2,0,0.4,0,0.7v2.2h3.8c0.4,0,0.8,0,1,0c1.5-0.1,2.2,0.4,2.2,1.9c0,1.3-0.7,1.9-2.1,1.9c-0.2,0-0.5,0-0.9,0H330
				c0.1,4.8,0.2,9.4,0.2,13.7C330.6,55.4,329.4,56.5,327.1,56.5z"/>
			<path class="st1" d="M344,55.1l-0.5-0.8c-0.3-0.5-0.4-1.1-0.2-1.5c0.2-0.4,0.8-0.8,1.5-0.9c3.5-0.8,6.6-2,9.2-3.6
				c2.2-1.3,4.2-2.9,6-4.7c1.6-1.6,3.1-3.5,4.3-5.4c0.2-0.5,0.7-0.8,1-0.8c0.4,0,0.8,0.3,1.1,1v0.1l0.7,1.2c0.3,0.7,0.3,1.3,0,1.9
				c-1.2,2-2.7,3.8-4.6,5.7c-1.9,1.9-3.9,3.5-6.3,4.8c-3.2,2-6.5,3.3-9.8,4.1C345.4,56.2,344.5,55.9,344,55.1z M349.5,40.2
				c-1.2-1.2-2.7-2.5-4.6-3.9c-1.1-0.9-1.2-1.9-0.1-3c0.4-0.4,0.9-0.8,1.2-0.9c0.4-0.1,0.9,0,1.4,0.4c1,0.8,1.9,1.4,2.7,2.2
				c0.8,0.7,1.5,1.3,2.4,2.1c0.5,0.4,0.8,1,0.7,1.4c0,0.4-0.3,0.9-0.8,1.4c-0.5,0.5-1.1,0.9-1.5,1C350.6,41,350,40.7,349.5,40.2z"/>
			<path class="st1" d="M378.1,55.8c-0.7-0.8-0.9-1.4-0.5-2c0.3-0.5,1-1,2-1.2c2.9-1,5.3-2.5,7.2-4.4c1.4-1.4,2.5-3.2,3.2-5.4h-14.8
				c-0.4,0-0.9,0-1.2,0c-1.5,0.1-2.3-0.5-2.3-1.9s0.8-2,2.2-1.9c0.3,0,0.8,0,1.3,0h7.6h7.6c0.5,0,1.1,0,1.4-0.1
				c0.5-0.1,1.1,0,1.6,0.3l0.8,0.4c0.8,0.4,1,1.1,0.5,1.9c0,0,0,0,0,0.1c-1.1,3.5-2.6,6.4-4.6,8.4c-2.5,2.9-5.6,4.8-9.4,6.1
				C379.7,56.9,378.9,56.5,378.1,55.8z M374.4,33.7c0-0.7,0.2-1.2,0.5-1.5c0.3-0.3,0.9-0.4,1.6-0.3c0.3,0,0.8,0,1.1,0h5.9h5.9
				c0.4,0,0.8,0,1.2,0c1.4-0.1,2.2,0.5,2.2,1.9c0,0.7-0.1,1.2-0.4,1.4c-0.3,0.3-0.9,0.4-1.5,0.3c-0.4,0-0.9,0-1.4,0h-11.7
				c-0.3,0-0.8,0-1.2,0C375,35.6,374.4,35,374.4,33.7z"/>
			<path class="st1" d="M413.3,56.5c-0.3,0-0.5-0.1-0.8-0.2c-0.2-0.2-0.2-0.3-0.2-0.5c0.1-1.2,0.1-2.3,0.1-3.2V42.5
				c-3,1.5-5.9,2.7-8.8,3.6c-1.1,0.3-2,0-2.6-1c-0.4-0.8-0.5-1.3-0.2-1.9c0.3-0.5,0.9-0.9,1.6-1.1c4.1-1.2,7.8-2.7,11.2-4.8
				c2.5-1.5,4.7-3.4,6.7-5.4c0.5-0.5,1-0.9,1.4-0.9s1,0.2,1.5,0.8c0.5,0.5,0.9,1,0.9,1.5c0,0.4-0.2,1-0.8,1.5c-2.2,2-4.4,3.6-6.6,5
				v12.5c0,0.5,0,1.3,0.1,2.3c0.1,0.4-0.1,0.9-0.3,1.2c-0.3,0.3-0.8,0.4-1.3,0.4h-0.5h-1.4V56.5z"/>
			<path class="st1" d="M431.3,55.1l-0.5-0.8c-0.3-0.5-0.4-1.1-0.2-1.5c0.2-0.4,0.8-0.8,1.5-0.9c3.5-0.8,6.6-2,9.2-3.6
				c2.2-1.3,4.2-2.9,6-4.7c1.6-1.6,3.1-3.5,4.3-5.4c0.2-0.5,0.7-0.8,1-0.8c0.4,0,0.8,0.3,1.1,1v0.1l0.7,1.2c0.3,0.7,0.3,1.3,0,1.9
				c-1.2,2-2.7,3.8-4.6,5.7c-1.9,1.9-3.9,3.5-6.3,4.8c-3.2,2-6.5,3.3-9.8,4.1C432.7,56.2,431.9,55.9,431.3,55.1z M436.8,40.2
				c-1.2-1.2-2.7-2.5-4.6-3.9c-1.1-0.9-1.2-1.9-0.1-3c0.4-0.4,0.9-0.8,1.2-0.9c0.4-0.1,0.9,0,1.4,0.4c1,0.8,1.9,1.4,2.7,2.2
				c0.8,0.7,1.5,1.3,2.4,2.1c0.5,0.4,0.8,1,0.7,1.4c0,0.4-0.3,0.9-0.8,1.4c-0.5,0.5-1.1,0.9-1.5,1C437.9,41,437.3,40.7,436.8,40.2z"
				/>
			<path class="st1" d="M460.3,55.4c-0.8-0.7-1.1-1.2-1.1-1.6c0-0.5,0.4-1,1.2-1.5c0.7-0.4,1.2-1,1.6-1.5c1.4-1.4,2.5-3,3.4-4.7
				c0.8-1.8,1.3-3.8,1.6-6.1H463c-0.7,0-1.2,0-1.9,0c-1.5,0.1-2.2-0.5-2.2-1.9c0-1.3,0.8-2,2.2-1.9c0.4,0,1.1,0,1.9,0h4.4
				c0-1.1,0.1-2,0.1-2.6c0-0.1,0-0.2,0-0.3c-0.2-1.6,0.5-2.5,2.1-2.5c0.8,0,1.3,0.2,1.6,0.7c0.3,0.4,0.4,1,0.3,1.9
				c0,0.1,0,0.2,0,0.2c0,1.2-0.1,2.1-0.1,2.7h5.8c0.3,0,0.8,0,1.4-0.1c0.7-0.1,1.2,0,1.8,0.3l0.5,0.3c0.8,0.4,1.1,1.1,1,2
				c0,0.1,0,0.1,0,0.2c-0.2,7.7-0.8,12.7-1.8,15c-0.3,0.8-0.9,1.4-1.4,1.8c-0.7,0.4-1.5,0.5-2.5,0.5c-0.8,0-1.9,0-3.3-0.1
				c-1.2-0.1-1.9-0.7-2-1.9c-0.2-1.5,0.5-2.3,2.3-2.1c0.7,0.1,1.2,0.1,1.8,0.1c0.9,0,1.4-0.3,1.8-1.1c0.4-0.9,0.8-2.6,1-5.2
				c0.2-2.2,0.3-4.2,0.3-6.3h-3.4h-3.4c-0.5,3.6-1.4,6.7-2.7,9.2c-1.3,2.4-3.1,4.6-5.4,6.5C462.1,56.2,461.2,56.2,460.3,55.4z"/>
			<path class="st1" d="M493.8,44.8c-1.4-1-2.7-1.8-3.7-2.3c-1.1-0.7-1.3-1.5-0.5-2.7c0.7-1.1,1.5-1.3,2.5-0.8
				c0.2,0.1,0.4,0.2,0.8,0.5c0.7,0.3,1.1,0.7,1.4,0.9c0.2,0.2,0.7,0.4,1.2,0.8c0.3,0.2,0.5,0.3,0.7,0.4c1,0.7,1.1,1.5,0.3,2.6
				C495.8,45.2,494.8,45.4,493.8,44.8z M492,56.4c-0.3-0.2-0.7-0.5-1-1.1c-0.9-1.6-0.4-2.6,1.3-3c2.9-0.7,5.5-1.6,7.8-3
				c4.5-2.5,8.1-5.8,10.8-9.7c0.3-0.5,0.8-0.8,1.1-0.8c0.4,0,0.8,0.3,1.1,1v0.1l0.7,1.2c0.3,0.7,0.3,1.2-0.1,1.8
				c-2.7,3.8-6.7,7.2-11.6,10.2c-2.6,1.5-5.6,2.6-8.8,3.5C492.9,56.6,492.3,56.6,492,56.4z M498.6,37.8c-1.4-1-2.7-1.8-3.7-2.3
				c-1.1-0.7-1.3-1.5-0.5-2.7c0.7-1.1,1.5-1.3,2.5-0.8c0.2,0.1,0.4,0.3,0.9,0.5c0.5,0.3,1,0.5,1.2,0.8c0.9,0.5,1.5,1,1.9,1.2
				c0.5,0.3,0.9,0.8,0.9,1.2c0,0.4-0.1,0.9-0.5,1.4s-0.8,1-1.2,1.1C499.6,38.3,499.1,38.2,498.6,37.8z M508.1,36.1
				c-0.5-0.9-0.9-1.6-1.2-2.1c-0.5-0.9-0.3-1.5,0.5-1.9c0.8-0.3,1.3-0.1,1.8,0.4c0.3,0.4,0.7,1,0.9,1.4c0,0.1,0.1,0.2,0.2,0.3
				c0.2,0.3,0.3,0.7,0.4,0.8c0.4,0.9,0.2,1.4-0.7,1.9C509.2,37.3,508.6,37.1,508.1,36.1z M512.5,34.6c-0.1-0.1-0.1-0.2-0.3-0.4
				c-0.2-0.3-0.3-0.5-0.4-0.8c-0.1-0.1-0.2-0.3-0.3-0.5c-0.1-0.1-0.1-0.2-0.1-0.2c-0.7-0.9-0.4-1.5,0.5-2c0.7-0.3,1.3-0.2,1.8,0.4
				c0.3,0.4,0.8,1.2,1.4,2.2c0.1,0.1,0.1,0.2,0.1,0.3c0.4,0.8,0.2,1.4-0.7,1.9C513.6,35.7,512.9,35.5,512.5,34.6z"/>
			<path class="st1" d="M522.7,55.9c-0.4-0.1-0.9-0.3-1.2-0.7l-0.7-0.7l-1-1c-0.5-0.5-0.4-1,0.3-1.2c2.1-0.9,4.1-2,5.9-3.3
				c1.8-1.3,3.3-2.7,4.6-4.3c1.2-1.5,2.3-3.3,3.3-5.4c0.9-2,1.6-3.9,2.1-6c0.1-0.5,0.4-1,0.9-1.3c0.4-0.3,1-0.3,1.6-0.1l0.5,0.1
				c0.7,0.2,1.1,0.5,1.3,1c0.2,0.4,0.2,1.1,0,1.8c-0.1,0.1-0.1,0.3-0.2,0.7c-0.1,0.3-0.2,0.4-0.2,0.7c-1.9,5-3.7,8.8-5.8,11.3
				c-1.2,1.5-2.7,3.1-4.4,4.5c-1.9,1.5-3.7,2.9-5.7,3.8C523.7,55.9,523.1,56,522.7,55.9z"/>
		</g>
	</g>
</g>
</svg>
