<?xml version="1.0" encoding="utf-8"?>
<!-- Generator: Adobe Illustrator 27.0.0, SVG Export Plug-In . SVG Version: 6.00 Build 0)  -->
<svg version="1.1" id="圖層_1" xmlns="http://www.w3.org/2000/svg" xmlns:xlink="http://www.w3.org/1999/xlink" x="0px" y="0px"
	 viewBox="0 0 326.7 226.1" style="enable-background:new 0 0 326.7 226.1;" xml:space="preserve">
<style type="text/css">
	.st0{fill:#47CFB9;}
	.st1{fill:#2AA890;}
	.st2{fill:#FFFFFF;}
</style>
<g>
	<path class="st0" d="M296.6,217.7H30.2c-10.3,0-18.6-8.3-18.6-18.6V27c0-10.3,8.3-18.6,18.6-18.6h266.2c10.3,0,18.6,8.3,18.6,18.6
		v172C315.1,209.4,306.8,217.7,296.6,217.7z"/>
	<path class="st1" d="M296.6,225H30.2C16,225,4.3,213.3,4.3,199.1V27C4.3,12.8,16,1.1,30.2,1.1h266.2c14.3,0,25.9,11.7,25.9,25.9
		v172C322.4,213.3,310.9,225,296.6,225z M30.2,15.7c-6.3,0-11.4,5.1-11.4,11.4v172c0,6.3,5.1,11.4,11.4,11.4h266.2
		c6.3,0,11.4-5.1,11.4-11.4V27c0-6.3-5.1-11.4-11.4-11.4H30.2z"/>
	<g>
		<g>
			<path class="st2" d="M76.1,93c-3.6,0-5.4-1.7-5.4-5.4c0-3.6,1.7-5.4,5.4-5.4h15.1c-0.6-1.3-1.5-2.9-2.8-4.7
				c-1.5-1.9-2-3.6-1.6-5.1c0.4-1.5,1.7-2.6,4.1-3.5c2.8-0.9,5.1-0.3,7.1,2c1.5,1.9,2.9,3.8,4.2,5.8c0.6,1,0.6,2,0.1,3.1
				c-0.4,1-1.2,1.7-2.5,2.2l-0.3,0.1h29.7l-2.3-0.7c-1.2-0.4-1.3-1.2-0.7-1.9c1.9-2.5,3.6-5.1,5.1-7.6c1.9-3.3,4.7-4.5,8.3-3.3
				c5,1.5,5.7,4.5,2.2,8.9c-1.3,1.6-2.5,3.2-3.8,4.7h16c3.6,0,5.4,1.7,5.4,5.4s-1.7,5.4-5.4,5.4h-39C115.1,93,76.1,93,76.1,93z
				 M93.9,156.1c-1.5-4.1,0.3-6.1,5.7-6c0.3,0,0.6,0,0.9,0c1,0,1.6-0.6,1.6-1.6v-10.3l-2.2,2.9c-0.4,0.7-1,1-1.7,1.2
				c-0.7,0.1-1.3,0-1.9-0.4c-2.6-2.2-5.4-3.9-8.3-5.4v17.9c0,3.6-1.9,5.5-5.5,5.5s-5.5-1.9-5.5-5.5v-47.9c0-1.9,0.6-3.5,1.7-4.7
				c1.2-1.2,2.8-1.7,4.7-1.7H95h11.8c1.9,0,3.5,0.6,4.7,1.7c1.2,1.2,1.7,2.8,1.7,4.7V149c0,2.6-0.3,4.5-0.9,6
				c-0.7,1.5-1.7,2.6-3.2,3.5c-2,1-4.7,1.6-8.3,1.7C97.2,160,94.9,158.7,93.9,156.1z M102,118.9v-7c0-1.6-0.7-2.3-2.3-2.3h-9.3
				c-1.6,0-2.3,0.7-2.3,2.3v6.6l2-2.6c1.2-1.5,2.5-1.9,4.2-1.2c0.4,0.1,1.2,0.6,2.2,1c0.3,0.1,0.4,0.3,0.7,0.4
				C99,117.1,100.6,118.1,102,118.9z M102,135.1v-12.2l-1.9,2.6c-0.4,0.7-1,1-1.6,1.2c-0.6,0.1-1.2,0-1.6-0.4c-2.9-2.2-6-3.9-9-5.2
				v11.9l1.7-2c0.7-1.2,1.9-1.5,3.2-0.9c1,0.4,2.5,1,4.1,2C99.1,132.9,100.7,134.1,102,135.1z M126.4,141.2c-3.6,0-5.5-1.9-5.5-5.5
				V121v-14.7c0-3.6,1.9-5.5,5.5-5.5s5.5,1.9,5.5,5.5v29.4C131.9,139.3,130,141.2,126.4,141.2z M130.1,155.5
				c-1.6-4.5,0.7-6.7,6.8-6.4c0.4,0,0.9,0,1.6-0.1c0.4,0,0.7,0,0.7,0c1.3,0,2-0.7,2-1.7v-43.4c0-3.8,1.9-5.8,5.8-5.8
				c3.8,0,5.8,1.9,5.8,5.8v18.8v24.6c0,2.9-0.3,5.2-1,6.8c-0.7,1.6-2,2.9-3.9,3.8c-2.2,1-5.5,1.6-9.9,2
				C133.9,160,131.3,158.6,130.1,155.5z"/>
			<path class="st2" d="M178.8,154.5c-1.9,0-3.5-0.6-4.7-1.7s-1.7-2.8-1.7-4.7V76.9c0-1.9,0.6-3.5,1.7-4.7c1.2-1.2,2.8-1.7,4.7-1.7
				h35.5H250c1.9,0,3.5,0.6,4.7,1.7c1.2,1.2,1.7,2.8,1.7,4.7v71.1c0,1.9-0.6,3.5-1.7,4.7s-2.8,1.7-4.7,1.7h-71.2V154.5z
				 M186.9,143.4h56.7V82.5H214h-27.1c-1.6,0-2.3,0.7-2.3,2.3v56.2C184.6,142.7,185.3,143.4,186.9,143.4z M200.5,131.9
				c-1.9,0-3.5-0.6-4.7-1.7c-1.2-1.2-1.7-2.8-1.7-4.7v-24.8c0-1.9,0.6-3.5,1.7-4.7c1.2-1.2,2.8-1.7,4.7-1.7h27.2
				c1.9,0,3.5,0.6,4.7,1.7c1.2,1.2,1.7,2.8,1.7,4.7v24.8c0,1.9-0.6,3.5-1.7,4.7c-1.2,1.2-2.8,1.7-4.7,1.7h-13.5H200.5z M207.3,121.7
				h6.3h6.3c1.6,0,2.3-0.7,2.3-2.3V107c0-1.6-0.7-2.3-2.3-2.3h-12.5c-1.6,0-2.3,0.7-2.3,2.3v12.4C205,120.8,205.9,121.7,207.3,121.7
				z"/>
		</g>
	</g>
</g>
</svg>
