<?xml version="1.0" encoding="utf-8"?>
<!-- Generator: Adobe Illustrator 27.0.0, SVG Export Plug-In . SVG Version: 6.00 Build 0)  -->
<svg version="1.1" id="圖層_1" xmlns="http://www.w3.org/2000/svg" xmlns:xlink="http://www.w3.org/1999/xlink" x="0px" y="0px"
	 viewBox="0 0 177.7 195.9" style="enable-background:new 0 0 177.7 195.9;" xml:space="preserve">
<style type="text/css">
	.st0{fill:#4D4867;}
</style>
<g>
	<path class="st0" d="M58.2,78.8c-14.6,0-27.7,5.4-37.9,14.3V47.2c0-5.5-4.4-9.9-9.9-9.9s-9.9,4.4-9.9,9.9v91.7c0,0.7,0,1.2,0.1,1.9
		c2.3,29.8,27.2,53.3,57.5,53.3c31.9,0,57.7-25.8,57.7-57.7C115.9,104.7,89.9,78.8,58.2,78.8z M58.2,174.4
		c-20.9,0-37.9-17-37.9-37.9s17-37.9,37.9-37.9s37.9,17,37.9,37.9C96.1,157.3,79.1,174.4,58.2,174.4z"/>
	<path class="st0" d="M85.3,44.5c-5.5,0-9.9,4.4-9.9,9.9c0,5.5,4.4,9.9,9.9,9.9c18.7,0,33.8,15.1,33.8,33.8c0,5.5,4.4,9.9,9.9,9.9
		c5.5,0,9.9-4.4,9.9-9.9C138.8,68.4,114.8,44.5,85.3,44.5z"/>
	<path class="st0" d="M82.1,1.8c-5.5,0-9.9,4.4-9.9,9.9s4.4,9.9,9.9,9.9c41.5,0,75.3,33.8,75.3,75.3c0,5.5,4.4,9.9,9.9,9.9
		c5.5,0,9.9-4.4,9.9-9.9C177,44.3,134.4,1.8,82.1,1.8z"/>
</g>
</svg>
