<?xml version="1.0" encoding="utf-8"?>
<!-- Generator: Adobe Illustrator 27.0.0, SVG Export Plug-In . SVG Version: 6.00 Build 0)  -->
<svg version="1.1" id="圖層_1" xmlns="http://www.w3.org/2000/svg" xmlns:xlink="http://www.w3.org/1999/xlink" x="0px" y="0px"
	 viewBox="0 0 331.1 122.9" style="enable-background:new 0 0 331.1 122.9;" xml:space="preserve">
<style type="text/css">
	.st0{fill:#47CFB9;}
	.st1{fill:#FFFFFF;}
</style>
<g>
	<path class="st0" d="M270.1,120.6H61c-32.6,0-59.1-26.7-59.1-59.1l0,0C1.8,28.8,28.5,2.3,61,2.3h209.2c32.6,0,59.1,26.7,59.1,59.1
		l0,0C329.3,94,302.7,120.6,270.1,120.6z"/>
	<g>
		<path class="st1" d="M59.1,91.3c-3.6,0-5.5-1.8-5.5-5.3V36.8c0-1.5,0.5-2.8,1.4-3.8c0.9-0.9,2.3-1.4,3.8-1.4h3.9
			c1.2,0,2.4,0.4,3.4,1.1c1.1,0.7,1.8,1.7,2.1,2.8l8.8,24.1c0.6,1.8,1.4,4.4,2.5,7.9c0.5,1.7,0.8,2.8,1.2,3.7h0.4
			c0.4-1.2,0.9-3,1.7-5.3c0.8-2.8,1.4-4.9,1.9-6.2l8.5-24.1c0.4-1.2,1.1-2.1,2.1-2.8c1.1-0.7,2.1-1.1,3.4-1.1h2.5h3.6
			c0.9,0,1.7,0.2,2.3,0.8c0.6,0.6,0.8,1.3,0.8,2.3v51.1c0,3.6-1.8,5.5-5.5,5.5c-3.7,0-5.5-1.8-5.5-5.5V66.3c0-3.4,0.5-9.5,1.3-18.1
			c0-0.6,0.1-1.2,0.1-1.4h-0.4l-4.9,14.1l-7.9,21.9c-0.4,0.9-0.9,1.8-1.9,2.4c-0.8,0.6-1.8,0.9-2.8,0.9h-0.2c-2.1,0-3.6-0.9-4.3-3
			L67.8,61l-4.7-14.1h-0.4c0,0.6,0.1,1.5,0.4,2.8c0.8,8.1,1.2,13.6,1.2,16.8v19.7C64.4,89.5,62.6,91.3,59.1,91.3z"/>
		<path class="st1" d="M146.4,92.4c-8.1,0-14.5-2.8-19.3-8.4c-5-5.7-7.5-13.3-7.5-22.9s2.5-17.2,7.5-22.6c4.9-5.3,11.3-8.1,19.3-8.1
			s14.5,2.7,19.3,8.1c5,5.6,7.5,13.2,7.5,22.8s-2.5,17.2-7.5,22.8C160.9,89.6,154.3,92.4,146.4,92.4z M146.4,82.1
			c4.4,0,7.9-1.9,10.5-5.7c2.6-3.8,3.9-8.9,3.9-15.3S159.6,49.7,157,46s-6.2-5.5-10.7-5.5s-8.1,1.8-10.7,5.5s-3.9,8.7-3.9,15.1
			c0,6.4,1.3,11.5,3.9,15.3C138.3,80.2,141.9,82.1,146.4,82.1z"/>
		<path class="st1" d="M190.7,91.3c-4,0-5.9-2-5.9-5.9V36.8c0-1.5,0.5-2.8,1.4-3.8s2.3-1.4,3.8-1.4h5.2h10.4
			c14.9,0,22.4,6,22.4,18.1c0,8.5-3.8,14.2-11.4,17.2l10.5,18.5c1.1,1.8,1.2,3.2,0.6,4.3c-0.6,1.1-2,1.7-4,1.7h-2.7
			c-1.2,0-2.3-0.2-3.2-0.8c-0.9-0.6-1.8-1.4-2.3-2.4l-10.5-19.4h-8.3v16.6C196.8,89.3,194.8,91.3,190.7,91.3z M196.8,59.2h7.7
			c7.9,0,11.9-3.2,11.9-9.6c0-3.1-1.1-5.3-3.1-6.8c-1.9-1.2-4.9-1.9-8.8-1.9h-7.7v9.1V59.2z"/>
		<path class="st1" d="M245.1,91.3c-1.5,0-2.8-0.5-3.8-1.4c-0.9-0.9-1.4-2.3-1.4-3.8V36.8c0-1.5,0.5-2.8,1.4-3.8s2.3-1.4,3.8-1.4
			h26.4c3.3,0,5,1.7,5,5c0,3.3-1.7,5-5,5h-19.8v13.7h16c3.3,0,5,1.7,5,5c0,3.3-1.7,5-5,5h-16v16h20.6c3.3,0,5,1.7,5,5s-1.7,5-5,5
			h-13.7h-13.5V91.3z"/>
	</g>
</g>
</svg>
