<?xml version="1.0" encoding="utf-8"?>
<!-- Generator: Adobe Illustrator 27.0.0, SVG Export Plug-In . SVG Version: 6.00 Build 0)  -->
<svg version="1.1" id="圖層_1" xmlns="http://www.w3.org/2000/svg" xmlns:xlink="http://www.w3.org/1999/xlink" x="0px" y="0px"
	 viewBox="0 0 471.1 88.6" style="enable-background:new 0 0 471.1 88.6;" xml:space="preserve">
<style type="text/css">
	.st0{fill:#4D4867;}
	.st1{fill:#FF86AA;}
</style>
<g>
	<g>
		<g>
			<path class="st0" d="M189.8,37.4c-2.4,0-3.6-1.3-3.6-3.6V4.6c0-2.4,1.3-3.6,3.6-3.6s3.6,1.3,3.6,3.6v10.7h13.9V4.5
				c0-2.4,1.3-3.6,3.6-3.6s3.6,1.3,3.6,3.6v29.3c0,2.4-1.3,3.6-3.6,3.6s-3.6-1.3-3.6-3.6V21.6h-6.9h-6.9v12.2
				C193.5,36.2,192.2,37.4,189.8,37.4z"/>
			<path class="st0" d="M238.1,38.1c-4.9,0-8.9-1.7-11.8-5.1c-3-3.4-4.6-8.1-4.6-14s1.6-10.5,4.6-13.9c2.9-3.3,6.9-4.9,11.8-4.9
				s8.9,1.7,11.8,4.9c3,3.4,4.6,8,4.6,13.9s-1.6,10.5-4.6,14C247,36.4,243,38.1,238.1,38.1z M238.1,31.8c2.7,0,4.9-1.1,6.5-3.4
				S247,23,247,19s-0.8-7-2.4-9.2c-1.6-2.2-3.8-3.3-6.5-3.3s-4.9,1.1-6.5,3.3s-2.4,5.3-2.4,9.2s0.8,7,2.4,9.4
				C233.2,30.7,235.4,31.8,238.1,31.8z"/>
			<path class="st0" d="M270.9,37.4c-2.4,0-3.6-1.3-3.6-3.6V7H260c-2,0-3-1-3-3s1-3,3-3h10.9H282c2,0,3,1,3,3c0,2.1-1,3-3,3h-7.4
				v26.8C274.6,36.2,273.4,37.4,270.9,37.4z"/>
		</g>
	</g>
	<path class="st1" d="M1.5,48.8c149.9-1.6,318.2-1.6,468.1,0c0.8,0,1.5,0.6,1.5,1.5s-0.6,1.5-1.5,1.5C340.8,53.2,189.1,53.1,60,52.2
		L1.5,51.7c-0.8,0-1.5-0.6-1.5-1.5C0.1,49.4,0.7,48.8,1.5,48.8L1.5,48.8z"/>
	<g>
		<g>
			<path class="st1" d="M195.7,81.7c-0.7-0.4-1-0.9-1.1-1.5c-0.1-0.5,0.2-1,0.7-1.7c1.4-1.6,2.5-3.2,3.6-5.1
				c0.6-1.1,1.6-1.5,2.7-0.8c1.3,0.6,1.6,1.5,0.9,2.6c-0.4,0.7-1.1,1.9-2.1,3.2c-0.5,0.7-1.3,1.7-2.2,2.9c-0.4,0.4-0.8,0.7-1.3,0.7
				C196.6,82.3,196.2,82.1,195.7,81.7z M207.4,87.3c-1.4,0-2.6,0-3.6-0.1c-1.1-0.1-1.8-0.7-1.9-1.9c-0.1-0.7,0.1-1.4,0.5-1.7
				c0.4-0.3,1-0.4,1.9-0.3c0.3,0,0.6,0,1,0s0.7-0.1,0.8-0.3c0.1-0.2,0.3-0.5,0.3-0.9c0-0.8,0-5.2,0-13.1l0,0h-8.3
				c-0.3,0-0.5,0-0.8,0c-1.6,0.1-2.3-0.5-2.3-2.1c0-1.5,0.7-2.1,2.3-2c0.2,0,0.5,0,0.8,0h4.2h4.2v-2.7c0-0.1,0-0.1,0-0.2
				c-0.1-0.9,0-1.6,0.3-2s0.9-0.6,1.8-0.6s1.5,0.2,1.9,0.7c0.3,0.4,0.4,1.1,0.3,2.1v0.1V65h7.6c0.4,0,0.6,0,0.8,0
				c1.6-0.1,2.4,0.5,2.4,2c0,1.4-0.7,2.1-2.3,2c-0.3,0-0.6,0-0.9,0h-7.6v15.2C210.9,86.3,209.7,87.3,207.4,87.3z M218.3,80.7
				c-0.5-0.8-1-1.8-1.7-2.8c-0.5-0.9-1-1.8-1.6-2.5c-0.4-0.6-0.5-1-0.4-1.6c0.1-0.4,0.5-0.8,1.3-1.1c0.5-0.3,1-0.4,1.4-0.4
				s0.7,0.3,1.1,0.7c1.3,1.7,2.5,3.5,3.8,5.6c0.3,0.6,0.4,1.1,0.3,1.6c-0.1,0.4-0.5,0.8-1.3,1.1C220,82.2,218.9,82,218.3,80.7z"/>
			<path class="st1" d="M230.1,76.4c-0.4-0.1-0.7-0.5-0.9-1.3c-0.2-0.4-0.4-1.1-0.7-2.1c-0.2-0.6-0.4-1.3-0.7-1.8
				c-0.3-0.6-0.4-1.3-0.2-1.7c0.2-0.4,0.7-0.7,1.5-0.9c0.6-0.2,1.1-0.3,1.5-0.2c0.4,0.1,0.7,0.4,0.9,1c0.4,1,1,2.4,1.8,4.3
				c0.2,0.6,0.2,1.1,0,1.6c-0.2,0.3-0.6,0.6-1.3,0.9C231.1,76.5,230.5,76.5,230.1,76.4z M232.9,87.6c-0.7-0.7-1-1.5-1-2
				c0.1-0.5,0.6-0.9,1.7-1.4c3.4-1.5,6-3.4,8-5.8c1.7-2.2,2.9-4.9,3.8-8.3c0.3-1.9,1.3-2.6,2.9-2.1c1.5,0.4,1.9,1.5,1.5,3l0,0v0.1
				c-1,3.9-2.5,7.1-4.5,9.6c-1.5,1.9-3.2,3.5-5.2,5c-1.5,1-2.8,1.9-4.2,2.5C234.7,88.6,233.7,88.4,232.9,87.6z M237.4,74.2
				c-0.4-0.2-0.7-0.6-0.9-1.4c-0.1-0.3-0.3-0.9-0.5-1.7c-0.1-0.2-0.2-0.4-0.3-0.8s-0.3-0.8-0.4-1c-0.3-0.6-0.3-1.1-0.1-1.6
				s0.6-0.7,1.4-0.9c0.6-0.2,1.1-0.3,1.5-0.2c0.4,0.1,0.7,0.4,0.9,1c0,0.1,0.1,0.3,0.2,0.5c0.6,1.7,1,2.8,1.4,3.5
				c0.2,0.6,0.2,1.1,0,1.5c-0.2,0.3-0.6,0.6-1.3,0.8C238.4,74.4,237.8,74.4,237.4,74.2z"/>
			<path class="st1" d="M261,87.2c-0.7,0-1.3-0.2-1.7-0.6c-0.4-0.4-0.5-1-0.5-1.7c0.1-0.7,0.1-1.5,0.1-2.2V63.9c0-0.6,0-1.4-0.1-2.1
				c-0.1-0.5,0-1,0.3-1.4s0.7-0.5,1.3-0.5h0.6h1.4c0.3,0,0.6,0.1,0.8,0.3c0.2,0.2,0.3,0.4,0.2,0.7c-0.1,1-0.2,2-0.2,2.9v4.8
				c4.3,1.3,8.2,2.7,12,4.3c0.6,0.3,1,0.7,1.1,1.1s0,1-0.4,1.8c-0.6,1.6-1.7,2-3.1,1.3c-2.8-1.3-5.9-2.6-9.6-3.9v9.3
				c0,0.6,0,1.4,0.1,2.2c0.1,0.7-0.1,1.3-0.4,1.7s-0.8,0.6-1.6,0.6H261L261,87.2L261,87.2z"/>
		</g>
	</g>
</g>
</svg>
