<?xml version="1.0" encoding="utf-8"?>
<!-- Generator: Adobe Illustrator 27.0.0, SVG Export Plug-In . SVG Version: 6.00 Build 0)  -->
<svg version="1.1" id="圖層_1" xmlns="http://www.w3.org/2000/svg" xmlns:xlink="http://www.w3.org/1999/xlink" x="0px" y="0px"
	 viewBox="0 0 757.9 113.2" style="enable-background:new 0 0 757.9 113.2;" xml:space="preserve">
<style type="text/css">
	.st0{fill:#FFFFFF;stroke:#47CFB9;stroke-width:3;stroke-miterlimit:10;}
	.st1{fill:#47CFB9;}
	.st2{fill:#FFFFFF;}
</style>
<g>
	<path class="st0" d="M701.1,111.4H57.5c-30.3,0-54.8-24.5-54.8-54.8l0,0c0-30.3,24.5-54.8,54.8-54.8h643.6
		c30.3,0,54.8,24.5,54.8,54.8l0,0C755.9,86.9,731.4,111.4,701.1,111.4z"/>
	<path class="st1" d="M701.1,111.4h-55.9c-30.3,0-54.8-24.5-54.8-54.8l0,0c0-30.3,24.5-54.8,54.8-54.8h55.9
		c30.3,0,54.8,24.5,54.8,54.8l0,0C755.9,86.9,731.4,111.4,701.1,111.4z"/>
	<path class="st2" d="M716.7,91.7l-20.5-20.5c-1.4-1.4-3.4-2-5.3-1.6l-7.3-7.3c4.3-5.4,6.9-12.2,6.9-19.6c0-17.3-14-31.3-31.3-31.3
		s-31.3,14-31.3,31.3s14,31.3,31.3,31.3c7.4,0,14.2-2.6,19.6-6.9l7.3,7.3c-0.3,1.9,0.2,3.9,1.6,5.3l20.5,20.5
		c1.2,1.2,2.7,1.7,4.2,1.7s3.1-0.6,4.2-1.7C719.1,97.8,719.1,94,716.7,91.7z M659.2,65.6c-12.7,0-23.1-10.3-23.1-23.1
		c0-12.7,10.3-23.1,23.1-23.1s23.1,10.3,23.1,23.1C682.2,55.3,671.9,65.6,659.2,65.6z"/>
</g>
</svg>
