<?xml version="1.0" encoding="utf-8"?>
<!-- Generator: Adobe Illustrator 27.0.0, SVG Export Plug-In . SVG Version: 6.00 Build 0)  -->
<svg version="1.1" id="圖層_1" xmlns="http://www.w3.org/2000/svg" xmlns:xlink="http://www.w3.org/1999/xlink" x="0px" y="0px"
	 viewBox="0 0 326.7 226.1" style="enable-background:new 0 0 326.7 226.1;" xml:space="preserve">
<style type="text/css">
	.st0{fill:#47CFB9;}
	.st1{fill:#2AA890;}
	.st2{fill:#FFFFFF;}
</style>
<g>
	<path class="st0" d="M294.2,215.8H32.7c-10.2,0-18.3-8.1-18.3-18.3V28.6c0-10.2,8.1-18.3,18.3-18.3H294c10.2,0,18.3,8.1,18.3,18.3
		v168.8C312.3,207.6,304.2,215.8,294.2,215.8z"/>
	<path class="st1" d="M294.2,222.9H32.7c-14,0-25.4-11.4-25.4-25.4V28.6c0-14,11.4-25.4,25.4-25.4H294c14,0,25.4,11.4,25.4,25.4
		v168.8C319.5,211.5,308.2,222.9,294.2,222.9z M32.7,17.5c-6.1,0-11.2,5-11.2,11.2v168.8c0,6.1,5,11.2,11.2,11.2H294
		c6.1,0,11.2-5,11.2-11.2V28.6c0-6.1-5-11.2-11.2-11.2H32.7z"/>
	<g>
		<g>
			<path class="st2" d="M76.6,141.3c-1.3-0.4-2.4-1.7-3.4-3.7c-0.9-2-1.1-3.6-0.9-4.7c0.3-1.3,1.4-2.3,3.1-3.3
				c2.1-1.1,4.7-2.6,7.9-4.3c0.9-0.4,2.1-1.1,3.9-2.3c2.6-1.4,4.4-2.6,5.7-3.3c3.6-2.1,6.1-1.1,7.4,2.9c0.9,2.9,0.1,5.3-2.3,6.9
				c-5.7,3.9-11.3,7.4-16.6,10.7C79.4,141.4,77.9,141.7,76.6,141.3z M78.6,94.4c-3.6,0-5.4-1.9-5.4-5.6c0-3.6,1.9-5.4,5.4-5.4h7.1
				h7.1c3.6,0,5.4,1.9,5.4,5.4c0,3.7-1.9,5.6-5.4,5.6H78.6z M96.3,156.9c-2,0-3.4-0.9-4.4-2.3c-1.3-1.9-1.3-3.7,0.1-5.9
				c1.1-1.7,3-3.1,5.6-4.4c8-5.1,14.2-11.7,18.2-19.7c3.1-6.3,4.7-12.3,4.7-18.2v-10h-7.9c-2,4.9-4.1,9.1-6.6,13
				c-1.3,1.7-2.4,2.7-3.7,3c-1.3,0.3-2.9-0.1-4.6-1.1c-2.1-1.3-3.3-2.4-3.6-3.9c-0.3-1.3,0.4-2.9,1.9-4.9
				c4.9-7.3,8.7-16.6,11.4-27.7c0.4-2,1.3-3.6,2.6-4.4c1.3-1,2.9-1.4,4.9-1c4,0.7,5.6,3.1,4.6,7.1c-0.6,2.1-1.3,4.9-2.4,8.1h16.6
				h20.3c2.1,0,3.7,0.7,4.7,2c1,1.4,1.1,3.4,0.4,6c-1.7,6.9-4.1,13.3-7.1,19.4c-0.7,1.4-1.7,2.3-2.7,2.4c-0.9,0.1-2.1-0.3-4-1.1
				c-1.7-0.9-2.9-1.7-3.3-2.9c-0.4-1.1-0.3-2.4,0.4-4.1c1.4-3.3,2.7-6.7,3.9-10.3h-13.6v9.9c0,5.7,1.4,11.4,4.1,17.6
				c3.6,7.9,9,14.4,16,19.4c2.4,1.4,4.3,3,5.3,5c1.3,2.1,1.1,4.3-0.1,6.1c-1,1.4-2.4,2.3-4.4,2.4c-1.7,0-3.6-0.4-5.3-1.4
				c-5.9-4-11-9.1-15.2-15.4c-3.4-5.1-5.6-10-6.4-14.6c-1.3,4.6-3.7,9.4-7.6,14.6c-4.7,6.4-10.4,11.6-17.3,15.7
				C99.9,156.4,98,156.9,96.3,156.9z"/>
			<path class="st2" d="M178.5,153.7c-1.9,0-3.4-0.6-4.6-1.7c-1.1-1.1-1.7-2.7-1.7-4.6V77.5c0-1.9,0.6-3.4,1.7-4.6
				c1.1-1.1,2.7-1.7,4.6-1.7h34.9h35c1.9,0,3.4,0.6,4.6,1.7c1.1,1.1,1.7,2.7,1.7,4.6v69.8c0,1.9-0.6,3.4-1.7,4.6
				c-1.1,1.1-2.7,1.7-4.6,1.7h-69.9V153.7z M186.5,142.9h55.6V83.1h-29h-26.6c-1.6,0-2.3,0.7-2.3,2.3v55.2
				C184.2,142.1,184.9,142.9,186.5,142.9z M199.8,131.6c-1.9,0-3.4-0.6-4.6-1.7c-1.1-1.1-1.7-2.7-1.7-4.6V101c0-1.9,0.6-3.4,1.7-4.6
				c1.1-1.1,2.7-1.7,4.6-1.7h26.7c1.9,0,3.4,0.6,4.6,1.7c1.1,1.1,1.7,2.7,1.7,4.6v24.3c0,1.9-0.6,3.4-1.7,4.6
				c-1.1,1.1-2.7,1.7-4.6,1.7h-13.3H199.8z M206.5,121.6h6.1h6.1c1.6,0,2.3-0.7,2.3-2.3v-12.2c0-1.6-0.7-2.3-2.3-2.3h-12.3
				c-1.6,0-2.3,0.7-2.3,2.3v12.2C204.2,120.7,205.1,121.6,206.5,121.6z"/>
		</g>
	</g>
</g>
</svg>
