<?xml version="1.0" encoding="utf-8"?>
<!-- Generator: Adobe Illustrator 27.0.0, SVG Export Plug-In . SVG Version: 6.00 Build 0)  -->
<svg version="1.1" id="圖層_1" xmlns="http://www.w3.org/2000/svg" xmlns:xlink="http://www.w3.org/1999/xlink" x="0px" y="0px"
	 viewBox="0 0 317.4 151.7" style="enable-background:new 0 0 317.4 151.7;" xml:space="preserve">
<style type="text/css">
	.st0{fill:#47CFB9;}
	.st1{fill:#FFFFFF;}
	.st2{fill:#FFFFF4;}
	.st3{fill:#2AA890;}
	.st4{fill:#FFFFFF;stroke:#FF86AA;stroke-width:3;stroke-miterlimit:10;}
	.st5{fill:#FF86AA;}
	.st6{fill:#4D4867;}
	.st7{fill:#FFFFFF;stroke:#BBAEF9;stroke-width:3;stroke-linecap:round;stroke-linejoin:round;stroke-miterlimit:10;}
	.st8{fill:#BBAEF9;stroke:#BBAEF9;stroke-width:3;stroke-linecap:round;stroke-linejoin:round;stroke-miterlimit:10;}
	.st9{fill:#BBAEF9;}
	.st10{fill:#F95D98;}
</style>
<g>
	<path class="st0" d="M247,125.8H70.5c-27.5,0-49.9-22.5-49.9-49.9v0c0-27.5,22.5-49.9,49.9-49.9H247c27.5,0,49.9,22.5,49.9,49.9v0
		C296.9,103.3,274.4,125.8,247,125.8z"/>
	<g>
		<path class="st1" d="M122.2,103.5c-6,0-10.9-1.6-14.7-4.9c-1.5-1.4-1.5-3-0.1-4.9c1.7-2.3,3.7-2.6,6-0.8c2.5,1.6,5.1,2.5,7.8,2.5
			c2.6,0,4.7-0.6,6.2-1.8c1.6-1.2,2.4-3,2.4-5.2c0-2-0.5-3.7-1.6-4.8c-1.2-1.3-3.2-2.2-6.1-2.7c-1.4-0.1-2.7-0.5-4-1.2
			c-1.5-0.8-2.2-1.8-2.2-2.9c0-1.1,0.7-2.1,2-2.9c1.2-0.7,2.5-1.1,3.8-1.2c4.3-1,6.5-3.4,6.5-7.2c0-2-0.6-3.5-1.8-4.6
			c-1.2-1.1-2.8-1.7-5-1.7c-2.2,0-4.2,0.7-6.1,1.8c-1.1,0.8-2.2,1.2-3.2,1.1c-1.1-0.1-2-0.6-2.8-1.6c-1.7-2-1.5-3.8,0.7-5.5
			c3.7-2.5,7.7-3.7,11.9-3.7c4.9,0,8.9,1.2,11.9,3.5c3,2.4,4.5,5.7,4.5,9.9c0,5.5-2.8,9.3-8.4,11.5v0.3c3,0.8,5.4,2.2,7.2,4.3
			c1.9,2.2,2.9,4.9,2.9,8.1c0,4.5-1.7,8.1-5.2,10.8C131.4,102.2,127.3,103.5,122.2,103.5z"/>
		<path class="st1" d="M154.1,102.6c-3.3,0-5-1.7-5-5V83.5v-15c0-2.7,1.4-4.1,4.2-4.1c2.6,0,4.1,1.2,4.4,3.7l0.3,3h0.3
			c1.4-2.5,3-4.4,5-5.7c1.9-1.3,3.9-2,5.9-2c0.3,0,0.6,0,0.9,0c1.2,0.3,2.1,0.9,2.5,1.8c0.4,0.9,0.5,2,0.2,3.3
			c-0.6,2.9-2.2,4.1-4.7,3.7c0,0-0.1,0-0.1,0c-1.7,0-3.2,0.6-4.7,1.7c-1.7,1.3-3.1,3.2-4.1,5.8v17.8
			C159,100.9,157.4,102.6,154.1,102.6z"/>
		<path class="st1" d="M191.4,103.5c-4.8,0-8.6-1.8-11.4-5.3c-2.8-3.6-4.2-8.4-4.2-14.6c0-6,1.6-10.9,4.9-14.7
			c3.1-3.6,6.8-5.4,11.1-5.4c2,0,3.8,0.4,5.5,1.2c1.3,0.6,2.7,1.6,4.2,3l-0.4-6v-8.4c0-3.3,1.7-5,5-5c3.3,0,5,1.7,5,5v22.2v23.2
			c0,1.3-0.4,2.3-1.2,3c-0.8,0.7-1.8,1-3.2,1c-2.5,0-3.9-1.1-4.4-3.4l-0.1-0.5h-0.2C198.6,101.9,195.1,103.5,191.4,103.5z M194,95.3
			c2.7,0,5.1-1.3,7.1-4V83v-8.4c-2.1-1.9-4.5-2.9-7.1-2.9c-2.3,0-4.1,1-5.6,3c-1.5,2.1-2.3,5-2.3,8.7c0,3.9,0.7,6.9,2,8.9
			C189.5,94.3,191.4,95.3,194,95.3z"/>
	</g>
</g>
</svg>
