<?xml version="1.0" encoding="utf-8"?>
<!-- Generator: Adobe Illustrator 27.0.0, SVG Export Plug-In . SVG Version: 6.00 Build 0)  -->
<svg version="1.1" id="圖層_1" xmlns="http://www.w3.org/2000/svg" xmlns:xlink="http://www.w3.org/1999/xlink" x="0px" y="0px"
	 viewBox="0 0 172.4 154.8" style="enable-background:new 0 0 172.4 154.8;" xml:space="preserve">
<style type="text/css">
	.st0{fill:#FF86AA;}
</style>
<path class="st0" d="M161.3,78.2L88.1,5c-0.4-0.4-0.9-0.8-1.6-0.9L14.6,1.5c-2.6-0.7-5,1.7-4.3,4.3l2.6,71.9
	c0.1,0.7,0.5,1.2,0.9,1.6L87,152.5c1.3,1.3,3.5,1.3,5,0l69.3-69.3C162.6,81.7,162.6,79.5,161.3,78.2z M37.7,46.3
	c-4.8-4.8-4.8-12.8,0-17.6s12.8-4.8,17.6,0s4.8,12.8,0,17.6C50.4,51.3,42.6,51.3,37.7,46.3z"/>
</svg>
