<?xml version="1.0" encoding="utf-8"?>
<!-- Generator: Adobe Illustrator 27.0.0, SVG Export Plug-In . SVG Version: 6.00 Build 0)  -->
<svg version="1.1" id="圖層_1" xmlns="http://www.w3.org/2000/svg" xmlns:xlink="http://www.w3.org/1999/xlink" x="0px" y="0px"
	 viewBox="0 0 317.4 116.1" style="enable-background:new 0 0 317.4 116.1;" xml:space="preserve">
<style type="text/css">
	.st0{fill:#47CFB9;}
	.st1{fill:#FFFFFF;}
</style>
<g>
	<path class="st0" d="M259.8,115.2H57.6C26.2,115.2,0.5,89.4,0.5,58l0,0c0-31.5,25.8-57.1,57.1-57.1h202.1
		c31.5,0,57.1,25.8,57.1,57.1l0,0C316.9,89.4,291.1,115.2,259.8,115.2z"/>
	<g>
		<path class="st1" d="M116.8,89.6c-6.9,0-12.5-1.8-16.8-5.6c-1.7-1.6-1.7-3.4-0.1-5.6c1.9-2.6,4.2-3,6.9-0.9
			c2.9,1.8,5.8,2.9,8.9,2.9c3,0,5.4-0.7,7.1-2.1c1.8-1.4,2.7-3.4,2.7-6c0-2.3-0.6-4.2-1.8-5.5c-1.4-1.5-3.7-2.5-7-3.1
			c-1.6-0.1-3.1-0.6-4.6-1.4c-1.7-0.9-2.5-2.1-2.5-3.3c0-1.3,0.8-2.4,2.3-3.3c1.4-0.8,2.9-1.3,4.4-1.4c4.9-1.1,7.4-3.9,7.4-8.2
			c0-2.3-0.7-4-2.1-5.3c-1.4-1.3-3.2-1.9-5.7-1.9c-2.5,0-4.8,0.8-7,2.1c-1.3,0.9-2.5,1.4-3.7,1.3c-1.3-0.1-2.3-0.7-3.2-1.8
			c-1.9-2.3-1.7-4.4,0.8-6.3c4.2-2.9,8.8-4.2,13.6-4.2c5.6,0,10.2,1.4,13.6,4c3.4,2.7,5.2,6.5,5.2,11.3c0,6.3-3.2,10.6-9.6,13.2v0.3
			c3.4,0.9,6.2,2.5,8.2,4.9c2.2,2.5,3.3,5.6,3.3,9.3c0,5.2-1.9,9.3-6,12.4C127.4,88.2,122.7,89.6,116.8,89.6z"/>
		<path class="st1" d="M153.4,88.6c-3.8,0-5.7-1.9-5.7-5.7V66.7V49.6c0-3.1,1.6-4.7,4.8-4.7c3,0,4.7,1.4,5,4.2l0.3,3.4h0.3
			c1.6-2.9,3.4-5,5.7-6.5c2.2-1.5,4.5-2.3,6.8-2.3c0.3,0,0.7,0,1,0c1.4,0.3,2.4,1,2.9,2.1c0.5,1,0.6,2.3,0.2,3.8
			c-0.7,3.3-2.5,4.7-5.4,4.2h-0.1c-1.9,0-3.7,0.7-5.4,1.9c-1.9,1.5-3.5,3.7-4.7,6.6v20.4C159,86.7,157.2,88.6,153.4,88.6z"/>
		<path class="st1" d="M196.1,89.6c-5.5,0-9.8-2.1-13.1-6.1c-3.2-4.1-4.8-9.6-4.8-16.7c0-6.9,1.8-12.5,5.6-16.8
			c3.5-4.1,7.8-6.2,12.7-6.2c2.3,0,4.4,0.5,6.3,1.4c1.5,0.7,3.1,1.8,4.8,3.4l-0.5-6.9v-9.6c0-3.8,1.9-5.7,5.7-5.7
			c3.8,0,5.7,1.9,5.7,5.7v25.4v26.6c0,1.5-0.5,2.6-1.4,3.4c-0.9,0.8-2.1,1.1-3.7,1.1c-2.9,0-4.5-1.3-5-3.9l-0.1-0.6h-0.2
			C204.3,87.8,200.3,89.6,196.1,89.6z M199.1,80.3c3.1,0,5.8-1.5,8.1-4.6v-9.5v-9.6c-2.4-2.2-5.2-3.3-8.1-3.3
			c-2.6,0-4.7,1.1-6.4,3.4c-1.7,2.4-2.6,5.7-2.6,10c0,4.5,0.8,7.9,2.3,10.2C193.9,79.1,196.1,80.3,199.1,80.3z"/>
	</g>
</g>
</svg>
