<?xml version="1.0" encoding="utf-8"?>
<!-- Generator: Adobe Illustrator 27.0.0, SVG Export Plug-In . SVG Version: 6.00 Build 0)  -->
<svg version="1.1" id="圖層_1" xmlns="http://www.w3.org/2000/svg" xmlns:xlink="http://www.w3.org/1999/xlink" x="0px" y="0px"
	 viewBox="0 0 256.5 253.9" style="enable-background:new 0 0 256.5 253.9;" xml:space="preserve">
<style type="text/css">
	.st0{fill:#FFFFFF;}
</style>
<g>
	<path class="st0" d="M128.3,253.4c-69.8,0-126.5-56.7-126.5-126.5S58.5,0.5,128.3,0.5s126.5,56.7,126.5,126.5
		S198,253.4,128.3,253.4z M128.3,31.8c-52.4,0-95.1,42.7-95.1,95.1s42.7,95.1,95.1,95.1s95.1-42.7,95.1-95.1S180.7,31.8,128.3,31.8z
		"/>
	<path class="st0" d="M112.3,189.5c-3,0-6.1-1.2-8.3-3.4c-4.6-4.6-4.6-12,0-16.6l39.7-39.7l-39.5-39.5c-4.6-4.6-4.6-12,0-16.6
		c4.6-4.6,12-4.6,16.6,0l47.8,47.8c4.6,4.6,4.6,12,0,16.6l-48,48C118.4,188.4,115.3,189.5,112.3,189.5z"/>
</g>
</svg>
