<?xml version="1.0" encoding="utf-8"?>
<!-- Generator: Adobe Illustrator 27.0.0, SVG Export Plug-In . SVG Version: 6.00 Build 0)  -->
<svg version="1.1" id="圖層_1" xmlns="http://www.w3.org/2000/svg" xmlns:xlink="http://www.w3.org/1999/xlink" x="0px" y="0px"
	 viewBox="0 0 475 152.1" style="enable-background:new 0 0 475 152.1;" xml:space="preserve">
<style type="text/css">
	.st0{fill:#47CFB9;}
	.st1{fill:#FFFFFF;}
	.st2{fill:#FFFFF4;}
	.st3{fill:#2AA890;}
	.st4{fill:#FFFFFF;stroke:#FF86AA;stroke-width:3;stroke-miterlimit:10;}
	.st5{fill:#FF86AA;}
	.st6{fill:#4D4867;}
	.st7{fill:#FFFFFF;stroke:#BBAEF9;stroke-width:3;stroke-linecap:round;stroke-linejoin:round;stroke-miterlimit:10;}
	.st8{fill:#BBAEF9;stroke:#BBAEF9;stroke-width:3;stroke-linecap:round;stroke-linejoin:round;stroke-miterlimit:10;}
	.st9{fill:#BBAEF9;}
	.st10{fill:#F95D98;}
</style>
<g>
	<g>
		<g>
			<path class="st6" d="M193.6,69.5c-2.3,0-3.5-1.2-3.5-3.5v-28c0-2.3,1.2-3.5,3.5-3.5s3.5,1.2,3.5,3.5v10.3h13.3V37.9
				c0-2.3,1.2-3.5,3.5-3.5c2.3,0,3.5,1.2,3.5,3.5V66c0,2.3-1.2,3.5-3.5,3.5c-2.3,0-3.5-1.2-3.5-3.5V54.3h-6.6h-6.6V66
				C197.1,68.3,195.9,69.5,193.6,69.5z"/>
			<path class="st6" d="M239.9,70.1c-4.7,0-8.5-1.6-11.3-4.9c-2.9-3.3-4.4-7.8-4.4-13.4c0-5.6,1.5-10.1,4.4-13.3
				c2.8-3.2,6.6-4.7,11.3-4.7s8.5,1.6,11.3,4.7c2.9,3.3,4.4,7.7,4.4,13.3c0,5.6-1.5,10.1-4.4,13.4C248.4,68.5,244.6,70.1,239.9,70.1
				z M239.9,64.1c2.6,0,4.7-1.1,6.2-3.3c1.5-2.2,2.3-5.2,2.3-9s-0.8-6.7-2.3-8.8c-1.5-2.1-3.6-3.2-6.2-3.2s-4.7,1.1-6.2,3.2
				c-1.5,2.1-2.3,5.1-2.3,8.8s0.8,6.7,2.3,9C235.2,63,237.3,64.1,239.9,64.1z"/>
			<path class="st6" d="M271.4,69.5c-2.3,0-3.5-1.2-3.5-3.5V40.3h-7c-1.9,0-2.9-1-2.9-2.9c0-1.9,1-2.9,2.9-2.9h10.5H282
				c1.9,0,2.9,1,2.9,2.9c0,2-1,2.9-2.9,2.9h-7.1V66C274.9,68.3,273.8,69.5,271.4,69.5z"/>
		</g>
	</g>
	<path class="st5" d="M13,80.4c143.8-1.5,305.2-1.5,449,0c0.8,0,1.4,0.6,1.4,1.4c0,0.8-0.6,1.4-1.4,1.4
		c-123.6,1.4-269.1,1.3-392.9,0.5c0,0-56.1-0.5-56.1-0.5c-0.8,0-1.4-0.6-1.4-1.4C11.6,81,12.2,80.4,13,80.4L13,80.4z"/>
	<g>
		<g>
			<path class="st5" d="M199.2,112c-0.7-0.4-1-0.9-1.1-1.4c-0.1-0.5,0.2-1,0.7-1.6c1.3-1.5,2.4-3.1,3.5-4.9c0.6-1.1,1.5-1.4,2.6-0.8
				c1.2,0.6,1.5,1.4,0.9,2.5c-0.4,0.7-1.1,1.8-2,3.1c-0.5,0.7-1.2,1.6-2.1,2.8c-0.4,0.4-0.8,0.7-1.2,0.7
				C200.1,112.5,199.7,112.3,199.2,112z M210.5,117.3c-1.3,0-2.5,0-3.5-0.1c-1.1-0.1-1.7-0.7-1.8-1.8c-0.1-0.7,0.1-1.3,0.5-1.6
				c0.4-0.3,1-0.4,1.8-0.3c0.3,0,0.6,0,1,0c0.4,0,0.7-0.1,0.8-0.3s0.3-0.5,0.3-0.9c0-0.8,0-5,0-12.6v0h-8c-0.3,0-0.5,0-0.8,0
				c-1.5,0.1-2.2-0.5-2.2-2c0-1.4,0.7-2,2.2-1.9c0.2,0,0.5,0,0.8,0h4h4v-2.5c0-0.1,0-0.1,0-0.2c-0.1-0.9,0-1.5,0.3-1.9
				c0.3-0.4,0.9-0.6,1.7-0.6s1.4,0.2,1.8,0.7c0.3,0.4,0.4,1.1,0.3,2c0,0,0,0.1,0,0.1V96h7.3c0.4,0,0.6,0,0.8,0
				c1.5-0.1,2.3,0.5,2.3,1.9c0,1.3-0.7,2-2.2,1.9c-0.3,0-0.6,0-0.9,0h-7.3v14.6C213.8,116.4,212.7,117.3,210.5,117.3z M220.9,111
				c-0.5-0.8-1-1.7-1.6-2.7c-0.5-0.9-1-1.7-1.5-2.4c-0.4-0.6-0.5-1-0.4-1.5c0.1-0.4,0.5-0.8,1.2-1.1c0.5-0.3,1-0.4,1.3-0.4
				c0.4,0,0.7,0.3,1.1,0.7c1.2,1.6,2.4,3.4,3.6,5.4c0.3,0.6,0.4,1.1,0.3,1.5c-0.1,0.4-0.5,0.8-1.2,1.1
				C222.5,112.4,221.5,112.2,220.9,111z"/>
			<path class="st5" d="M232.2,106.9c-0.4-0.1-0.7-0.5-0.9-1.2c-0.2-0.4-0.4-1.1-0.7-2c-0.2-0.6-0.4-1.2-0.7-1.7
				c-0.3-0.6-0.4-1.2-0.2-1.6c0.2-0.4,0.7-0.7,1.4-0.9c0.6-0.2,1.1-0.3,1.4-0.2c0.4,0.1,0.7,0.4,0.9,1c0.4,1,1,2.3,1.7,4.1
				c0.2,0.6,0.2,1.1,0,1.5c-0.2,0.3-0.6,0.6-1.2,0.9C233.2,107,232.6,107,232.2,106.9z M234.9,117.6c-0.7-0.7-1-1.4-1-1.9
				c0.1-0.5,0.6-0.9,1.6-1.3c3.3-1.4,5.8-3.3,7.7-5.6c1.6-2.1,2.8-4.7,3.6-8c0.3-1.8,1.2-2.5,2.8-2c1.4,0.4,1.8,1.4,1.4,2.9v0l0,0.1
				c-1,3.7-2.4,6.8-4.3,9.2c-1.4,1.8-3.1,3.4-5,4.8c-1.4,1-2.7,1.8-4,2.4C236.6,118.6,235.7,118.4,234.9,117.6z M239.2,104.8
				c-0.4-0.2-0.7-0.6-0.9-1.3c-0.1-0.3-0.3-0.9-0.5-1.6c-0.1-0.2-0.2-0.4-0.3-0.8c-0.1-0.4-0.3-0.8-0.4-1c-0.3-0.6-0.3-1.1-0.1-1.5
				c0.2-0.4,0.6-0.7,1.3-0.9c0.6-0.2,1.1-0.3,1.4-0.2c0.4,0.1,0.7,0.4,0.9,1c0,0.1,0.1,0.3,0.2,0.5c0.6,1.6,1,2.7,1.3,3.4
				c0.2,0.6,0.2,1.1,0,1.4c-0.2,0.3-0.6,0.6-1.2,0.8C240.2,105,239.6,105,239.2,104.8z"/>
			<path class="st5" d="M261.9,117.2c-0.7,0-1.2-0.2-1.6-0.6c-0.4-0.4-0.5-1-0.5-1.6c0.1-0.7,0.1-1.4,0.1-2.1v-18c0-0.6,0-1.3-0.1-2
				c-0.1-0.5,0-1,0.3-1.3c0.3-0.3,0.7-0.5,1.2-0.5h0.6h1.3c0.3,0,0.6,0.1,0.8,0.3s0.3,0.4,0.2,0.7c-0.1,1-0.2,1.9-0.2,2.8v4.6
				c4.1,1.2,7.9,2.6,11.5,4.1c0.6,0.3,1,0.7,1.1,1.1c0.1,0.4,0,1-0.4,1.7c-0.6,1.5-1.6,1.9-3,1.2c-2.7-1.2-5.7-2.5-9.2-3.7v8.9
				c0,0.6,0,1.3,0.1,2.1c0.1,0.7-0.1,1.2-0.4,1.6s-0.8,0.6-1.5,0.6H261.9z"/>
		</g>
	</g>
</g>
</svg>
