<?xml version="1.0" encoding="utf-8"?>
<!-- Generator: Adobe Illustrator 27.0.0, SVG Export Plug-In . SVG Version: 6.00 Build 0)  -->
<svg version="1.1" id="圖層_1" xmlns="http://www.w3.org/2000/svg" xmlns:xlink="http://www.w3.org/1999/xlink" x="0px" y="0px"
	 viewBox="0 0 101.5 142.5" style="enable-background:new 0 0 101.5 142.5;" xml:space="preserve">
<style type="text/css">
	.st0{fill:#F95D98;}
	.st1{fill:#FFFFFF;}
</style>
<g>
	<path class="st0" d="M38.6,117.5l-27.6-15.9c-2.8-1.7-3.7-5.1-2.2-7.9L57,10.4c1.7-2.8,5.1-3.7,7.9-2.2l27.6,15.9
		c2.8,1.7,3.7,5.1,2.2,7.9l-48.1,83.3C44.9,118.2,41.5,119,38.6,117.5z"/>
	<g>
		<polygon class="st1" points="8,138.7 4.5,105.1 38.9,124.9 		"/>
		<path class="st0" d="M6.8,140.9c-0.6-0.4-1.1-1-1.1-1.8L2,105.4c-0.1-0.9,0.3-1.8,1-2.2c0.8-0.5,1.7-0.5,2.4-0.1L39.9,123
			c0.8,0.4,1.3,1.3,1.1,2.2c0,0.9-0.6,1.7-1.4,2L8.8,141C8.3,141.2,7.5,141.1,6.8,140.9L6.8,140.9z M7.3,109.5l2.7,25.8l23.7-10.6
			L7.3,109.5z"/>
	</g>
	<path class="st0" d="M99.2,24.8L61.3,3c0,0,5.1-5.6,22.2,4.2C102.5,18.2,99.2,24.8,99.2,24.8z"/>
	<polygon class="st0" points="8.9,137.2 21.3,134.6 5,125 	"/>
	<path class="st1" d="M21.4,99.5c-0.4-0.3-0.5-0.8-0.4-1.1l47.2-81.8c0.3-0.4,0.8-0.5,1.1-0.4c0.4,0.3,0.5,0.8,0.4,1.1L22.6,99.1
		C22.3,99.7,21.8,99.8,21.4,99.5z"/>
	<path class="st1" d="M35.6,107.8c-0.4-0.3-0.5-0.8-0.4-1.1l47.2-81.8c0.3-0.4,0.8-0.5,1.1-0.4c0.4,0.3,0.5,0.8,0.4,1.1l-47.2,81.8
		C36.6,107.9,36.1,108.1,35.6,107.8z"/>
</g>
</svg>
