<?xml version="1.0" encoding="utf-8"?>
<!-- Generator: Adobe Illustrator 27.0.0, SVG Export Plug-In . SVG Version: 6.00 Build 0)  -->
<svg version="1.1" id="圖層_1" xmlns="http://www.w3.org/2000/svg" xmlns:xlink="http://www.w3.org/1999/xlink" x="0px" y="0px"
	 viewBox="0 0 425.2 146.5" style="enable-background:new 0 0 425.2 146.5;" xml:space="preserve">
<style type="text/css">
	.st0{fill:#BBAEF9;}
	.st1{fill:#C8BDF7;}
	.st2{fill:#DED8FE;}
	.st3{fill:#F473A7;}
	.st4{fill:#FFFFFF;}
</style>
<rect x="1.2" y="0.8" class="st0" width="424.6" height="146.3"/>
<g>
	<path class="st4" d="M143.8,62.2c-4.6-12.5-16.6-21.4-30.6-21.4c-10.9,0-20.5,5.3-26.4,13.5c3.1,5.5,4.8,11.9,4.8,18.6
		c0,7-1.9,13.5-5.2,19.2c5.9,8.4,15.7,13.9,26.7,13.9c14.1,0,26-8.9,30.6-21.4c1.3-3.5,2-7.3,2-11.3
		C145.8,69.5,145.1,65.7,143.8,62.2z M113.2,85.3c-6.5,0-11.9-5.3-11.9-11.9c0-6.5,5.3-11.9,11.9-11.9c6.5,0,11.9,5.3,11.9,11.9
		C125.1,80,119.7,85.3,113.2,85.3z"/>
	<path class="st4" d="M82.7,54.8c-6.5-11.7-19-19.6-33.4-19.6c-21.1,0-38.2,17.1-38.2,38.2s17.1,38.2,38.2,38.2
		c14.1,0,26.5-7.7,33.1-19.1c3.3-5.6,5.2-12.2,5.2-19.2C87.6,66.7,85.8,60.4,82.7,54.8z M49.3,85.3c-6.5,0-11.9-5.3-11.9-11.9
		c0-6.5,5.3-11.9,11.9-11.9c6.5,0,11.9,5.3,11.9,11.9C61.2,80,55.9,85.3,49.3,85.3z"/>
	<path class="st4" d="M283.1,83.9c9.8-3.6,16.7-12.7,16.7-23.4c0-13.8-11.6-25.1-25.8-25.1h-26.3c-1.9,0-3.5,1.8-3.5,3.9v69.5
		c0,2.2,1.6,3.9,3.5,3.9h16.3c0.7,0,1.2-0.6,1.2-1.4V89.1l13.3,23.1c0.2,0.4,0.6,0.6,1,0.6h18c1,0,1.6-1.2,1-2.1L283.1,83.9z
		 M274.3,70.4c-5.7,0-10.3-4.5-10.3-10s4.6-10,10.3-10s10.3,4.5,10.3,10S280,70.4,274.3,70.4z"/>
	<path class="st4" d="M324.3,52.9V35.4h-6.6h-6.5H305c-2,0-3.5,1.3-3.5,3v71.4c0,1.7,1.6,3,3.5,3h6.3h6.5h6.6V95.3h-3V52.9H324.3z"
		/>
	<path class="st4" d="M241.6,52.9V35.4H235h-6.5h-6.3c-2,0-3.5,1.3-3.5,3v71.4c0,1.7,1.6,3,3.5,3h6.3h6.5h6.6V95.3h-3V52.9H241.6z"
		/>
	<g>
		<path class="st2" d="M333.3,62.7l-1.4-2.3l0-3.4l5.9-1.2l4.1,2.8l-0.6,3.4l-2.9,1.6L333.3,62.7z M331.6,66.9l3.8,0.7l4.3-0.4
			L337.7,78L337,89.4l0.5,2.2l-5-1.4l-4,0.1l1.6-7.9l1.3-10.2L331.6,66.9z"/>
		<path class="st2" d="M343.2,72.6l4.2,0l3.5-0.1l-0.2,1.3l2.5-0.6l5.4,0.3l5.5,2.4l1.6,7.3L364,93.8l0.5,3.7l-3.3,0.4l-4.8,0
			l0.8-4.7l1.1-7.5l-0.1-4l-2.1-1.5l-3.2-0.5l-3.1,1l-0.9,5.7l-0.3,10.1l-5.2-0.3l-3.3,0l1.8-9.8l0.9-8.5L343.2,72.6z"/>
		<path class="st2" d="M392.5,59.7l1.5,3.5l-5.6,1.7l-3.8-2l-2.5,1.5l-1,3.4l7.8,0.8l-0.9,5.7l-7.8-1l-0.9,7.4l0.1,11.1l-5.2-1.2
			l-3.7-0.9l0.4-1.5l1.4-8l0.7-7.6l-3.7-0.3l0.2-4.3l0-1.6l4,0.5l0-0.6l2.7-6l5.7-3.9l6.9,0.1L392.5,59.7z"/>
		<path class="st2" d="M399.5,99.6l-5.1-1.4l-4.4-2.8l-2.7-4.6l-0.5-4.8l0.7-3.6l2.6-4.5l5.5-3.1l6.4-0.5l6.2,2.4l4.6,4.7l1.3,6.5
			l-1.4,4.8l-2.5,3.9l-5.4,2.7L399.5,99.6z M399.2,80.5l-4,2l-1.7,3.1l0.1,3.6l2.5,2.8l3.5,1.3l3.8-0.6l2.8-2l0.7-4.1l-1.4-3.1
			l-2.9-2.3L399.2,80.5z"/>
	</g>
	<path class="st4" d="M220.4,69.2L220.4,69.2C220.4,69.2,220.4,69.2,220.4,69.2c0-0.7-0.5-1.3-1.2-1.3h-27.9c-0.6,0-1.2,0.6-1.2,1.3
		v11.9c0,0.7,0.5,1.3,1.2,1.3h3.1c-2.7,3.1-6.7,5-11.1,4.4c-6-0.7-10.9-6-11.6-12.5c-0.9-8.6,5.3-15.9,13.1-15.9
		c1.4,0,2.8,0.3,4.1,0.7c0.3,0.1,0.5,0.1,0.8,0.1l24.3-4.9c0.8-0.2,1.3-0.9,1.3-1.7c0-0.3-0.1-0.6-0.2-0.9
		c-6.1-10.3-16.5-17.2-28.5-17.9c-0.3,0-0.5,0-0.8,0c-0.3,0-0.7,0-1,0c-0.1,0-0.2,0-0.3,0c-19.9,0-36,17.4-36,39s16.1,39,36,39
		c0,0,0.1,0,0.1,0c0,0,0.1,0,0.1,0c16.8,0,30.9-12.5,34.9-29.3c0.3-1.2,0.6-2.4,0.7-3.7C220.6,76.6,220.5,70.4,220.4,69.2z"/>
	<g>
		<path class="st3" d="M76.3,106c3.9,0.9,8.5,1.4,12.4,0.8c4-0.8,7.8-3.5,11.1-6c1.2-1.1,2.9,0.4,2.1,1.8c-4.3,6.8-11.9,10.9-20,8.8
			c-1.7-0.3-9.1-2.5-7.3-5C75.1,105.9,75.8,105.8,76.3,106L76.3,106z"/>
		<path class="st3" d="M100.7,98.4c1.1,1.2,1.8,2.6,2.4,4.1c0.4,0.9,1.3,2.6-0.1,3.1c-2.4,0.1-4.1-2.6-4.4-4.7
			c-0.1-0.7-0.1-1.3,0.1-2.1C98.9,97.9,100.1,97.7,100.7,98.4L100.7,98.4z"/>
	</g>
	<path class="st4" d="M93.8,81.1H83.2c-1.8,0-3.3-1.5-3.3-3.3v-9.2c0-1.8,1.5-3.3,3.3-3.3h10.6c1.8,0,3.3,1.5,3.3,3.3v9.2
		C97.1,79.6,95.7,81.1,93.8,81.1z"/>
</g>
</svg>
